<?xml version="1.0" standalone="no"?>
<!DOCTYPE svg PUBLIC "-//W3C//DTD SVG 20010904//EN"
 "http://www.w3.org/TR/2001/REC-SVG-20010904/DTD/svg10.dtd">
<svg version="1.0" xmlns="http://www.w3.org/2000/svg"
 width="512.000000pt" height="512.000000pt" viewBox="0 0 512.000000 512.000000"
 preserveAspectRatio="xMidYMid meet">

<g transform="translate(0.000000,512.000000) scale(0.100000,-0.100000)"
fill="#000000" stroke="none">
<path d="M1882 4674 c-539 -78 -1019 -423 -1268 -911 -124 -244 -184 -495
-184 -778 0 -267 50 -490 166 -733 185 -390 509 -693 911 -852 525 -206 1116
-141 1579 175 l92 62 583 -584 c387 -386 598 -590 625 -603 92 -45 210 -15
269 68 40 58 47 151 16 214 -14 30 -198 220 -605 627 l-584 583 64 95 c409
602 388 1391 -52 1980 -82 109 -252 276 -364 356 -101 71 -333 192 -437 226
-101 34 -212 60 -318 76 -122 18 -365 18 -493 -1z m377 -414 c579 -60 1040
-494 1136 -1069 14 -80 16 -137 12 -255 -7 -198 -44 -348 -124 -511 -169 -341
-477 -589 -848 -682 -139 -35 -360 -43 -506 -18 -270 45 -508 167 -697 358
-132 134 -206 241 -274 398 -207 481 -99 1039 272 1409 211 211 479 339 773
370 108 11 145 11 256 0z"/>
</g>
</svg>
