<?xml version="1.0" encoding="UTF-8"?>
<svg version="1.1" xmlns="http://www.w3.org/2000/svg" width="512" height="512">
<path d="M0 0 C3.42312122 2.91067792 6.73120503 5.91767991 10 9 C10.66515625 9.60070313 11.3303125 10.20140625 12.015625 10.8203125 C34.13238403 31.58848866 47.22256751 63.37122335 48.27734375 93.42578125 C48.58990584 108.69835981 47.96118603 123.45034329 43 138 C44.17684357 137.99111755 45.35368713 137.98223511 46.56619263 137.9730835 C57.66024294 137.89197455 68.75423304 137.83202337 79.84851265 137.79275131 C85.552129 137.77188233 91.25550586 137.74357677 96.95898438 137.69824219 C102.46382881 137.65476061 107.96844297 137.63085771 113.47344589 137.62049103 C115.57300313 137.61310387 117.67254785 137.59867847 119.77200699 137.57707977 C122.71432924 137.54801551 125.65570168 137.54404532 128.59814453 137.54589844 C129.46489304 137.53151733 130.33164154 137.51713623 131.22465515 137.50231934 C136.64545359 137.53922794 139.68939788 138.41271059 144 142 C148.40518207 146.762359 149.12253992 150.14851567 149.13422108 156.49863815 C149.13867892 157.62332213 149.14313676 158.74800611 149.14772969 159.90677142 C149.14745315 161.76043696 149.14745315 161.76043696 149.14717102 163.65155029 C149.15084771 164.96422733 149.1545244 166.27690436 149.1583125 167.62935948 C149.16832503 171.27618548 149.17204808 174.92299501 149.17470181 178.5698328 C149.178607 182.50179302 149.1881851 186.43374023 149.19691467 190.36569214 C149.21667153 199.86210238 149.22674366 209.35851368 149.23564246 218.85493934 C149.24002606 223.32682927 149.24539263 227.79871801 149.25063133 232.27060699 C149.26764175 247.13533151 149.28213652 262.0000553 149.28938007 276.86478806 C149.29128996 280.72170767 149.2932103 284.57862728 149.29516602 288.43554688 C149.29564976 289.39416434 149.2961335 290.35278181 149.2966319 291.34044829 C149.30493451 306.87388939 149.33027617 322.40725355 149.36274669 337.94066104 C149.39580994 353.88756286 149.41382811 369.83442555 149.41702431 385.78136182 C149.41918994 394.73540091 149.42794639 403.68932774 149.45348549 412.64333344 C149.47518233 420.26783119 149.48324787 427.89218941 149.47351871 435.51671454 C149.46897123 439.40635434 149.47088606 443.29570617 149.49028015 447.18530655 C149.51113298 451.40391243 149.50093571 455.62187851 149.48774719 459.84051514 C149.50420106 461.68079635 149.50420106 461.68079635 149.52098733 463.55825496 C149.47276769 469.93694247 149.33783651 475.95852446 145 481 C140.53713811 484.64311212 137.0648589 485.58026332 131.43806458 485.50336456 C130.69343141 485.50917833 129.94879825 485.51499209 129.18160045 485.52098203 C126.68429535 485.53558995 124.1879719 485.52169365 121.69067383 485.50793457 C119.88310398 485.51254318 118.07553787 485.51889583 116.26797962 485.52684355 C111.29912827 485.54356545 106.33058361 485.53527747 101.36173105 485.52289867 C96.00377718 485.51386223 90.64587668 485.52781093 85.28793335 485.53881836 C74.79102314 485.55662318 64.29422722 485.55275484 53.7973125 485.5411678 C45.26774834 485.53214148 36.73821625 485.530906 28.20864868 485.53526306 C26.38905426 485.53618246 26.38905426 485.53618246 24.53270036 485.53712043 C22.06853794 485.53839931 19.60437553 485.53969616 17.14021313 485.5410108 C-5.97693126 485.55242235 -29.09401224 485.53929386 -52.21114624 485.51780933 C-72.05518394 485.49993785 -91.89912805 485.50304179 -111.74316406 485.52148438 C-134.77647728 485.54288091 -157.80973491 485.55132366 -180.84305668 485.53903532 C-183.298254 485.5377611 -185.75345134 485.53650361 -188.20864868 485.53526306 C-189.41671478 485.53464596 -190.62478088 485.53402886 -191.86945504 485.53339306 C-200.39071592 485.52993651 -208.91194159 485.53577507 -217.43319702 485.54518127 C-227.81498947 485.55638911 -238.19666092 485.55338677 -248.57843947 485.5320583 C-253.87738949 485.52153157 -259.17613761 485.51745375 -264.47508621 485.53065491 C-269.32341044 485.54255093 -274.17134513 485.53606232 -279.01963389 485.5147447 C-280.77593876 485.51026679 -282.53227635 485.51257145 -284.28856027 485.52224785 C-286.67219918 485.53437597 -289.05449619 485.5219744 -291.43806458 485.50336456 C-292.12329071 485.51272923 -292.80851685 485.52209389 -293.51450741 485.53174233 C-298.43120198 485.45478479 -301.22226245 484.08400519 -305 481 C-310.13760701 475.02453979 -309.55951251 467.29588182 -309.50120544 459.86070251 C-309.50673984 458.54390222 -309.51227424 457.22710192 -309.51797634 455.87039858 C-309.53269106 452.23053142 -309.52257385 448.59109864 -309.50823963 444.95124567 C-309.497111 441.02004232 -309.50907863 437.08889897 -309.51808167 433.15769958 C-309.5320029 425.46276432 -309.52446641 417.76799334 -309.50940608 410.07306593 C-309.49253289 401.11023734 -309.49575787 392.14744952 -309.49950016 383.18460996 C-309.50537661 367.19229468 -309.49121516 351.20005819 -309.46655273 335.20776367 C-309.44262858 319.69243416 -309.43555032 304.17720988 -309.44604492 288.66186523 C-309.45745566 271.76184986 -309.45938258 254.86188313 -309.44494683 237.96186835 C-309.443421 236.15965848 -309.44190064 234.3574486 -309.44038582 232.55523872 C-309.439628 231.6685401 -309.43887019 230.78184148 -309.43808941 229.86827321 C-309.4333481 223.62173327 -309.43519691 217.37521507 -309.43945122 211.12867546 C-309.44437915 203.51631999 -309.43838773 195.90406399 -309.41855692 188.29173129 C-309.40868932 184.40832474 -309.40357405 180.52506959 -309.41144943 176.64165497 C-309.41981227 172.43173118 -309.40491839 168.22221057 -309.38768005 164.01231384 C-309.3936901 162.78527534 -309.39970014 161.55823684 -309.40589231 160.29401535 C-309.35461661 153.42486303 -309.20873149 147.64146118 -304.46484375 142.2578125 C-298.99154968 138.19833608 -295.76063775 137.85910234 -289.05224609 137.88647461 C-288.12536484 137.88632858 -287.19848358 137.88618256 -286.24351501 137.8860321 C-283.1701323 137.88673054 -280.09680967 137.89451973 -277.0234375 137.90234375 C-274.89637281 137.90420818 -272.7693077 137.90563196 -270.64224243 137.90663147 C-265.03624288 137.91045472 -259.43026912 137.92028338 -253.82427979 137.93133545 C-248.10681507 137.9415537 -242.38934621 137.94612998 -236.671875 137.95117188 C-225.44790532 137.9619058 -214.2239548 137.97897993 -203 138 C-203.27714844 136.9378125 -203.55429688 135.875625 -203.83984375 134.78125 C-204.20598636 133.35423263 -204.57185722 131.92714552 -204.9375 130.5 C-205.11990234 129.80390625 -205.30230469 129.1078125 -205.49023438 128.390625 C-213.29220127 97.75017321 -207.10679778 63.26065147 -191.5 36.0546875 C-180.68620375 18.11518685 -166.54238752 3.38716383 -149 -8 C-148.07316406 -8.62261719 -147.14632812 -9.24523437 -146.19140625 -9.88671875 C-102.1147969 -37.70812465 -40.04447367 -32.74076464 0 0 Z M-146 29 C-146.75796875 29.65613281 -147.5159375 30.31226562 -148.296875 30.98828125 C-165.53465826 47.08837081 -176.3382855 71.39572287 -177.23828125 94.86328125 C-177.79506299 122.18822271 -170.16088022 146.72868479 -151.1015625 166.8359375 C-150.40804687 167.55007812 -149.71453125 168.26421875 -149 169 C-148.45085937 169.61101562 -147.90171875 170.22203125 -147.3359375 170.8515625 C-131.46392595 187.97457003 -107.21016975 196.94069053 -84.31640625 198.203125 C-58.58965009 198.52437482 -34.14056743 190.53836747 -15 173 C-13.62908203 171.76830078 -13.62908203 171.76830078 -12.23046875 170.51171875 C5.35955994 153.90574761 16.16281075 130.72612525 17.34375 106.5 C18.11535097 77.57491968 8.02213734 51.89713468 -11.75 30.8125 C-49.8646218 -5.46527255 -107.0955988 -4.99553497 -146 29 Z M-278 169 C-278 263.38 -278 357.76 -278 455 C-147.32 455 -16.64 455 118 455 C118 360.62 118 266.24 118 169 C88.3 169 58.6 169 28 169 C23.05 175.93 23.05 175.93 18 183 C13.48948571 188.21345158 8.87459597 193.13545371 4 198 C4.67794113 198.00586624 5.35588226 198.01173248 6.05436707 198.01777649 C13.11114535 198.08171579 20.16746781 198.16613745 27.22387695 198.26245117 C29.85727936 198.29570325 32.49075309 198.32373424 35.12426758 198.34643555 C38.90997711 198.37997529 42.69503289 198.4322932 46.48046875 198.48828125 C47.65772018 198.49467117 48.83497162 198.5010611 50.04789734 198.50764465 C51.14866104 198.52743881 52.24942474 198.54723297 53.38354492 198.56762695 C54.34951096 198.57873001 55.31547699 198.58983307 56.31071472 198.60127258 C59.46023843 199.06823734 61.35090902 200.28403779 64 202 C64.66 202 65.32 202 66 202 C68.58878543 208.38567073 70.33494541 213.41672547 67.8125 220.1875 C65.20995401 224.22593343 62.55880664 226.48039779 58 228 C56.44789408 228.09278169 54.89209696 228.12910393 53.3372221 228.13142776 C52.37353197 228.13526891 51.40984184 228.13911005 50.41694897 228.1430676 C48.82534324 228.14176787 48.82534324 228.14176787 47.20158386 228.14044189 C45.51349837 228.14489858 45.51349837 228.14489858 43.79131013 228.1494453 C40.00043305 228.15815342 36.20958748 228.15964233 32.41870117 228.16113281 C29.70881462 228.16522058 26.99893142 228.17076315 24.28904724 228.17617798 C16.91302585 228.18976466 9.5370099 228.19578651 2.16097808 228.20018864 C-2.44376062 228.20295043 -7.04849721 228.20718766 -11.65323448 228.21169281 C-24.39992675 228.22388579 -37.14661734 228.23418513 -49.89331532 228.2375679 C-51.11723427 228.23789725 -51.11723427 228.23789725 -52.36587886 228.23823325 C-53.18378745 228.23845153 -54.00169604 228.23866981 -54.84438974 228.2388947 C-56.50180996 228.23933817 -58.15923017 228.23978473 -59.81665039 228.24023438 C-60.6387897 228.2404558 -61.46092901 228.24067723 -62.30798163 228.24090537 C-75.63127381 228.24485387 -88.95451131 228.26230931 -102.27778236 228.2855939 C-115.95331856 228.30930142 -129.62882732 228.32176947 -143.30438441 228.32293582 C-150.98403347 228.32385291 -158.66361129 228.32961364 -166.34324074 228.34775543 C-172.88231792 228.36314832 -179.42130185 228.3682817 -185.9603937 228.36001733 C-189.29688466 228.35610789 -192.63303489 228.35868304 -195.9695282 228.37107468 C-199.58672601 228.38372286 -203.20343895 228.37795577 -206.82063293 228.36749268 C-207.87501126 228.37554908 -208.92938958 228.38360548 -210.01571876 228.39190602 C-215.42648595 228.3552044 -219.35430602 228.10232335 -224 225 C-227.40390898 221.3200984 -228.8690782 218.73471382 -229.25 213.6875 C-228.98011754 209.70673372 -227.92336609 207.44603092 -226 204 C-226 203.34 -226 202.68 -226 202 C-225.21625 201.690625 -224.4325 201.38125 -223.625 201.0625 C-221.07669872 200.07124962 -221.07669872 200.07124962 -219 199 C-217.24409123 198.88068952 -215.48385393 198.82280132 -213.72412109 198.79467773 C-212.07263565 198.7647599 -212.07263565 198.7647599 -210.38778687 198.73423767 C-208.59868393 198.70916893 -208.59868393 198.70916893 -206.7734375 198.68359375 C-205.55548492 198.66281265 -204.33753235 198.64203156 -203.08267212 198.62062073 C-199.1801738 198.55507416 -195.2776065 198.49621645 -191.375 198.4375 C-188.73436778 198.39431965 -186.09374261 198.35070552 -183.453125 198.30664062 C-176.96882357 198.19938756 -170.48445306 198.09763071 -164 198 C-164.77633789 197.22527344 -165.55267578 196.45054687 -166.35253906 195.65234375 C-168.86232844 193.13792548 -171.32655778 190.59767662 -173.75 188 C-174.91789062 186.7625 -174.91789062 186.7625 -176.109375 185.5 C-180.42641774 180.27287798 -184.14112313 174.57393325 -188 169 C-217.7 169 -247.4 169 -278 169 Z " fill="#000000" transform="translate(336,27)"/>
<path d="M0 0 C1.32744233 0.67832078 2.65871003 1.34948985 4 2 C4.51046875 1.62488281 5.0209375 1.24976563 5.546875 0.86328125 C19.22444851 -8.76437244 32.60915525 -11.30300955 49 -10 C53.55994579 -9.10833887 57.71218115 -7.77426987 62 -6 C62.7321875 -5.71125 63.464375 -5.4225 64.21875 -5.125 C77.45528429 0.75790413 86.53383466 12.21386343 92.03515625 25.328125 C97.54576513 40.58827267 95.67682086 56.21152807 89.1875 70.8125 C86.25727613 76.32688132 82.91373416 80.60058952 78.59204102 85.08496094 C77.67007982 86.0564464 77.67007982 86.0564464 76.72949314 87.04755783 C70.35952974 93.73287281 63.86707395 100.29682337 57.33984375 106.828125 C56.09380958 108.07738621 54.8478445 109.32671634 53.60194397 110.57611084 C51.02486584 113.1590968 48.44581213 115.74009061 45.86547852 118.31982422 C42.56542325 121.61977663 39.27237886 124.92663529 35.98091793 128.23515701 C33.42526812 130.80191597 30.86509584 133.36412668 28.30362129 135.92507172 C27.08641273 137.14345576 25.87081474 138.36345114 24.65690422 139.58512115 C22.96861249 141.28321999 21.27409193 142.97485573 19.57788086 144.66503906 C19.08485977 145.16367966 18.59183868 145.66232025 18.08387756 146.17607117 C13.46926767 150.74916681 9.77912643 153.43291364 3.1875 153.5625 C1.72376953 153.62630859 1.72376953 153.62630859 0.23046875 153.69140625 C-9.73256472 151.55905205 -18.30316943 140.00584525 -25.28125 133.01953125 C-26.66290998 131.64176573 -28.04479053 130.26422138 -29.42687988 128.8868866 C-32.31485174 126.00635008 -35.19895308 123.12200427 -38.08056641 120.23510742 C-41.75011227 116.55977667 -45.43087968 112.89592042 -49.11490631 109.23511219 C-51.97028435 106.39456074 -54.8186044 103.54701094 -57.6650238 100.69748497 C-59.01808372 99.34493398 -60.37346907 97.99470469 -61.7313385 96.64698219 C-76.75155596 81.72527611 -88.72555701 67.29568603 -89.3125 45.1875 C-89.03752815 31.07227818 -84.69810648 17.16802593 -74.8359375 6.6796875 C-52.48262217 -13.77121801 -25.5914739 -14.95328191 0 0 Z M-53.5234375 30.93359375 C-57.88627163 37.03925316 -58.9911779 42.69232352 -58 50 C-54.97602082 59.62930615 -47.47857314 66.16621241 -40.48046875 73.0078125 C-39.25340655 74.22553151 -38.02745673 75.44437235 -36.80256653 76.66427612 C-33.59960937 79.84828231 -30.38192026 83.01697415 -27.1607666 86.18255615 C-23.866903 89.42496906 -20.58741784 92.68185591 -17.30664062 95.9375 C-10.88496837 102.30579501 -4.44761598 108.65798058 2 115 C5.8811441 113.40186511 8.37822338 110.90082778 11.34765625 107.97460938 C11.868508 107.46368744 12.38935974 106.9527655 12.92599487 106.42636108 C14.64377271 104.7377394 16.35371881 103.04147251 18.0625 101.34375 C19.25789308 100.15987061 20.45328697 98.97599204 21.64868164 97.79211426 C24.15411896 95.30767466 26.65487466 92.81861764 29.15332031 90.32714844 C32.3407302 87.15067862 35.54623888 83.99316977 38.75654602 80.83986664 C41.23411237 78.39973745 43.69797678 75.94610973 46.15841675 73.48872375 C47.33350204 72.31965528 48.51354466 71.15554615 49.69876099 69.99674988 C57.17568366 62.67466921 63.53983287 55.91394796 64.5 45 C63.99829578 37.45923353 61.09376929 31.58876775 55.5625 26.5 C49.71590738 21.53802226 44.67358048 20.45587212 37.1171875 20.640625 C27.62296032 21.73519756 21.86852558 27.68585179 15.73828125 34.4765625 C12.12347278 37.80775547 8.50921908 39.77918872 3.55859375 40.21484375 C-4.35593411 39.17997915 -8.3566328 35.69928281 -13.8125 30 C-20.08451625 23.66255288 -25.10004985 20.8823379 -34.0625 20.5 C-42.90326846 20.85901598 -48.02315033 24.11474458 -53.5234375 30.93359375 Z " fill="#000000" transform="translate(253,299)"/>
<path d="M0 0 C3.91757861 1.9587893 6.93812058 4.09328111 9 8 C9.52565697 10.67981983 9.77243714 13.26924563 10 16 C10.8353125 16.22042969 10.8353125 16.22042969 11.6875 16.4453125 C19.10573015 18.62567069 24.30603413 22.03663754 29.5 27.75 C31.58138994 32.25967819 31.78772687 36.11450205 31 41 C28.81018851 45.37962299 26.15022066 48.39404749 22 51 C16.01739253 52.72575216 11.52819869 51.43240742 6 49 C5.195625 48.443125 4.39125 47.88625 3.5625 47.3125 C-0.51324343 45.2249241 -4.52650263 45.21658884 -9 46 C-12.29826662 47.96144954 -12.29826662 47.96144954 -14 51 C-14.22402051 53.51830447 -14.22402051 53.51830447 -13 56 C-10.59834438 57.58582604 -8.46732962 58.75955022 -5.875 59.9375 C-5.16085938 60.27958496 -4.44671875 60.62166992 -3.7109375 60.97412109 C1.11186474 63.24648456 6.02265294 65.22180348 11 67.125 C22.04540764 71.44812387 31.35807635 78.72930104 36.4375 89.75 C40.81383664 100.34740712 40.02062765 112.29971603 36.32421875 122.9609375 C31.98681336 132.91521891 24.94506264 140.73250244 15.125 145.375 C11.89590079 147.0111029 11.89590079 147.0111029 10.19921875 150.0625 C9.94062473 151.60884002 9.7102593 153.16015612 9.5078125 154.71484375 C8.61343544 158.7395405 6.03837029 161.33953646 3 164 C-0.94669337 166.32753712 -4.47428276 166.46024243 -9 166 C-13.53895437 164.58051427 -16.93616173 162.71083414 -19.5 158.625 C-20.98039937 155.04736818 -21.37224928 152.81555511 -21 149 C-22.74216797 148.86271484 -22.74216797 148.86271484 -24.51953125 148.72265625 C-29.08786602 148.14419501 -32.66936093 146.62780602 -36.6875 144.4375 C-37.34306885 144.08107422 -37.9986377 143.72464844 -38.67407227 143.35742188 C-43.63604084 140.50806134 -47.29171922 137.67947894 -49 132 C-50.07553278 126.80497374 -48.95493012 122.36167668 -46.39453125 117.765625 C-43.91939706 114.63184166 -40.83187698 112.99224072 -37 112 C-31.57541035 111.55058826 -28.19973699 112.49058685 -23.375 114.9375 C-15.90111894 118.69219322 -9.0660185 120.43810133 -0.8125 117.9375 C2.19972505 116.6975161 3.76894613 115.45229276 5.5 112.6875 C7.02003996 108.95073509 7.77220124 106.94680632 7 103 C2.70830549 97.36134509 -3.23474492 95.55158834 -9.6875 93.0625 C-24.18821622 87.41883205 -36.82449145 81.48472223 -44 67 C-47.86530832 57.39194788 -46.63091794 46.4677898 -43 37 C-38.72602651 27.90615609 -32.45694738 20.82781204 -23 17 C-22.34 17 -21.68 17 -21 17 C-21.0825 15.96875 -21.165 14.9375 -21.25 13.875 C-20.91320819 8.654727 -18.76918034 6.05224919 -15.4375 2.1875 C-11.30270145 -1.22820315 -5.02482824 -0.52476747 0 0 Z " fill="#000000" transform="translate(261,45)"/>
</svg>
