<?xml version="1.0" encoding="UTF-8"?>
<svg version="1.1" xmlns="http://www.w3.org/2000/svg" width="1280" height="990">
<path d="M0 0 C422.4 0 844.8 0 1280 0 C1280 326.7 1280 653.4 1280 990 C857.6 990 435.2 990 0 990 C0 663.3 0 336.6 0 0 Z " fill="#FEFEFE" transform="translate(0,0)"/>
<path d="M0 0 C0.82902832 0.38542969 1.65805664 0.77085937 2.51220703 1.16796875 C25.65482064 12.10441319 45.68172785 28.32867876 55.00390625 52.84375 C71.84486021 106.20645901 39.19685433 165.89855565 16.93115234 213.02859497 C15.92884841 215.1506398 14.93011113 217.27434229 13.93164062 219.39819336 C0.86137075 247.17564682 -12.45336176 274.81190403 -26.8515625 301.9296875 C-33.53637445 314.54467041 -39.64748852 327.44849503 -45.80078125 340.328125 C-47.90278757 344.72375522 -50.02550208 349.10832906 -52.16796875 353.484375 C-65.49217807 380.75806608 -77.51162831 408.51406551 -88 437 C-88.25007813 437.67550903 -88.50015625 438.35101807 -88.7578125 439.04699707 C-103.61012917 479.22545001 -116.22672617 522.72758355 -116.1328125 565.8984375 C-116.13376923 566.89525543 -116.13472595 567.89207336 -116.13571167 568.9190979 C-116.13638707 571.0114956 -116.13457789 573.10389548 -116.13037109 575.19628906 C-116.12502522 578.36007506 -116.13033223 581.52371839 -116.13671875 584.6875 C-116.13971401 594.83722951 -116.07577336 604.89655229 -115 615 C-118.59182633 614.46164363 -121.91609755 613.81418986 -125.3203125 612.546875 C-126.4959375 612.11181641 -126.4959375 612.11181641 -127.6953125 611.66796875 C-128.49710938 611.36503906 -129.29890625 611.06210937 -130.125 610.75 C-130.90359375 610.46253906 -131.6821875 610.17507813 -132.484375 609.87890625 C-138.01720633 607.81535841 -143.46664606 605.57650109 -148.91064453 603.29003906 C-151.9396838 602.02518656 -154.97856958 600.78870711 -158.0234375 599.5625 C-186.98854561 587.88863544 -215.20846367 575.56012575 -242.52270508 560.37109375 C-245.12373483 558.93151722 -247.73264452 557.50715136 -250.34375 556.0859375 C-265.48986205 547.8345489 -280.5450403 539.50184174 -295.08105469 530.2109375 C-297.81193213 528.4876357 -300.5771243 526.82305825 -303.34155273 525.15429688 C-314.25207207 518.56264971 -324.92080058 511.61458722 -335.56542969 504.60351562 C-337.48142579 503.3415559 -339.40033369 502.08401702 -341.3203125 500.828125 C-356.64355085 490.73176387 -371.69150442 480.16222963 -386.40039062 469.19091797 C-387.93397705 468.04915445 -389.47465311 466.91693224 -391.015625 465.78515625 C-394.03427371 463.55345473 -397.01861937 461.28120791 -400 459 C-400.52980469 458.60844727 -401.05960938 458.21689453 -401.60546875 457.81347656 C-412.24963005 449.91719607 -421.57781036 440.71781423 -430.9375 431.375 C-431.87938675 430.4383551 -431.87938675 430.4383551 -432.84030151 429.48278809 C-440.37371313 421.97263192 -447.38452176 414.33736267 -454 406 C-454.9830112 404.84757786 -455.97399118 403.70185267 -456.9765625 402.56640625 C-499.01216552 354.95616131 -531.68396168 296.53953378 -546.25 234.625 C-546.4965332 233.57965088 -546.74306641 232.53430176 -546.99707031 231.45727539 C-550.34338189 216.73790138 -551.4050567 202.53970593 -551.375 187.5 C-551.37518127 186.10702698 -551.37518127 186.10702698 -551.37536621 184.68591309 C-551.34954692 170.75850635 -550.61162925 157.51663357 -547 144 C-546.6840272 142.70463866 -546.36888009 141.40907554 -546.0546875 140.11328125 C-538.77683395 112.31677335 -523.86767548 87.20754575 -503.80273438 66.83349609 C-502.00378756 65.00385219 -500.2275798 63.15415517 -498.453125 61.30078125 C-473.35320014 35.33402126 -439.6305624 17.52582294 -402.94921875 16.734375 C-400.52865717 16.72531909 -398.10800279 16.73085223 -395.6875 16.75 C-394.40786377 16.75894287 -393.12822754 16.76788574 -391.80981445 16.77709961 C-345.89205429 17.34038237 -309.27824981 40.46990131 -272.02807617 64.87109375 C-240.90345738 87.92803962 -240.90345738 87.92803962 -206 100 C-205.855625 98.783125 -205.71125 97.56625 -205.5625 96.3125 C-203.12096524 85.3771753 -193.53279658 75.88895717 -186 68 C-185 70 -185 70 -185.62084961 72.15478516 C-185.96124268 73.02409668 -186.30163574 73.8934082 -186.65234375 74.7890625 C-187.01650391 75.73007813 -187.38066406 76.67109375 -187.75585938 77.640625 C-188.34077148 79.11789063 -188.34077148 79.11789063 -188.9375 80.625 C-189.32357422 81.61757813 -189.70964844 82.61015625 -190.10742188 83.6328125 C-191.06481137 86.09129417 -192.02925759 88.54676682 -193 91 C-192.5153125 90.00742187 -192.030625 89.01484375 -191.53125 87.9921875 C-180.70772266 65.98243965 -169.05020004 49.7608216 -149.828125 34.30078125 C-147.32138546 32.26145861 -144.86293694 30.17588743 -142.41625977 28.06518555 C-130.10582642 17.49009415 -118.67064764 8.00999121 -103 3 C-102.35514648 2.7829541 -101.71029297 2.5659082 -101.04589844 2.34228516 C-70.48469138 -7.8872508 -30.05200869 -14.37188335 0 0 Z " fill="#FEFEFE" transform="translate(893,176)"/>
<path d="M0 0 C0.87952332 0.07850189 1.75904663 0.15700378 2.66522217 0.23788452 C38.80813865 3.52164755 73.7815488 15.5863344 97.6484375 44.21484375 C120.07870229 73.87516851 124.73977837 109.71742469 120.00585938 145.88720703 C113.49882687 189.94785664 95.8074858 230.61561846 76.1875 270.25 C75.86916199 270.89420898 75.55082397 271.53841797 75.22283936 272.20214844 C62.60392215 297.73789996 62.60392215 297.73789996 56.4375 309.125 C52.30823441 316.75448623 48.72197098 324.61800413 45.16699219 332.52880859 C42.96222142 337.42802393 40.69781062 342.27545896 38.2734375 347.0703125 C34.82858848 353.89974918 31.64266427 360.84048587 28.5 367.8125 C28.19758392 368.48263123 27.89516785 369.15276245 27.58358765 369.84320068 C21.43034367 383.50539601 15.67575657 397.30669681 10.1875 411.25 C9.74873535 412.35359863 9.3099707 413.45719727 8.85791016 414.59423828 C-21.03374409 490.04858186 -51.58543765 584.93118704 -24.86328125 665.09765625 C-24.06765277 667.48454169 -23.40024354 669.810154 -22.8125 672.25 C-26.66957136 673.92791985 -30.52908438 675.60005653 -34.39086914 677.26708984 C-35.70176102 677.83390097 -37.0119965 678.40223289 -38.3215332 678.97216797 C-40.21391148 679.79544263 -42.10865498 680.61305215 -44.00390625 681.4296875 C-45.14029541 681.92194824 -46.27668457 682.41420898 -47.44750977 682.92138672 C-50.88245034 684.27761879 -54.24930624 685.29532552 -57.8125 686.25 C-56.8534375 687.673125 -56.8534375 687.673125 -55.875 689.125 C-53.8125 692.25 -53.8125 692.25 -52.8125 694.25 C-56.73181097 693.51342416 -60.6473208 692.75820571 -64.5625 692 C-65.65433594 691.79503906 -66.74617187 691.59007812 -67.87109375 691.37890625 C-74.52888067 690.07886502 -80.80000505 688.38371156 -87.16503906 686.02832031 C-89.85771289 685.23670798 -92.02336761 685.10227321 -94.8125 685.25 C-94.4825 686.57 -94.1525 687.89 -93.8125 689.25 C-97.22727981 688.22556606 -100.35835731 687.01658966 -103.50390625 685.359375 C-107.64895063 683.26457782 -111.85240527 681.72316395 -116.25 680.25 C-118.029036 679.63393806 -119.80765099 679.01665955 -121.5859375 678.3984375 C-124.85423332 677.26763924 -128.12460234 676.14403985 -131.39941406 675.03222656 C-153.08087185 667.65633154 -173.45222457 658.56855486 -193.87384033 648.22772217 C-196.80213847 646.75089668 -199.7427098 645.29922137 -202.68359375 643.84765625 C-212.20958679 639.13770969 -221.66357955 634.3126531 -231.04003906 629.31201172 C-236.08697317 626.63757696 -241.17714231 624.05926802 -246.296875 621.52734375 C-247.29772881 621.03232864 -247.29772881 621.03232864 -248.31880188 620.52731323 C-248.99710556 620.19184479 -249.67540924 619.85637634 -250.37426758 619.51074219 C-265.13402332 612.20914507 -279.59982925 604.5797704 -293.8125 596.25 C-294.89370117 595.6209375 -295.97490234 594.991875 -297.08886719 594.34375 C-311.17157452 586.14318571 -325.07425221 577.71927317 -338.64453125 568.68896484 C-340.69318981 567.3291908 -342.75085118 565.9845001 -344.8125 564.64453125 C-353.49040129 558.97669336 -361.77434222 552.86747397 -370.02441406 546.59716797 C-372.46835593 544.75586933 -374.95080411 542.97048283 -377.4375 541.1875 C-389.88059333 532.17184555 -401.63844198 522.33294279 -413.24609375 512.27734375 C-414.41366901 511.26777392 -415.58164019 510.25866179 -416.75 509.25 C-417.33064209 508.74863525 -417.91128418 508.24727051 -418.50952148 507.73071289 C-422.53898418 504.27680805 -426.67148165 500.98859461 -430.875 497.75 C-436.8595481 493.12987861 -442.40929163 488.1502315 -447.91015625 482.96875 C-450.27429532 480.75415944 -452.66694932 478.60826959 -455.125 476.5 C-458.53281873 473.55655908 -461.67757328 470.40245455 -464.8359375 467.1953125 C-466.6450149 465.41483712 -468.50131949 463.76457414 -470.4375 462.125 C-478.89165751 454.84270591 -486.90735152 446.74069042 -494.1171875 438.2265625 C-496.2487317 435.74139806 -498.46933599 433.34559854 -500.6875 430.9375 C-508.99023123 421.8183126 -516.48520978 412.16055234 -523.8125 402.25 C-524.67506088 401.10752868 -525.53836535 399.96561846 -526.40234375 398.82421875 C-553.50399184 362.79179206 -573.20152066 321.59856493 -581.8125 277.25 C-581.97766113 276.44739746 -582.14282227 275.64479492 -582.31298828 274.81787109 C-593.83640123 217.01013973 -578.68699039 151.81348346 -547.8125 102.25 C-547.19205811 101.24743164 -547.19205811 101.24743164 -546.55908203 100.22460938 C-535.0471554 81.73486533 -521.71329008 64.21188629 -505.8125 49.25 C-505.22855469 48.69570312 -504.64460938 48.14140625 -504.04296875 47.5703125 C-474.73458464 20.87988863 -437.02464521 3.116982 -397.06420898 3.00976562 C-394.91153754 3.00016299 -392.75986592 2.96912815 -390.60742188 2.9375 C-350.67698832 2.6296275 -310.45735493 22.32610821 -278.8125 45.25 C-278.12124023 45.74741699 -277.42998047 46.24483398 -276.71777344 46.75732422 C-267.38858634 53.50808188 -258.49934358 60.69569913 -249.8125 68.25 C-249.09964844 68.86230469 -248.38679688 69.47460938 -247.65234375 70.10546875 C-235.67490706 80.45967993 -224.10937818 91.2049578 -213.8125 103.25 C-212.15597182 105.17214758 -210.49707389 107.09221859 -208.83691406 109.01123047 C-207.67079259 110.3592977 -206.50603651 111.70854748 -205.34277344 113.05908203 C-204.80168945 113.68540527 -204.26060547 114.31172852 -203.703125 114.95703125 C-203.21875977 115.5188208 -202.73439453 116.08061035 -202.23535156 116.65942383 C-200.81347784 118.24890689 -199.33467284 119.75683971 -197.8125 121.25 C-197.67714844 120.66734375 -197.54179688 120.0846875 -197.40234375 119.484375 C-193.32424431 103.95340945 -182.51552348 91.27723505 -171.75 79.75 C-168.13062095 75.85746027 -165.01354191 71.85833348 -162 67.5 C-150.4978614 50.96881749 -136.87705338 38.96296441 -120.49072266 27.43896484 C-117.97256041 25.65493078 -115.48747905 23.82647063 -113 22 C-111.66195312 21.03320312 -111.66195312 21.03320312 -110.296875 20.046875 C-108.77587371 18.94677973 -107.26321146 17.83488881 -105.765625 16.703125 C-75.14588272 -5.37157292 -35.64443468 -3.31886563 0 0 Z M-71.8125 20.25 C-72.68277832 20.44255371 -73.55305664 20.63510742 -74.44970703 20.83349609 C-90.26635925 24.4527912 -105.08192652 28.8569612 -117.8125 39.25 C-118.91940506 40.1099595 -120.02891925 40.96656812 -121.140625 41.8203125 C-132.27802266 50.40419765 -143.00277604 59.44115781 -153.3203125 68.99609375 C-154.83705973 70.36782283 -156.38773843 71.70462392 -157.9921875 72.97265625 C-169.90776041 82.40774997 -176.02034106 99.00566573 -182.8125 112.25 C-182.39097656 111.06921875 -181.96945312 109.8884375 -181.53515625 108.671875 C-180.98167333 107.11461798 -180.4282933 105.5573244 -179.875 104 C-179.59720703 103.22269531 -179.31941406 102.44539063 -179.03320312 101.64453125 C-178.76572266 100.89042969 -178.49824219 100.13632813 -178.22265625 99.359375 C-177.97652588 98.66811523 -177.73039551 97.97685547 -177.47680664 97.26464844 C-176.82108753 95.27604347 -176.29382614 93.28714797 -175.8125 91.25 C-180.19115966 94.68399256 -183.61217274 98.17724367 -186.9375 102.625 C-187.56205078 103.43324219 -187.56205078 103.43324219 -188.19921875 104.2578125 C-192.68583083 110.16495066 -196.35457025 115.61783744 -196.8125 123.25 C-196.4825 123.58 -196.1525 123.91 -195.8125 124.25 C-218.54379847 114.96048299 -239.30108012 103.72791915 -259.8125 90.25 C-306.71685825 59.46206817 -354.00914204 30.75881035 -412.75683594 41.83959961 C-444.50026148 48.56089885 -469.52318289 64.79541429 -492.3125 87.4375 C-493.13709717 88.25645752 -493.96169434 89.07541504 -494.8112793 89.91918945 C-502.78131844 97.98460073 -509.72079877 106.58398403 -515.75 116.1875 C-516.51195679 117.40022583 -516.51195679 117.40022583 -517.28930664 118.63745117 C-528.51106175 136.87742976 -535.76289996 156.26806376 -539.8125 177.25 C-539.99200195 178.07951172 -540.17150391 178.90902344 -540.35644531 179.76367188 C-542.29487376 189.61879466 -542.20935001 199.49600684 -542.1875 209.5 C-542.18695618 210.43374451 -542.18641235 211.36748901 -542.18585205 212.32952881 C-542.14656271 227.00456832 -541.18597866 240.92628715 -537.8125 255.25 C-537.60351074 256.2085791 -537.39452148 257.1671582 -537.17919922 258.15478516 C-530.43120606 289.10456953 -518.14083557 318.60185086 -502.8125 346.25 C-502.34585938 347.09804199 -501.87921875 347.94608398 -501.3984375 348.81982422 C-494.45984668 361.38210579 -487.00351984 373.46692381 -478.8125 385.25 C-478.37164062 385.88518555 -477.93078125 386.52037109 -477.4765625 387.17480469 C-467.024839 402.16352635 -455.6800679 416.42175124 -443.8125 430.3125 C-443.35053223 430.85382568 -442.88856445 431.39515137 -442.41259766 431.95288086 C-434.64656644 440.99535447 -426.57765185 449.69433815 -418.16650391 458.13623047 C-416.57113087 459.74131658 -414.9868062 461.35680859 -413.40234375 462.97265625 C-406.32968728 470.1172288 -398.91817909 476.29946851 -390.8125 482.25 C-388.87400131 483.70700556 -386.93636025 485.16515366 -385 486.625 C-384.01128906 487.36234375 -383.02257812 488.0996875 -382.00390625 488.859375 C-379.75211231 490.54615332 -377.51084465 492.24256368 -375.27734375 493.953125 C-364.08401898 502.49158558 -352.49329312 510.39669549 -340.8125 518.25 C-339.52584383 519.12080151 -338.23936127 519.99185963 -336.953125 520.86328125 C-321.48363633 531.3015677 -305.74753405 541.42833401 -289.76855469 551.06933594 C-288.25230174 551.98453804 -286.73763989 552.90237643 -285.22363281 553.82128906 C-270.23994975 562.91122391 -255.13876976 571.75011646 -239.8125 580.25 C-238.86181641 580.77754883 -237.91113281 581.30509766 -236.93164062 581.84863281 C-210.24851542 596.61739033 -182.82526302 609.04235911 -154.625 620.625 C-153.80691864 620.96152588 -152.98883728 621.29805176 -152.14596558 621.64477539 C-141.43732951 626.04300124 -130.67156265 630.23846951 -119.8125 634.25 C-117.70776392 635.04015157 -115.60348023 635.83151125 -113.5 636.625 C-110.61833119 637.7105904 -108.92013339 638.25 -105.8125 638.25 C-105.88178711 637.57477295 -105.95107422 636.8995459 -106.02246094 636.20385742 C-107.03504332 625.00148921 -107.05598286 613.80313072 -107.0625 602.5625 C-107.06317474 601.51576111 -107.06384949 600.46902222 -107.06454468 599.39056396 C-107.04826357 583.47616557 -106.55931355 567.96307122 -103.8125 552.25 C-103.64621094 551.27224609 -103.47992187 550.29449219 -103.30859375 549.28710938 C-102.01802311 541.89261759 -100.46309794 534.57161116 -98.8125 527.25 C-98.55404297 526.07856445 -98.29558594 524.90712891 -98.02929688 523.70019531 C-85.61535212 468.21895996 -62.09018451 416.28621452 -37.33251953 365.38720703 C-35.33796264 361.27059026 -33.37021155 357.14146784 -31.40405273 353.01123047 C-25.16226071 339.90249041 -18.73117597 326.92134952 -12.02832031 314.04223633 C0.97685767 289.05136919 13.53558847 263.90604157 25.1875 238.25 C25.53828613 237.47819397 25.88907227 236.70638794 26.25048828 235.91119385 C29.00858737 229.84035188 31.75651336 223.76495763 34.5 217.6875 C34.87468414 216.85881409 35.24936829 216.03012817 35.63540649 215.17633057 C67.44751836 147.51540785 67.44751836 147.51540785 63.74609375 75.1328125 C54.52993282 51.68528716 35.86692797 36.14841226 13.75 25.4375 C12.67975586 24.91422119 12.67975586 24.91422119 11.58789062 24.38037109 C-1.82049997 18.15928094 -14.05620884 15.38980157 -28.75 15.6875 C-29.50474609 15.69520416 -30.25949219 15.70290833 -31.03710938 15.71084595 C-44.87661276 15.85834171 -58.28082404 17.24917044 -71.8125 20.25 Z " fill="#AAD2A8" transform="translate(883.8125,152.75)"/>
<path d="M0 0 C0.49661133 0.41314453 0.99322266 0.82628906 1.50488281 1.25195312 C13.92646657 11.60948247 25.63831066 22.49096887 37 34 C34 35 34 35 32.23266602 34.32592773 C31.57967529 33.94895752 30.92668457 33.5719873 30.25390625 33.18359375 C29.13713501 32.54296997 29.13713501 32.54296997 27.99780273 31.8894043 C26.79232788 31.17071167 26.79232788 31.17071167 25.5625 30.4375 C24.30191772 29.69463745 24.30191772 29.69463745 23.01586914 28.93676758 C9.23541327 20.68127149 -3.65979528 11.18965697 -16.27050781 1.26171875 C-63.24443739 -35.70409085 -111.90323177 -65.64888897 -174.2265625 -58.359375 C-178.46938727 -57.78711046 -182.6896372 -57.11202619 -186.90478516 -56.36376953 C-189.92766245 -55.83893998 -192.96067945 -55.4179573 -196 -55 C-193.32068499 -56.78621001 -191.58821038 -57.55621656 -188.5703125 -58.4375 C-187.69971191 -58.69192871 -186.82911133 -58.94635742 -185.93212891 -59.20849609 C-118.11817063 -78.32946085 -51.25937069 -42.68813165 0 0 Z " fill="#F9FDF8" transform="translate(644,237)"/>
<path d="M0 0 C3.5805284 0.61578564 5.71279298 2.06768022 8.5625 4.28125 C9.87202637 5.29010254 9.87202637 5.29010254 11.20800781 6.31933594 C12.12936523 7.03895508 13.05072266 7.75857422 14 8.5 C15.91129595 9.97416889 17.82275306 11.44812886 19.734375 12.921875 C20.65025391 13.63150391 21.56613281 14.34113281 22.50976562 15.07226562 C39.64260346 28.33509774 57.18485745 40.2758475 76 51 C76.33 50.67 76.66 50.34 77 50 C62.63697298 35.29726078 62.63697298 35.29726078 47 22 C44.64542691 20.02332135 42.32326784 18.0134988 40 16 C40.66 15.67 41.32 15.34 42 15 C42.33 14.34 42.66 13.68 43 13 C46.26859002 13.58134873 47.8912158 14.52155151 50.20703125 16.87890625 C50.78976807 17.46599365 51.37250488 18.05308105 51.97290039 18.65795898 C52.57996826 19.28645752 53.18703613 19.91495605 53.8125 20.5625 C54.44341553 21.20582275 55.07433105 21.84914551 55.72436523 22.51196289 C59.98096521 26.87772059 64.06833077 31.33965073 68 36 C70.24413186 38.60925145 72.49738128 41.21057599 74.75 43.8125 C75.3179126 44.4717749 75.8858252 45.1310498 76.47094727 45.81030273 C77.01162842 46.43622314 77.55230957 47.06214355 78.109375 47.70703125 C78.59374023 48.2688208 79.07810547 48.83061035 79.57714844 49.40942383 C80.99902216 50.99890689 82.47782716 52.50683971 84 54 C84.33 52.35 84.66 50.7 85 49 C85.33 49 85.66 49 86 49 C85.67 51.31 85.34 53.62 85 56 C86.65 56.33 88.3 56.66 90 57 C86.66437882 58.13988575 84.96686738 57.89918653 81.75390625 56.515625 C80.92769775 56.16346924 80.10148926 55.81131348 79.25024414 55.44848633 C78.36328857 55.05298584 77.47633301 54.65748535 76.5625 54.25 C75.63236084 53.84096436 74.70222168 53.43192871 73.74389648 53.01049805 C56.58003017 45.34245878 40.6002277 36.1840318 24.88818359 25.88964844 C21.82514421 23.88559731 18.75140958 21.89873273 15.67578125 19.9140625 C13.59599569 18.56826216 11.51655937 17.22192193 9.4375 15.875 C8.4676416 15.24754883 7.4977832 14.62009766 6.49853516 13.97363281 C2.17118411 11.15321632 -2.05642924 8.35161828 -6 5 C-3 4 -3 4 0 4 C0 2.68 0 1.36 0 0 Z " fill="#B0D1AE" transform="translate(602,220)"/>
<path d="M0 0 C7.43918859 8.59218384 9.87402164 20.0684491 12 31 C12.18691406 31.89332031 12.37382813 32.78664062 12.56640625 33.70703125 C16.674578 64.90693025 8.26879312 97.16959693 -3 126 C-3.34337402 126.88445801 -3.68674805 127.76891602 -4.04052734 128.68017578 C-11.06446055 146.57321542 -19.48939387 163.78094599 -28 181 C-29.34007675 176.97976976 -28.23675836 175.7145128 -26.4921875 171.8984375 C-25.92584897 170.63086832 -25.36182092 169.36226495 -24.79980469 168.09277344 C-24.3540509 167.08990295 -24.3540509 167.08990295 -23.89929199 166.06677246 C-22.39549028 162.61070257 -21.01144169 159.10907444 -19.6328125 155.6015625 C-19.34883606 154.87957169 -19.06485962 154.15758087 -18.77227783 153.41371155 C-1.31489599 108.86378071 16.58487982 61.17777113 4 13 C3.71511719 11.87207031 3.43023438 10.74414062 3.13671875 9.58203125 C2.23785162 6.22973268 2.23785162 6.22973268 1 3 C0.34 2.67 -0.32 2.34 -1 2 C-0.67 1.34 -0.34 0.68 0 0 Z " fill="#F6FDF5" transform="translate(967,217)"/>
<path d="M0 0 C5.57348141 0.24186806 8.25750544 3.76488527 11.875 7.5625 C12.50140381 8.20582275 13.12780762 8.84914551 13.77319336 9.51196289 C18.00383911 13.88280225 22.07769936 18.35075566 26 23 C28.24413186 25.60925145 30.49738128 28.21057599 32.75 30.8125 C33.3179126 31.4717749 33.8858252 32.1310498 34.47094727 32.81030273 C35.01162842 33.43622314 35.55230957 34.06214355 36.109375 34.70703125 C36.59374023 35.2688208 37.07810547 35.83061035 37.57714844 36.40942383 C38.99902216 37.99890689 40.47782716 39.50683971 42 41 C42.33 39.35 42.66 37.7 43 36 C43.33 36 43.66 36 44 36 C43.67 38.31 43.34 40.62 43 43 C44.65 43.33 46.3 43.66 48 44 C44.37029842 45.32623712 42.48857791 44.67479383 39.015625 43.12890625 C38.08105469 42.71962891 37.14648438 42.31035156 36.18359375 41.88867188 C35.21550781 41.45103516 34.24742187 41.01339844 33.25 40.5625 C32.26644531 40.12873047 31.28289063 39.69496094 30.26953125 39.24804688 C27.84162082 38.17552334 25.41893666 37.09257629 23 36 C24.87988281 34.95751953 24.87988281 34.95751953 27 34 C29.64564072 34.93565342 31.62963376 36.45014515 34 38 C34.33 37.67 34.66 37.34 35 37 C20.63697298 22.29726078 20.63697298 22.29726078 5 9 C2.64542691 7.02332135 0.32326784 5.0134988 -2 3 C-1.34 2.67 -0.68 2.34 0 2 C0 1.34 0 0.68 0 0 Z " fill="#B3D2B1" transform="translate(644,233)"/>
<path d="M0 0 C1.25466064 0.18900879 1.25466064 0.18900879 2.53466797 0.38183594 C4.47648923 0.71396233 6.39868207 1.15779697 8.3125 1.625 C8.8075 2.615 8.8075 2.615 9.3125 3.625 C4.5625 3.75 4.5625 3.75 2.3125 2.625 C1.466875 2.645625 0.62125 2.66625 -0.25 2.6875 C-3.11242835 2.63545585 -5.02457498 2.3426063 -7.73046875 1.6328125 C-12.9986244 0.42424506 -18.052835 0.36315737 -23.4375 0.4375 C-24.39817383 0.44249512 -25.35884766 0.44749023 -26.34863281 0.45263672 C-32.75507449 0.51409198 -39.05650079 0.85171475 -45.421875 1.6015625 C-46.16953125 1.60929688 -46.9171875 1.61703125 -47.6875 1.625 C-48.3475 0.965 -49.0075 0.305 -49.6875 -0.375 C-33.33703403 -2.3740618 -16.2963506 -2.45697896 0 0 Z " fill="#B3CFB1" transform="translate(515.6875,178.375)"/>
<path d="M0 0 C0.66 0.33 1.32 0.66 2 1 C-2.74757465 4.88085121 -7.32299965 7.84184765 -13.01953125 10.140625 C-15.25187984 11.03961799 -15.25187984 11.03961799 -18 13 C-18.845625 13.309375 -19.69125 13.61875 -20.5625 13.9375 C-23.30504053 14.87138318 -23.30504053 14.87138318 -25 18 C-27.625 18.6875 -27.625 18.6875 -30 19 C-23.53006213 12.12569101 -16.62439554 7.61628972 -8.125 3.5625 C-6.9817627 3.01275513 -6.9817627 3.01275513 -5.81542969 2.4519043 C-3.90637486 1.56805889 -1.95543029 0.77586428 0 0 Z " fill="#B3D1B2" transform="translate(800,158)"/>
<path d="M0 0 C0.66 0.33 1.32 0.66 2 1 C1.34 2.32 0.68 3.64 0 5 C-0.66 5 -1.32 5 -2 5 C-2.103125 5.763125 -2.20625 6.52625 -2.3125 7.3125 C-3.08127225 10.31770063 -3.85948902 10.89096712 -6 13 C-6.77628803 14.24260946 -7.50174094 15.51772747 -8.1875 16.8125 C-10.50131248 21.09944092 -12.88921544 25.33686079 -15.3125 29.5625 C-15.67432373 30.19454346 -16.03614746 30.82658691 -16.40893555 31.4777832 C-17.27210747 32.98548446 -18.13597812 34.49278566 -19 36 C-19.66 36 -20.32 36 -21 36 C-16.00227304 23.01051611 -7.67983005 11.51974507 0 0 Z " fill="#B4D0B2" transform="translate(349,235)"/>
<path d="M0 0 C6.76749651 7.78982045 9.47959358 17.94716352 11 28 C10.34 28 9.68 28 9 28 C9 29.65 9 31.3 9 33 C8.67 33 8.34 33 8 33 C7.84180786 32.16976318 7.84180786 32.16976318 7.68041992 31.32275391 C5.39685989 16.85560455 5.39685989 16.85560455 1 3 C0.34 2.67 -0.32 2.34 -1 2 C-0.67 1.34 -0.34 0.68 0 0 Z " fill="#F3FCF1" transform="translate(967,217)"/>
<path d="M0 0 C3.72433382 1.2125738 7.37802806 2.50859979 11 4 C11.33 3.34 11.66 2.68 12 2 C13.65 3.65 15.3 5.3 17 7 C17.33 5.35 17.66 3.7 18 2 C18.33 2 18.66 2 19 2 C18.67 4.31 18.34 6.62 18 9 C20.475 9.495 20.475 9.495 23 10 C19.37029842 11.32623712 17.48857791 10.67479383 14.015625 9.12890625 C12.61376953 8.51499023 12.61376953 8.51499023 11.18359375 7.88867188 C9.73146484 7.2322168 9.73146484 7.2322168 8.25 6.5625 C7.26644531 6.12873047 6.28289063 5.69496094 5.26953125 5.24804688 C2.84162082 4.17552334 0.41893666 3.09257629 -2 2 C-1.34 1.34 -0.68 0.68 0 0 Z " fill="#C5D6C5" transform="translate(669,267)"/>
<path d="M0 0 C0.66 0.33 1.32 0.66 2 1 C1.67725098 1.60996826 1.35450195 2.21993652 1.02197266 2.84838867 C-0.44626325 5.62673871 -1.91066427 8.40709254 -3.375 11.1875 C-3.88289062 12.14720703 -4.39078125 13.10691406 -4.9140625 14.09570312 C-5.40390625 15.02705078 -5.89375 15.95839844 -6.3984375 16.91796875 C-6.84880371 17.77156982 -7.29916992 18.6251709 -7.76318359 19.50463867 C-8.98114913 21.96196709 -10.01785665 24.44041416 -11 27 C-12.6336321 22.09910369 -10.0587029 18.04541775 -8.25 13.375 C-7.8890625 12.3953125 -7.528125 11.415625 -7.15625 10.40625 C-6.80046875 9.47554687 -6.4446875 8.54484375 -6.078125 7.5859375 C-5.58940918 6.30275635 -5.58940918 6.30275635 -5.09082031 4.99365234 C-4 3 -4 3 -1 2 C-0.67 1.34 -0.34 0.68 0 0 Z " fill="#B9D1B8" transform="translate(711,243)"/>
<path d="M0 0 C0.66 0.33 1.32 0.66 2 1 C1.40357022 2.89828157 0.79749837 4.79353501 0.1875 6.6875 C-0.31716797 8.27111328 -0.31716797 8.27111328 -0.83203125 9.88671875 C-1.95086395 12.86902532 -3.35118917 15.28872016 -5 18 C-5.85275525 20.34981447 -6.55114428 22.7112494 -7.25390625 25.109375 C-8 27 -8 27 -10 28 C-10 28.66 -10 29.32 -10 30 C-10.66 29.67 -11.32 29.34 -12 29 C-11.70754395 28.29915283 -11.41508789 27.59830566 -11.11376953 26.8762207 C-9.78380374 23.6884705 -8.45439637 20.50048771 -7.125 17.3125 C-6.66480469 16.20970703 -6.20460938 15.10691406 -5.73046875 13.97070312 C-5.28574219 12.90400391 -4.84101562 11.83730469 -4.3828125 10.73828125 C-3.97434082 9.75899658 -3.56586914 8.77971191 -3.14501953 7.77075195 C-2.07759755 5.18777282 -1.03224985 2.59720695 0 0 Z " fill="#B6D1B5" transform="translate(822,568)"/>
<path d="M0 0 C0.66 0.33 1.32 0.66 2 1 C-0.7913384 5.1870076 -3.30910203 6.43636734 -8 8 C-8.268125 8.61875 -8.53625 9.2375 -8.8125 9.875 C-10.54072687 12.9676165 -12.78681585 13.68849627 -16 15 C-16.99 15 -17.98 15 -19 15 C-13.00946074 9.42908788 -6.80198667 4.5441247 0 0 Z " fill="#B3D0B2" transform="translate(762,181)"/>
<path d="M0 0 C0.99 0 1.98 0 3 0 C1.4719611 5.09882455 -0.71036856 9.65665659 -3.125 14.375 C-3.49753906 15.11105469 -3.87007812 15.84710938 -4.25390625 16.60546875 C-5.1656122 18.40550358 -6.08229932 20.20301402 -7 22 C-7.33 22 -7.66 22 -8 22 C-8 19.69 -8 17.38 -8 15 C-7.360625 14.79375 -6.72125 14.5875 -6.0625 14.375 C-3.70387138 13.1505304 -3.70387138 13.1505304 -3.4375 10.3125 C-3.293125 9.219375 -3.14875 8.12625 -3 7 C-2.11506947 4.60010688 -1.07032361 2.32679046 0 0 Z " fill="#B2D0B1" transform="translate(964,407)"/>
<path d="M0 0 C-0.33 0.99 -0.66 1.98 -1 3 C-1.804375 3.12375 -2.60875 3.2475 -3.4375 3.375 C-4.283125 3.58125 -5.12875 3.7875 -6 4 C-6.33 4.66 -6.66 5.32 -7 6 C-8.6533894 6.69894614 -10.32321095 7.35921869 -12 8 C-13.95093708 9.01627762 -15.88846506 10.05866738 -17.8125 11.125 C-18.78832031 11.66382813 -19.76414062 12.20265625 -20.76953125 12.7578125 C-21.50558594 13.16773438 -22.24164063 13.57765625 -23 14 C-23.33 13.34 -23.66 12.68 -24 12 C-21.45934066 10.56069536 -18.91751978 9.12351161 -16.375 7.6875 C-15.66214844 7.28337891 -14.94929688 6.87925781 -14.21484375 6.46289062 C-2.76028963 0 -2.76028963 0 0 0 Z " fill="#B3D0B3" transform="translate(429,169)"/>
<path d="M0 0 C1.35852232 0.9655024 2.69551703 1.96264665 4 3 C0.64583333 3.47916667 -2.70833333 3.95833333 -6.0625 4.4375 C-7.00544922 4.57220703 -7.94839844 4.70691406 -8.91992188 4.84570312 C-13.94661458 5.56380208 -18.97330729 6.28190104 -24 7 C-20.54464086 4.69642724 -17.04916904 3.59113887 -13.125 2.375 C-12.41730469 2.14554688 -11.70960938 1.91609375 -10.98046875 1.6796875 C-3.79433328 -0.56848896 -3.79433328 -0.56848896 0 0 Z " fill="#E9F9E6" transform="translate(472,175)"/>
<path d="M0 0 C0.99 0.33 1.98 0.66 3 1 C2.01 2.485 2.01 2.485 1 4 C1.03156262 5.95688242 1.06582377 7.91634446 1.22265625 9.8671875 C0.92035863 12.76288048 -0.49515676 14.52251418 -2 17 C-2.63520612 19.0833715 -3.19774363 21.19022238 -3.6875 23.3125 C-3.93886719 24.38113281 -4.19023438 25.44976563 -4.44921875 26.55078125 C-4.63097656 27.35902344 -4.81273437 28.16726563 -5 29 C-5.33 29 -5.66 29 -6 29 C-5.40390686 22.26483263 -4.14905977 15.97211055 -2.4375 9.4375 C-2.20353516 8.52419922 -1.96957031 7.61089844 -1.72851562 6.66992188 C-1.15776375 4.44515436 -0.58152522 2.22197103 0 0 Z " fill="#B9D3B8" transform="translate(788,664)"/>
<path d="M0 0 C0.66 0.33 1.32 0.66 2 1 C1.65066406 1.61488281 1.30132812 2.22976562 0.94140625 2.86328125 C0.48636719 3.67152344 0.03132813 4.47976562 -0.4375 5.3125 C-0.88996094 6.11300781 -1.34242188 6.91351563 -1.80859375 7.73828125 C-3.11090548 10.06211429 -3.11090548 10.06211429 -4 13 C-5.65 12.01 -7.3 11.02 -9 10 C-8.06409496 8.8944811 -7.12620142 7.79064547 -6.1875 6.6875 C-5.66542969 6.07261719 -5.14335937 5.45773438 -4.60546875 4.82421875 C-3.12827531 3.14575321 -1.59960869 1.56117966 0 0 Z " fill="#B5D2B2" transform="translate(378,202)"/>
<path d="M0 0 C6.12415343 3.84282322 12.16865561 7.72368078 18 12 C17.34 12.66 16.68 13.32 16 14 C15.34 14 14.68 14 14 14 C13.67 13.01 13.34 12.02 13 11 C12.01 10.67 11.02 10.34 10 10 C10 9.34 10 8.68 10 8 C9.0925 7.71125 8.185 7.4225 7.25 7.125 C4.67797092 6.23468224 2.38653234 5.28505587 0 4 C0 2.68 0 1.36 0 0 Z " fill="#B4D0B3" transform="translate(522,656)"/>
<path d="M0 0 C0.66 0.33 1.32 0.66 2 1 C-0.64 9.25 -3.28 17.5 -6 26 C-8.16988075 17.32047701 -3.94803073 7.75577611 0 0 Z " fill="#B4CFB3" transform="translate(877,604)"/>
<path d="M0 0 C0.66 0.33 1.32 0.66 2 1 C-1.63 8.26 -5.26 15.52 -9 23 C-10.3498085 18.9505745 -8.81847612 16.67296155 -7.125 13 C-4.89438522 8.06825366 -4.89438522 8.06825366 -3 3 C-1.4375 1.3125 -1.4375 1.3125 0 0 Z " fill="#E8FBE7" transform="translate(948,375)"/>
<path d="M0 0 C4.25209792 4.12324647 8.13635705 8.51282966 12 13 C11.67 13.66 11.34 14.32 11 15 C7.04 11.04 3.08 7.08 -1 3 C-0.67 2.01 -0.34 1.02 0 0 Z " fill="#B6CFB8" transform="translate(668,255)"/>
<path d="M0 0 C0.66 0.66 1.32 1.32 2 2 C1.69797757 6.98337011 -0.91271038 11.54387938 -3 16 C-3.66 16 -4.32 16 -5 16 C-4.54548816 14.26982492 -4.08621143 12.54090123 -3.625 10.8125 C-3.36976563 9.84957031 -3.11453125 8.88664063 -2.8515625 7.89453125 C-2.05233704 5.17789793 -1.0968638 2.60862825 0 0 Z " fill="#B4D1B2" transform="translate(808,602)"/>
<path d="M0 0 C0.66 0.33 1.32 0.66 2 1 C1.57682406 5.51387673 -0.41300109 8.53488247 -2.84375 12.23046875 C-4.04630158 13.99687395 -4.04630158 13.99687395 -5 16 C-5.66 16 -6.32 16 -7 16 C-5.35433477 10.31497465 -2.70967216 5.23318364 0 0 Z " fill="#B7D2B6" transform="translate(859,490)"/>
<path d="M0 0 C0.33 0 0.66 0 1 0 C1.49542404 6.3166565 1.49542404 6.3166565 -0.8125 9.5 C-1.534375 10.325 -2.25625 11.15 -3 12 C-4.14893907 14.29307087 -5.06202458 16.60816267 -6 19 C-7.12642186 15.62073443 -6.96344705 15.27071722 -5.56640625 12.20703125 C-5.0878418 11.1387207 -5.0878418 11.1387207 -4.59960938 10.04882812 C-4.25736328 9.31083984 -3.91511719 8.57285156 -3.5625 7.8125 C-3.22412109 7.06291016 -2.88574219 6.31332031 -2.53710938 5.54101562 C-1.7000589 3.69007302 -0.85114596 1.84450334 0 0 Z " fill="#B2D0B1" transform="translate(323,280)"/>
<path d="M0 0 C4.03385783 4.32199053 6.37128749 9.35446276 8 15 C7.67 15.66 7.34 16.32 7 17 C6.34 17 5.68 17 5 17 C4.32968281 15.0429132 3.66385317 13.08428887 3 11.125 C2.62875 10.03445312 2.2575 8.94390625 1.875 7.8203125 C1 5 1 5 1 3 C0.34 2.67 -0.32 2.34 -1 2 C-0.67 1.34 -0.34 0.68 0 0 Z " fill="#E5F8E4" transform="translate(967,217)"/>
<path d="M0 0 C1.171875 1.671875 1.171875 1.671875 2 4 C0.953125 6.578125 0.953125 6.578125 -0.75 9.25 C-1.30171875 10.14203125 -1.8534375 11.0340625 -2.421875 11.953125 C-2.94265625 12.62859375 -3.4634375 13.3040625 -4 14 C-4.66 14 -5.32 14 -6 14 C-4.50829734 9.0276578 -2.39542583 4.58154261 0 0 Z " fill="#B3CFB0" transform="translate(888,433)"/>
<path d="M0 0 C0.66 0.99 1.32 1.98 2 3 C1.42578125 5.84765625 1.42578125 5.84765625 0.3125 9.0625 C-0.04199219 10.12597656 -0.39648438 11.18945312 -0.76171875 12.28515625 C-2 15 -2 15 -5 17 C-4.80664062 16.35933594 -4.61328125 15.71867188 -4.4140625 15.05859375 C-2.9059252 10.04889015 -1.42282214 5.03460143 0 0 Z " fill="#B7D2B5" transform="translate(797,633)"/>
<path d="M0 0 C0.99 0.33 1.98 0.66 3 1 C1.02 4.96 -0.96 8.92 -3 13 C-3.33 13 -3.66 13 -4 13 C-4.43287184 8.23840981 -3.02638167 5.21487387 -1 1 C-0.67 0.67 -0.34 0.34 0 0 Z " fill="#B7D3B5" transform="translate(940,456)"/>
<path d="M0 0 C0.66 0.33 1.32 0.66 2 1 C-1.465 8.425 -1.465 8.425 -5 16 C-6.24337885 12.26986346 -5.55180675 11.05797481 -4.1875 7.4375 C-3.83042969 6.46683594 -3.47335937 5.49617188 -3.10546875 4.49609375 C-2 2 -2 2 0 0 Z " fill="#B7D0B5" transform="translate(973,391)"/>
<path d="M0 0 C3.99996286 1.33332095 4.83782337 3.4957827 7 7 C3.37 6.34 -0.26 5.68 -4 5 C-3.01 4.34 -2.02 3.68 -1 3 C-0.67 2.01 -0.34 1.02 0 0 Z " fill="#B6CFB5" transform="translate(824,840)"/>
<path d="M0 0 C0.66 0.99 1.32 1.98 2 3 C1.505 3.94875 1.01 4.8975 0.5 5.875 C-1.14424369 8.72278166 -1.14424369 8.72278166 -1 11 C-2.65 11.66 -4.3 12.32 -6 13 C-4.02 8.71 -2.04 4.42 0 0 Z " fill="#B8D3B7" transform="translate(902,404)"/>
<path d="M0 0 C0.66 0.99 1.32 1.98 2 3 C1.071875 3.61875 1.071875 3.61875 0.125 4.25 C-2.09473022 5.83001439 -2.09473022 5.83001439 -3 8.0625 C-4.25346936 10.49109689 -5.51150574 11.0046023 -8 12 C-6.59023295 8.96147295 -4.91129772 6.4060405 -2.875 3.75 C-2.06675781 2.69039062 -2.06675781 2.69039062 -1.2421875 1.609375 C-0.83226562 1.07828125 -0.42234375 0.5471875 0 0 Z " fill="#B4D1B3" transform="translate(360,221)"/>
<path d="M0 0 C6.22987798 0.50512524 11.45474233 3.32604123 17 6 C12.94804637 7.35065121 11.00606462 6.40212262 7 5 C4.58570246 3.76706747 2.31542865 2.41760938 0 1 C0 0.67 0 0.34 0 0 Z " fill="#B7D1B6" transform="translate(543,166)"/>
<path d="M0 0 C3.18005028 3.88672813 6.10554447 7.89952133 9 12 C8.01 12.495 8.01 12.495 7 13 C3.971838 10.98122534 3.33058209 10.18591027 1.8125 7.0625 C1.46832031 6.37285156 1.12414062 5.68320312 0.76953125 4.97265625 C0 3 0 3 0 0 Z " fill="#B6D1B4" transform="translate(406,539)"/>
<path d="M0 0 C2.475 0.495 2.475 0.495 5 1 C5.33 1.99 5.66 2.98 6 4 C8.00016466 5.20882096 8.00016466 5.20882096 10 6 C9.67 6.99 9.34 7.98 9 9 C7.49704815 7.69088122 5.99770689 6.37761608 4.5 5.0625 C3.6646875 4.33160156 2.829375 3.60070312 1.96875 2.84765625 C1.3190625 2.23792969 0.669375 1.62820313 0 1 C0 0.67 0 0.34 0 0 Z " fill="#B6CFB4" transform="translate(454,650)"/>
<path d="M0 0 C0.99 0.33 1.98 0.66 3 1 C-0.66666667 4.66666667 -4.33333333 8.33333333 -8 12 C-7.41463247 8.33939179 -5.916761 6.45464836 -3.4375 3.75 C-2.79683594 3.04359375 -2.15617187 2.3371875 -1.49609375 1.609375 C-0.75552734 0.81273437 -0.75552734 0.81273437 0 0 Z " fill="#B7D0B4" transform="translate(388,241)"/>
<path d="M0 0 C-0.56589844 0.27714844 -1.13179688 0.55429688 -1.71484375 0.83984375 C-2.44832031 1.20207031 -3.18179687 1.56429687 -3.9375 1.9375 C-5.03384766 2.47697266 -5.03384766 2.47697266 -6.15234375 3.02734375 C-7.96249027 3.86371827 -7.96249027 3.86371827 -9 5 C-11.33297433 5.04092937 -13.66705225 5.04241723 -16 5 C-13.13879225 3.09252817 -10.64745007 1.99646294 -7.4375 0.8125 C-6.46683594 0.44769531 -5.49617188 0.08289063 -4.49609375 -0.29296875 C-2 -1 -2 -1 0 0 Z " fill="#B3D1B2" transform="translate(450,162)"/>
<path d="M0 0 C2.31 0.33 4.62 0.66 7 1 C7 1.66 7 2.32 7 3 C9.31 3.66 11.62 4.32 14 5 C14 5.66 14 6.32 14 7 C9.0276578 5.50829734 4.58154261 3.39542583 0 1 C0 0.67 0 0.34 0 0 Z " fill="#B7D2B6" transform="translate(698,804)"/>
<path d="M0 0 C2.475 0.99 2.475 0.99 5 2 C4.625 3.9375 4.625 3.9375 4 6 C3.01 6.495 3.01 6.495 2 7 C2 6.01 2 5.02 2 4 C0.35 3.67 -1.3 3.34 -3 3 C-2.01 2.01 -1.02 1.02 0 0 Z " fill="#A9D2A5" transform="translate(622,236)"/>
<path d="M0 0 C0.66 0.33 1.32 0.66 2 1 C-0.475 6.94 -0.475 6.94 -3 13 C-3.33 13 -3.66 13 -4 13 C-3.91266424 11.39482903 -3.80447776 9.79078338 -3.6875 8.1875 C-3.62949219 7.29417969 -3.57148438 6.40085937 -3.51171875 5.48046875 C-2.93686419 2.69396 -2.1793144 1.75864246 0 0 Z " fill="#B6D1B5" transform="translate(356,288)"/>
<path d="M0 0 C1 2 1 2 0.25 4.5625 C-1 7 -1 7 -4 8 C-4.33 8.66 -4.66 9.32 -5 10 C-5.99 9.67 -6.98 9.34 -8 9 C-5.36 6.03 -2.72 3.06 0 0 Z " fill="#F3FDF1" transform="translate(707,244)"/>
<path d="M0 0 C-2.74093665 1.8272911 -5.13825324 2.93698178 -8.1875 4.125 C-9.08855469 4.47820313 -9.98960937 4.83140625 -10.91796875 5.1953125 C-11.94857422 5.59363281 -11.94857422 5.59363281 -13 6 C-11.3515625 2.15625 -11.3515625 2.15625 -8.1875 0.75 C-5.30183036 0.07101891 -2.94417035 -0.17318649 0 0 Z " fill="#B4D1B3" transform="translate(845,831)"/>
<path d="M0 0 C3.55780196 0.60990891 6.6828589 1.5783681 10 3 C10 3.66 10 4.32 10 5 C3.375 4.25 3.375 4.25 0 2 C0 1.34 0 0.68 0 0 Z " fill="#B3D0B1" transform="translate(738,777)"/>
<path d="M0 0 C0.99 0.33 1.98 0.66 3 1 C2.01 2.485 2.01 2.485 1 4 C0.75944532 6.05709596 0.75944532 6.05709596 0.875 8.1875 C0.91625 9.445625 0.9575 10.70375 1 12 C0.01 12.495 0.01 12.495 -1 13 C-2.20577428 8.05632546 -1.6290678 4.79137588 0 0 Z " fill="#B2D1B0" transform="translate(788,664)"/>
<path d="M0 0 C3.84685385 1.24762828 6.02929405 2.3870391 8 6 C7.67 6.99 7.34 7.98 7 9 C5.83037314 7.69013727 4.66437056 6.3770374 3.5 5.0625 C2.8503125 4.33160156 2.200625 3.60070312 1.53125 2.84765625 C0 1 0 1 0 0 Z " fill="#B5D1B3" transform="translate(364,560)"/>
<path d="M0 0 C0.66 0.33 1.32 0.66 2 1 C0.02 4.96 -1.96 8.92 -4 13 C-5.06337251 8.74650995 -5.06328907 8.37494164 -3.125 4.8125 C-2.57199219 3.77029297 -2.57199219 3.77029297 -2.0078125 2.70703125 C-1 1 -1 1 0 0 Z " fill="#B7D3B8" transform="translate(933,472)"/>
<path d="M0 0 C0.99 0.33 1.98 0.66 3 1 C0.03 3.64 -2.94 6.28 -6 9 C-6.33 8.34 -6.66 7.68 -7 7 C-4.92414397 3.88621595 -3.07614963 2.10078511 0 0 Z " fill="#B6CFB4" transform="translate(406,224)"/>
<path d="M0 0 C7.75 0.75 7.75 0.75 10 3 C10 3.66 10 4.32 10 5 C6.08788267 3.84414715 3.1254959 2.64465038 0 0 Z " fill="#B6D2B4" transform="translate(615,762)"/>
<path d="M0 0 C4.04420651 1.77945087 7.46078487 4.39529673 11 7 C9.234375 7.67578125 9.234375 7.67578125 7 8 C5.078125 6.85546875 5.078125 6.85546875 3.25 5.1875 C2.63640625 4.64480469 2.0228125 4.10210938 1.390625 3.54296875 C0 2 0 2 0 0 Z " fill="#B5D1B5" transform="translate(489,632)"/>
<path d="M0 0 C0.33 0 0.66 0 1 0 C1.125 2.375 1.125 2.375 1 5 C0.34 5.66 -0.32 6.32 -1 7 C-1.64767793 9.57061311 -1.64767793 9.57061311 -2 12 C-2.99 11.67 -3.98 11.34 -5 11 C-3.35 7.37 -1.7 3.74 0 0 Z " fill="#B5D1B4" transform="translate(828,555)"/>
<path d="M0 0 C2.0625 1.75 2.0625 1.75 4 4 C3.75 6.25 3.75 6.25 3 8 C1.35 6.02 -0.3 4.04 -2 2 C-1.34 1.34 -0.68 0.68 0 0 Z " fill="#B8D3B6" transform="translate(396,593)"/>
<path d="M0 0 C0.99 0.33 1.98 0.66 3 1 C1.50163895 4.11198065 -0.19933758 7.0534615 -2 10 C-2.66 9.67 -3.32 9.34 -4 9 C-2.68 6.03 -1.36 3.06 0 0 Z " fill="#B3D1B0" transform="translate(850,508)"/>
<path d="M0 0 C0.99 0.495 0.99 0.495 2 1 C2 1.66 2 2.32 2 3 C2.66 3 3.32 3 4 3 C4 5.64 4 8.28 4 11 C1.55160412 7.32740617 0 4.45351799 0 0 Z " fill="#B3CFB1" transform="translate(314,470)"/>
<path d="M0 0 C3.51005335 1.6380249 6.45543849 3.03134491 9 6 C7.68 6.33 6.36 6.66 5 7 C4.34 6.01 3.68 5.02 3 4 C1.69481525 2.96352976 0.36538653 1.95577057 -1 1 C-0.67 0.67 -0.34 0.34 0 0 Z " fill="#B3D0B1" transform="translate(586,208)"/>
<path d="M0 0 C0.86625 0.495 0.86625 0.495 1.75 1 C4.19883862 2.27075898 4.19883862 2.27075898 8 2 C8.33 3.32 8.66 4.64 9 6 C2.42696629 4.1011236 2.42696629 4.1011236 0 1 C0 0.67 0 0.34 0 0 Z " fill="#B7D0B5" transform="translate(781,836)"/>
<path d="M0 0 C2.35981813 0.93578995 4.69631264 1.93347808 7 3 C6.67 3.66 6.34 4.32 6 5 C0.25 3.25 0.25 3.25 -2 1 C-1.34 0.67 -0.68 0.34 0 0 Z " fill="#B3D0B0" transform="translate(643,774)"/>
<path d="M0 0 C3.375 0.25 3.375 0.25 7 1 C8.4375 3.0625 8.4375 3.0625 9 5 C5.22454612 3.90931332 2.52956528 3.0916909 0 0 Z " fill="#B6D1B5" transform="translate(601,754)"/>
<path d="M0 0 C1.32 0 2.64 0 4 0 C4.33 2.31 4.66 4.62 5 7 C3.02 5.35 1.04 3.7 -1 2 C-0.67 1.34 -0.34 0.68 0 0 Z " fill="#B6D0B3" transform="translate(402,601)"/>
<path d="M0 0 C4 2 4 2 5.046875 3.9453125 C5.27890625 4.66460937 5.5109375 5.38390625 5.75 6.125 C5.99234375 6.84945313 6.2346875 7.57390625 6.484375 8.3203125 C6.73960937 9.15175781 6.73960937 9.15175781 7 10 C6.34 10 5.68 10 5 10 C3.35 6.7 1.7 3.4 0 0 Z " fill="#B6D2B3" transform="translate(328,504)"/>
<path d="M0 0 C0.99 0.66 1.98 1.32 3 2 C2.1875 3.9375 2.1875 3.9375 1 6 C0.01 6.33 -0.98 6.66 -2 7 C-1.34 4.69 -0.68 2.38 0 0 Z " fill="#B5D1B3" transform="translate(931,339)"/>
<path d="M0 0 C1.65 1.65 3.3 3.3 5 5 C3.1875 5.625 3.1875 5.625 1 6 C0.01 5.34 -0.98 4.68 -2 4 C-1.34 2.68 -0.68 1.36 0 0 Z " fill="#C3D4C2" transform="translate(680,269)"/>
<path d="M0 0 C-1.4562545 0.67119549 -2.91507867 1.33681807 -4.375 2 C-5.59316406 2.556875 -5.59316406 2.556875 -6.8359375 3.125 C-9 4 -9 4 -11 4 C-11 3.34 -11 2.68 -11 2 C-7.06425135 -0.62383243 -4.54354105 -1.51451368 0 0 Z " fill="#B4CEB1" transform="translate(446,203)"/>
<path d="M0 0 C3.96 1.98 3.96 1.98 8 4 C8 4.66 8 5.32 8 6 C5.125 5.25 5.125 5.25 2 4 C1.34 2.68 0.68 1.36 0 0 Z " fill="#B5D2B3" transform="translate(563,194)"/>
<path d="M0 0 C0.66 0 1.32 0 2 0 C2 0.66 2 1.32 2 2 C4.475 2.99 4.475 2.99 7 4 C7 4.99 7 5.98 7 7 C4.13302508 5.71480435 2.02392288 4.42870746 0 2 C0 1.34 0 0.68 0 0 Z " fill="#B4D3B3" transform="translate(498,685)"/>
<path d="M0 0 C1.98 1.65 3.96 3.3 6 5 C5.01 5.33 4.02 5.66 3 6 C1.68 4.68 0.36 3.36 -1 2 C-0.67 1.34 -0.34 0.68 0 0 Z " fill="#B2D0B0" transform="translate(473,618)"/>
<path d="M0 0 C2.31 1.98 4.62 3.96 7 6 C3.86248779 6 2.60242414 5.64820195 0 4 C-0.33 3.01 -0.66 2.02 -1 1 C-0.67 0.67 -0.34 0.34 0 0 Z " fill="#B6D4B5" transform="translate(458,603)"/>
<path d="M0 0 C0.66 0 1.32 0 2 0 C0.84414715 3.91211733 -0.35534962 6.8745041 -3 10 C-4 7 -4 7 -3.22265625 5.17578125 C-2.1484375 3.45052083 -1.07421875 1.72526042 0 0 Z " fill="#B5D1B5" transform="translate(954,429)"/>
<path d="M0 0 C0.66 0.66 1.32 1.32 2 2 C1.68440793 6.10269692 1.04095366 6.95904634 -2 10 C-1.34 6.7 -0.68 3.4 0 0 Z " fill="#B4D1B3" transform="translate(948,288)"/>
<path d="M0 0 C1.41569064 -0.08167446 2.83276805 -0.13949698 4.25 -0.1875 C5.43335938 -0.23970703 5.43335938 -0.23970703 6.640625 -0.29296875 C9.51712968 0.06421312 10.84576769 1.11751718 13 3 C11.39504433 2.88557539 9.79101881 2.75805306 8.1875 2.625 C7.29417969 2.55539063 6.40085937 2.48578125 5.48046875 2.4140625 C3 2 3 2 0 0 Z " fill="#B5D1B4" transform="translate(513,172)"/>
<path d="M0 0 C2.69504819 2.69504819 5 6.08360477 5 10 C4.34 10 3.68 10 3 10 C0.4606772 6.58168085 -0.3636198 4.24223102 0 0 Z " fill="#B7D3B5" transform="translate(368,473)"/>
<path d="M0 0 C0.66 0.33 1.32 0.66 2 1 C1.1875 4.4375 1.1875 4.4375 0 8 C-0.99 8.33 -1.98 8.66 -3 9 C-2.01 6.03 -1.02 3.06 0 0 Z " fill="#B4D3B5" transform="translate(916,373)"/>
<path d="M0 0 C2.97 0.495 2.97 0.495 6 1 C5.67 1.99 5.34 2.98 5 4 C3.0625 3.6875 3.0625 3.6875 1 3 C0.67 2.01 0.34 1.02 0 0 Z " fill="#AAD2A7" transform="translate(647,238)"/>
</svg>
