<?xml version="1.0" encoding="UTF-8"?>
<svg version="1.1" xmlns="http://www.w3.org/2000/svg" width="1280" height="990">
<path d="M0 0 C23.25318844 20.32448641 34.99488999 48.3549089 37.38671875 78.8125 C39.7201907 125.81592838 24.72178824 172.63518978 4.46484375 214.57080078 C3.18703264 217.22769879 1.92780366 219.89312572 0.66796875 222.55859375 C-4.54800109 233.55622347 -9.87968594 244.46869836 -15.60839844 255.20947266 C-29.1089779 280.54566651 -41.58322977 306.57424313 -53.36328125 332.75 C-53.78036346 333.67632736 -53.78036346 333.67632736 -54.20587158 334.62136841 C-61.84794111 351.53673092 -61.84794111 351.53673092 -68.61328125 368.8125 C-69.27328125 368.8125 -69.93328125 368.8125 -70.61328125 368.8125 C-70.71640625 369.823125 -70.81953125 370.83375 -70.92578125 371.875 C-71.51055426 375.22415451 -72.38872801 377.73100638 -73.75073242 380.80297852 C-75.36238135 384.55771452 -76.71681364 388.4112386 -78.11328125 392.25 C-78.70680942 393.87377902 -79.3005573 395.49747774 -79.89453125 397.12109375 C-80.32668945 398.30505737 -80.32668945 398.30505737 -80.76757812 399.51293945 C-81.55792218 401.66197256 -82.36427093 403.80420166 -83.17578125 405.9453125 C-84.58180049 409.68366406 -85.86102388 413.45710509 -87.11328125 417.25 C-87.54943887 418.56902374 -87.98563657 419.88803423 -88.421875 421.20703125 C-88.81503906 422.39683594 -89.20820312 423.58664062 -89.61328125 424.8125 C-90.13362013 426.35433363 -90.65436044 427.89603193 -91.17578125 429.4375 C-93.44822319 436.25482582 -95.56104632 443.12967776 -97.53515625 450.0390625 C-98.36562793 452.94571337 -99.222382 455.84000323 -100.09375 458.734375 C-110.94956212 495.42989778 -117.85238069 534.19601931 -117.80078125 572.5 C-117.80087189 573.54308319 -117.80087189 573.54308319 -117.80096436 574.60723877 C-117.77793343 593.29496322 -115.81223045 610.78938388 -110.55078125 628.75 C-110.14762695 630.14702148 -110.14762695 630.14702148 -109.73632812 631.57226562 C-108.74246029 635.00495129 -107.74348121 638.42190011 -106.61328125 641.8125 C-107.41995239 642.12888428 -107.41995239 642.12888428 -108.24291992 642.45166016 C-118.05149765 646.30895425 -127.78344997 650.19294144 -137.27734375 654.78125 C-139.61328125 655.8125 -139.61328125 655.8125 -141.61328125 655.8125 C-140.95328125 657.4625 -140.29328125 659.1125 -139.61328125 660.8125 C-142.61328125 662.8125 -142.61328125 662.8125 -145.10595703 662.52050781 C-146.08032715 662.27139648 -147.05469727 662.02228516 -148.05859375 661.765625 C-149.13625 661.4975 -150.21390625 661.229375 -151.32421875 660.953125 C-152.45085938 660.65921875 -153.5775 660.3653125 -154.73828125 660.0625 C-156.94907448 659.50463629 -159.16000971 658.94733499 -161.37109375 658.390625 C-162.43102539 658.12056641 -163.49095703 657.85050781 -164.58300781 657.57226562 C-171.52216011 655.62437799 -171.52216011 655.62437799 -178.61328125 654.8125 C-178.28328125 655.8025 -177.95328125 656.7925 -177.61328125 657.8125 C-179.59328125 657.4825 -181.57328125 657.1525 -183.61328125 656.8125 C-183.61328125 656.1525 -183.61328125 655.4925 -183.61328125 654.8125 C-184.47663086 654.69173096 -185.33998047 654.57096191 -186.22949219 654.4465332 C-189.59933969 653.81511228 -192.54675244 652.86977857 -195.75390625 651.66796875 C-196.90761719 651.23806641 -198.06132813 650.80816406 -199.25 650.36523438 C-200.44238281 649.91470703 -201.63476562 649.46417969 -202.86328125 649 C-204.04019531 648.56107422 -205.21710938 648.12214844 -206.4296875 647.66992188 C-211.65209615 645.71514934 -216.85616535 643.72921504 -222.0234375 641.6328125 C-225.89989727 640.06763764 -229.80678644 638.74107183 -233.80078125 637.5 C-240.83151435 635.21143724 -247.45411393 632.28331676 -254.09277344 629.03808594 C-257.16747858 627.54302397 -260.25364916 626.07275921 -263.33984375 624.6015625 C-275.83057766 618.63575051 -288.22906352 612.54918872 -300.44140625 606.02734375 C-304.32279277 603.95590718 -308.23687409 601.95952869 -312.17578125 600 C-313.11780396 599.53086182 -313.11780396 599.53086182 -314.07885742 599.05224609 C-317.21186715 597.49511463 -320.34763301 595.94363023 -323.48486328 594.39501953 C-346.4096619 583.07020475 -368.68496682 570.96003001 -390.61328125 557.8125 C-392.46212035 556.7081337 -394.31107819 555.60396615 -396.16015625 554.5 C-405.11425491 549.14590323 -405.11425491 549.14590323 -408.43261719 547.1328125 C-409.93566786 546.22277018 -411.44452407 545.322271 -412.95800781 544.4296875 C-413.69245117 543.98882813 -414.42689453 543.54796875 -415.18359375 543.09375 C-415.84375488 542.70251953 -416.50391602 542.31128906 -417.18408203 541.90820312 C-417.65571777 541.54662109 -418.12735352 541.18503906 -418.61328125 540.8125 C-418.61328125 540.1525 -418.61328125 539.4925 -418.61328125 538.8125 C-419.39638672 538.69841797 -419.39638672 538.69841797 -420.1953125 538.58203125 C-423.62001543 537.49210156 -426.362931 535.51385517 -429.30078125 533.5 C-429.94418457 533.06357178 -430.58758789 532.62714355 -431.25048828 532.17749023 C-433.37636834 530.72960043 -435.49472734 529.27108432 -437.61328125 527.8125 C-438.38720215 527.28495117 -439.16112305 526.75740234 -439.95849609 526.21386719 C-442.30827255 524.61015077 -444.64944263 522.99461654 -446.98828125 521.375 C-448.1033606 520.61352661 -448.1033606 520.61352661 -449.2409668 519.83666992 C-449.92843994 519.35560791 -450.61591309 518.8745459 -451.32421875 518.37890625 C-452.24146729 517.74384155 -452.24146729 517.74384155 -453.17724609 517.09594727 C-454.61328125 515.8125 -454.61328125 515.8125 -455.61328125 512.8125 C-457.49922533 512.23473935 -457.49922533 512.23473935 -459.61328125 511.8125 C-461.32983398 510.77197266 -461.32983398 510.77197266 -463.046875 509.4765625 C-464.01089233 508.75364014 -464.01089233 508.75364014 -464.99438477 508.01611328 C-465.67299561 507.4951709 -466.35160645 506.97422852 -467.05078125 506.4375 C-467.75581787 505.90237793 -468.46085449 505.36725586 -469.18725586 504.81591797 C-475.86043732 499.70790225 -482.26532272 494.3158422 -488.61328125 488.8125 C-490.00857072 487.62436102 -491.40429197 486.43672854 -492.80078125 485.25 C-494.44972266 483.82091744 -496.07034821 482.35543304 -497.61328125 480.8125 C-498.66515625 480.049375 -499.71703125 479.28625 -500.80078125 478.5 C-505.72453816 474.8474676 -510.28902142 470.80643115 -514.89990234 466.77319336 C-518.68799532 463.46508879 -522.51363527 460.22444753 -526.42578125 457.0625 C-537.34126619 448.19571719 -537.34126619 448.19571719 -541.61328125 443.8125 C-541.61328125 443.1525 -541.61328125 442.4925 -541.61328125 441.8125 C-542.20625 441.54824219 -542.79921875 441.28398438 -543.41015625 441.01171875 C-545.69357179 439.76879575 -547.08754848 438.50848354 -548.86328125 436.625 C-551.24216546 434.11068426 -553.73683056 431.83108157 -556.36328125 429.58203125 C-560.64521149 425.86224008 -564.51357209 421.84742288 -568.36328125 417.6875 C-569.05212402 416.94830322 -569.7409668 416.20910645 -570.45068359 415.44750977 C-571.84545966 413.9495067 -573.23855385 412.44993572 -574.62988281 410.94873047 C-576.44748868 408.99106782 -578.27432695 407.04264868 -580.10546875 405.09765625 C-584.74467303 400.15190284 -589.24992525 395.22579668 -593.1953125 389.6953125 C-594.85978853 387.4851818 -596.68362922 385.47891955 -598.55078125 383.4375 C-601.98497147 379.63186985 -604.93817961 375.66385069 -607.8203125 371.4296875 C-609.75976567 368.59867743 -611.77197261 365.83007999 -613.80078125 363.0625 C-615.07300052 361.31350729 -616.34399357 359.5636214 -617.61328125 357.8125 C-618.07347656 357.17828125 -618.53367187 356.5440625 -619.0078125 355.890625 C-620.85001278 353.26077019 -621.61328125 352.11170944 -621.61328125 348.8125 C-622.27328125 348.8125 -622.93328125 348.8125 -623.61328125 348.8125 C-624.83081055 347.19873047 -624.83081055 347.19873047 -626.1875 344.9296875 C-626.68677002 344.09912842 -627.18604004 343.26856934 -627.70043945 342.4128418 C-628.49260864 341.06379761 -628.49260864 341.06379761 -629.30078125 339.6875 C-630.11325317 338.31621948 -630.11325317 338.31621948 -630.94213867 336.91723633 C-635.18138219 329.69498585 -639.03239892 322.38503919 -642.61328125 314.8125 C-643.16113281 313.719375 -643.70898438 312.62625 -644.2734375 311.5 C-672.9213678 253.02950901 -676.04181792 186.91467693 -656.19140625 125.23046875 C-654.32435986 119.81584955 -652.13312171 114.53305949 -649.92578125 109.25 C-649.48878906 108.20166992 -649.05179688 107.15333984 -648.6015625 106.07324219 C-644.96655082 97.45329807 -640.94748882 89.09848506 -636.61328125 80.8125 C-636.25234375 80.05453125 -635.89140625 79.2965625 -635.51953125 78.515625 C-634.61328125 76.8125 -634.61328125 76.8125 -632.61328125 74.8125 C-631.71025476 73.18187573 -630.83990511 71.53304981 -629.98828125 69.875 C-627.24939527 64.77615158 -624.13957504 60.17912909 -620.66796875 55.5546875 C-619.33045778 53.76964434 -618.02128327 51.9628962 -616.74609375 50.1328125 C-611.70880437 42.92175509 -605.9717907 36.62750444 -599.93164062 30.26660156 C-598.67642152 28.88214138 -597.52372493 27.40674377 -596.37890625 25.9296875 C-595.79625 25.23101562 -595.21359375 24.53234375 -594.61328125 23.8125 C-593.95328125 23.8125 -593.29328125 23.8125 -592.61328125 23.8125 C-592.28328125 22.8225 -591.95328125 21.8325 -591.61328125 20.8125 C-582.41541037 11.05798564 -570.08940943 2.59454122 -558.61328125 -4.1875 C-558.0497998 -4.52990723 -557.48631836 -4.87231445 -556.90576172 -5.22509766 C-541.26806797 -14.69628433 -524.57224956 -21.62941452 -506.61328125 -25.1875 C-505.51113281 -25.41179687 -504.40898437 -25.63609375 -503.2734375 -25.8671875 C-484.54481388 -28.99935136 -464.08407402 -28.67709824 -445.61328125 -24.1875 C-444.80407227 -23.99414062 -443.99486328 -23.80078125 -443.16113281 -23.6015625 C-410.82680763 -15.64385543 -381.03993322 0.82758699 -354.61328125 20.8125 C-353.60136719 21.56917969 -352.58945312 22.32585937 -351.546875 23.10546875 C-343.83892428 28.91566401 -336.47059927 35.07451319 -329.20410156 41.42578125 C-327.72016459 42.71932975 -326.2257037 44.00077779 -324.73046875 45.28125 C-323.90804688 45.9928125 -323.085625 46.704375 -322.23828125 47.4375 C-321.52929688 48.04851562 -320.8203125 48.65953125 -320.08984375 49.2890625 C-318.61328125 50.8125 -318.61328125 50.8125 -318.61328125 52.8125 C-318.01515625 53.080625 -317.41703125 53.34875 -316.80078125 53.625 C-314.61480271 54.81167406 -313.19995531 55.90849113 -311.61328125 57.8125 C-311.61328125 58.4725 -311.61328125 59.1325 -311.61328125 59.8125 C-310.62328125 60.1425 -309.63328125 60.4725 -308.61328125 60.8125 C-306.9296875 62.51953125 -306.9296875 62.51953125 -305.17578125 64.625 C-303.23360791 66.92515868 -301.33498965 69.08365592 -299.17578125 71.1875 C-297.61328125 72.8125 -297.61328125 72.8125 -297.61328125 74.8125 C-296.95328125 74.8125 -296.29328125 74.8125 -295.61328125 74.8125 C-292.61328125 78.27403846 -292.61328125 78.27403846 -292.61328125 80.8125 C-291.95328125 81.1425 -291.29328125 81.4725 -290.61328125 81.8125 C-293.61328125 81.8125 -293.61328125 81.8125 -295.06445312 80.67016602 C-295.8156543 79.87630493 -295.8156543 79.87630493 -296.58203125 79.06640625 C-297.14736572 78.48093018 -297.7127002 77.8954541 -298.29516602 77.29223633 C-298.89514404 76.65954834 -299.49512207 76.02686035 -300.11328125 75.375 C-305.12498119 70.22507299 -310.21438503 65.46226475 -315.86328125 61.00390625 C-318.32829531 59.03959817 -320.71408262 57.00605559 -323.09057617 54.9362793 C-351.88244898 29.98450534 -386.42463393 9.76339281 -422.61328125 -2.1875 C-423.56589844 -2.51878906 -424.51851562 -2.85007813 -425.5 -3.19140625 C-448.35826566 -10.50490404 -471.9588466 -12.25384288 -495.61328125 -8.375 C-497.12619751 -8.1272583 -497.12619751 -8.1272583 -498.66967773 -7.87451172 C-503.81518798 -6.94752631 -508.09829515 -5.84920633 -512.61328125 -3.1875 C-510.82664062 -3.51234375 -510.82664062 -3.51234375 -509.00390625 -3.84375 C-470.40330373 -10.37204931 -430.68394204 -5.01310003 -396.61328125 14.8125 C-395.50984375 15.42738281 -394.40640625 16.04226562 -393.26953125 16.67578125 C-392.16609375 17.29839844 -391.06265625 17.92101562 -389.92578125 18.5625 C-388.91128906 19.13484375 -387.89679688 19.7071875 -386.8515625 20.296875 C-386.11292969 20.79703125 -385.37429688 21.2971875 -384.61328125 21.8125 C-384.61328125 22.4725 -384.61328125 23.1325 -384.61328125 23.8125 C-383.99453125 23.956875 -383.37578125 24.10125 -382.73828125 24.25 C-380.61328125 24.8125 -380.61328125 24.8125 -378.61328125 25.8125 C-378.61328125 26.4725 -378.61328125 27.1325 -378.61328125 27.8125 C-377.99453125 27.93625 -377.37578125 28.06 -376.73828125 28.1875 C-374.61328125 28.8125 -374.61328125 28.8125 -372.61328125 30.8125 C-370.90012474 31.78322013 -369.18644604 32.75305093 -367.46826172 33.71484375 C-364.68984028 35.35893204 -362.20891025 37.31528922 -359.67578125 39.3125 C-358.54242835 40.19889143 -357.40827641 41.08426189 -356.2734375 41.96875 C-355.68062988 42.43152344 -355.08782227 42.89429688 -354.47705078 43.37109375 C-351.21876281 45.89099579 -347.91457562 48.34937857 -344.61328125 50.8125 C-340.25119122 54.06721847 -335.91347936 57.34484575 -331.63037109 60.70288086 C-318.40309779 71.04141581 -304.21349692 79.56215929 -289.61328125 87.8125 C-289.94328125 88.4725 -290.27328125 89.1325 -290.61328125 89.8125 C-293.05379434 88.77750198 -295.49048588 87.73465501 -297.92578125 86.6875 C-298.59673828 86.40390625 -299.26769531 86.1203125 -299.95898438 85.828125 C-310.18234255 81.41240222 -319.68662918 75.66790748 -329.17578125 69.875 C-330.13935547 69.29298828 -331.10292969 68.71097656 -332.09570312 68.11132812 C-337.75710061 64.66409823 -343.24393225 61.05359024 -348.63256836 57.19311523 C-350.55909969 55.77935183 -350.55909969 55.77935183 -352.61328125 54.8125 C-352.61328125 54.1525 -352.61328125 53.4925 -352.61328125 52.8125 C-353.18353027 52.70091553 -353.7537793 52.58933105 -354.34130859 52.47436523 C-356.89458086 51.73055252 -358.72527254 50.65420723 -360.96484375 49.22265625 C-361.80764893 48.69019287 -362.6504541 48.15772949 -363.51879883 47.60913086 C-364.41622803 47.03686768 -365.31365723 46.46460449 -366.23828125 45.875 C-373.20983748 41.49227351 -380.21730512 37.23266391 -387.42578125 33.25 C-388.13492676 32.85756104 -388.84407227 32.46512207 -389.57470703 32.06079102 C-423.83413246 13.29735481 -464.01454788 4.3894237 -502.61328125 13.8125 C-503.62841797 14.04598145 -503.62841797 14.04598145 -504.6640625 14.28417969 C-521.0973065 18.16038272 -537.10589702 25.36821176 -550.44018555 35.7644043 C-554.35267576 38.8125 -554.35267576 38.8125 -557.61328125 38.8125 C-557.86078125 39.410625 -558.10828125 40.00875 -558.36328125 40.625 C-559.7940065 43.12876919 -561.18243945 44.29322388 -563.61328125 45.8125 C-564.27328125 45.8125 -564.93328125 45.8125 -565.61328125 45.8125 C-565.85433594 46.39257812 -566.09539062 46.97265625 -566.34375 47.5703125 C-567.85340562 50.23659659 -569.5801103 51.72423255 -571.92578125 53.6875 C-574.72372222 56.0895908 -577.26135448 58.41987097 -579.55078125 61.3125 C-580.23140625 62.1375 -580.91203125 62.9625 -581.61328125 63.8125 C-582.27328125 63.8125 -582.93328125 63.8125 -583.61328125 63.8125 C-583.86078125 64.369375 -584.10828125 64.92625 -584.36328125 65.5 C-586.28023056 69.04635622 -588.77066928 71.96988803 -591.61328125 74.8125 C-596.11195694 81.05235183 -599.95210728 87.68867487 -603.73828125 94.375 C-604.25003906 95.26896484 -604.76179688 96.16292969 -605.2890625 97.08398438 C-606.74950952 99.65009116 -608.18806294 102.22668384 -609.61328125 104.8125 C-609.98090576 105.47258057 -610.34853027 106.13266113 -610.72729492 106.81274414 C-634.06242284 150.77491648 -627.18526014 207.04573015 -613.26171875 252.5 C-612.98593994 253.38429688 -612.71016113 254.26859375 -612.42602539 255.1796875 C-611.61093495 257.82010063 -610.84046331 260.47118557 -610.0703125 263.125 C-608.95466496 266.84773969 -607.62435139 270.30828653 -605.92578125 273.8125 C-604.18360141 277.46724401 -602.46561047 281.11600344 -600.8671875 284.8359375 C-591.71372079 306.10100346 -580.68887406 326.39324545 -567.828125 345.640625 C-566.61328125 347.8125 -566.61328125 347.8125 -566.61328125 350.8125 C-565.62328125 351.1425 -564.63328125 351.4725 -563.61328125 351.8125 C-562.26489258 353.53393555 -562.26489258 353.53393555 -560.8828125 355.76171875 C-558.69747156 359.17382295 -556.43506862 362.46783877 -554 365.70703125 C-553.39220703 366.51720703 -552.78441406 367.32738281 -552.15820312 368.16210938 C-550.90344919 369.82587878 -549.64555332 371.48728262 -548.38476562 373.14648438 C-547.78341797 373.95021484 -547.18207031 374.75394531 -546.5625 375.58203125 C-546.01940186 376.29979736 -545.47630371 377.01756348 -544.91674805 377.75708008 C-543.61078421 379.81643756 -543.17252864 381.46933632 -542.61328125 383.8125 C-541.29102541 384.50087614 -539.95555119 385.16401435 -538.61328125 385.8125 C-536.5703125 388.0625 -536.5703125 388.0625 -534.42578125 390.8125 C-530.67559312 395.52332745 -526.78269153 400.03203709 -522.7265625 404.48046875 C-520.83951588 406.56284736 -519.00269892 408.67753064 -517.17578125 410.8125 C-512.21974886 416.50962135 -506.80134175 421.80305749 -501.3125 426.984375 C-499.61328125 428.8125 -499.61328125 428.8125 -499.61328125 430.8125 C-498.74509766 431.18375 -498.74509766 431.18375 -497.859375 431.5625 C-495.27263721 433.00207582 -493.69097974 434.64645172 -491.67578125 436.8125 C-486.67336408 441.92083154 -481.16860929 446.19376691 -475.44482422 450.44726562 C-473.51455271 451.88609238 -471.59638193 453.34001849 -469.6796875 454.796875 C-462.22368854 460.44791696 -454.69429149 465.90202477 -446.89453125 471.0703125 C-446.14171875 471.64523437 -445.38890625 472.22015625 -444.61328125 472.8125 C-444.61328125 473.4725 -444.61328125 474.1325 -444.61328125 474.8125 C-443.90010742 475.07063477 -443.18693359 475.32876953 -442.45214844 475.59472656 C-439.42791945 476.89201364 -436.91885399 478.45792125 -434.19140625 480.296875 C-432.65226562 481.32941406 -432.65226562 481.32941406 -431.08203125 482.3828125 C-430.01984375 483.10210938 -428.95765625 483.82140625 -427.86328125 484.5625 C-426.8165625 485.26632812 -425.76984375 485.97015625 -424.69140625 486.6953125 C-422.63367768 488.07913496 -420.57827257 489.46641966 -418.52539062 490.85742188 C-416.64272485 492.1213712 -414.74877061 493.36873553 -412.84179688 494.59570312 C-412.01873047 495.12615234 -411.19566406 495.65660156 -410.34765625 496.203125 C-409.62288086 496.66235352 -408.89810547 497.12158203 -408.15136719 497.59472656 C-407.39001465 498.19752441 -407.39001465 498.19752441 -406.61328125 498.8125 C-406.61328125 499.4725 -406.61328125 500.1325 -406.61328125 500.8125 C-405.91332031 500.895 -405.21335937 500.9775 -404.4921875 501.0625 C-400.96881748 501.98039287 -398.470363 503.73284348 -395.55078125 505.8125 C-367.55250839 525.07502401 -337.36557884 541.45811054 -307.61328125 557.8125 C-306.63536621 558.35293945 -305.65745117 558.89337891 -304.64990234 559.45019531 C-299.45331501 562.30934393 -294.24289912 565.06423183 -288.86328125 567.5625 C-288.14688477 567.89628662 -287.43048828 568.23007324 -286.69238281 568.57397461 C-255.00685108 583.22836471 -222.49153245 596.10228569 -189.61328125 607.8125 C-189.75403076 607.04188232 -189.89478027 606.27126465 -190.03979492 605.47729492 C-191.81539483 594.66953368 -191.97034816 584.05414077 -191.92578125 573.125 C-191.9236261 572.17508179 -191.92147095 571.22516357 -191.91925049 570.24645996 C-191.79049706 534.79238015 -185.43714365 500.82180409 -175.61328125 466.8125 C-175.36658691 465.94834473 -175.11989258 465.08418945 -174.86572266 464.19384766 C-171.50807541 452.44325059 -167.7295403 440.93671205 -163.42578125 429.5 C-163.03285889 428.45545654 -162.63993652 427.41091309 -162.23510742 426.3347168 C-157.20252673 413.01389315 -152.15372085 399.69901268 -146.03515625 386.83203125 C-144.16201417 382.85417733 -142.38838643 378.83486647 -140.61328125 374.8125 C-130.97538255 352.99070333 -120.84814805 331.51189401 -109.58642578 310.47314453 C-107.45571786 306.47222276 -105.52058195 302.45702894 -103.75390625 298.28125 C-102.10494902 294.71227408 -100.2240429 291.27471467 -98.36328125 287.8125 C-94.93866675 281.42940103 -91.71919441 274.98699485 -88.70410156 268.40039062 C-86.20315838 262.96355762 -83.52916062 257.61700698 -80.84553528 252.26879883 C-76.92607622 244.453759 -73.06740848 236.60966181 -69.23828125 228.75 C-68.86954895 227.9933606 -68.50081665 227.23672119 -68.12091064 226.45715332 C-62.29806926 214.48694864 -56.83073032 202.40734259 -51.62597656 190.15478516 C-50.11140231 186.65169321 -48.49737993 183.19861123 -46.86328125 179.75 C-44.08557835 173.87434139 -41.48859147 167.95036779 -38.95703125 161.96484375 C-37.81701512 159.29044545 -36.63522921 156.6433768 -35.42578125 154 C-33.87434194 150.53469499 -32.6435044 147.04036354 -31.49853516 143.42260742 C-30.51785127 140.53113156 -29.38623646 137.72295139 -28.24609375 134.890625 C-25.57607701 127.97839399 -23.6687904 121.00687947 -21.92578125 113.8125 C-21.63123047 112.64460937 -21.33667969 111.47671875 -21.03320312 110.2734375 C-18.16294042 98.63758601 -16.24048758 87.31635556 -16.36328125 75.3125 C-16.37669556 73.8128772 -16.37669556 73.8128772 -16.39038086 72.28295898 C-16.74086456 49.92645692 -24.35421564 32.31545975 -39.86328125 16.0625 C-50.08798732 6.29159503 -61.77135667 -0.51985087 -74.61328125 -6.1875 C-75.33854004 -6.52620117 -76.06379883 -6.86490234 -76.81103516 -7.21386719 C-100.09559881 -17.81194176 -128.64674962 -14.67376786 -153.05712891 -9.70458984 C-155.40816756 -9.22899291 -157.76124835 -8.80134115 -160.125 -8.39453125 C-167.38384986 -7.087216 -173.89226499 -5.2058473 -180.61328125 -2.1875 C-183.09821546 -1.16986028 -185.58492437 -0.19764645 -188.11328125 0.70703125 C-193.47755079 2.67672397 -196.71852935 4.52827291 -200.61328125 8.8125 C-202.13663609 10.08475239 -203.68085946 11.33218561 -205.23828125 12.5625 C-214.99786383 20.27804021 -224.55459626 28.21059078 -233.93945312 36.37646484 C-235.47023032 37.68977165 -237.03253029 38.96610426 -238.59765625 40.23828125 C-246.06326047 46.5123413 -250.71692152 53.60589697 -255.53369141 61.95605469 C-257.00428657 64.48486644 -258.5649856 66.95572829 -260.11328125 69.4375 C-262.12054368 72.79427784 -263.6109271 76.00355424 -264.61328125 79.8125 C-265.27328125 79.1525 -265.93328125 78.4925 -266.61328125 77.8125 C-264.63328125 73.1925 -262.65328125 68.5725 -260.61328125 63.8125 C-260.94328125 63.4825 -261.27328125 63.1525 -261.61328125 62.8125 C-264.60652388 63.9100223 -265.45939026 64.48932892 -266.86328125 67.4375 C-267.23453125 68.613125 -267.23453125 68.613125 -267.61328125 69.8125 C-268.27328125 69.4825 -268.93328125 69.1525 -269.61328125 68.8125 C-268.21699207 64.74059909 -266.30760523 61.91665756 -263.55078125 58.625 C-262.74769531 57.66335937 -261.94460938 56.70171875 -261.1171875 55.7109375 C-258.78562873 53.01200364 -256.40224854 50.37513767 -253.98828125 47.75 C-250.39680803 43.80996092 -247.34327348 39.70835244 -244.34375 35.30859375 C-238.377304 26.70236578 -231.45940963 18.76041839 -223.61328125 11.8125 C-222.95328125 11.8125 -222.29328125 11.8125 -221.61328125 11.8125 C-221.28328125 10.8225 -220.95328125 9.8325 -220.61328125 8.8125 C-219.11376953 7.49731445 -219.11376953 7.49731445 -217.18359375 6.17578125 C-216.475979 5.68489014 -215.76836426 5.19399902 -215.03930664 4.68823242 C-214.27996826 4.17236572 -213.52062988 3.65649902 -212.73828125 3.125 C-211.17664981 2.04489736 -209.61545179 0.9641678 -208.0546875 -0.1171875 C-207.29172363 -0.64280273 -206.52875977 -1.16841797 -205.74267578 -1.70996094 C-203.02218169 -3.59765072 -200.34531624 -5.54106065 -197.67578125 -7.5 C-196.82113281 -8.12132812 -195.96648437 -8.74265625 -195.0859375 -9.3828125 C-193.42076061 -10.59815487 -191.76198921 -11.82231684 -190.109375 -13.0546875 C-141.43733215 -48.54947931 -44.83442742 -37.52956555 0 0 Z M-1.61328125 31.8125 C-0.61328125 33.8125 -0.61328125 33.8125 -0.61328125 33.8125 Z M-0.61328125 33.8125 C0.38671875 35.8125 0.38671875 35.8125 0.38671875 35.8125 Z M0.38671875 35.8125 C0.71671875 38.4525 1.04671875 41.0925 1.38671875 43.8125 C2.04671875 43.8125 2.70671875 43.8125 3.38671875 43.8125 C4.10174399 47.47129938 4.75516464 51.13839127 5.38671875 54.8125 C5.5775 55.91207031 5.76828125 57.01164062 5.96484375 58.14453125 C13.10047878 104.37325245 -4.04630655 149.55349823 -21.31030273 191.62524414 C-22.81952695 195.31700394 -24.29595792 199.02107797 -25.76123047 202.73046875 C-26.5943025 204.76612441 -27.50436499 206.75316746 -28.42578125 208.75 C-29.97694051 211.7845455 -29.97694051 211.7845455 -28.61328125 214.8125 C-26.85071627 211.31247779 -25.091021 207.81102799 -23.33374023 204.30834961 C-22.44854445 202.54533665 -21.56121422 200.78339589 -20.67382812 199.02148438 C1.11573822 155.56545658 24.06132914 99.2791792 7.95703125 50.32421875 C5.47019499 42.26246957 5.47019499 42.26246957 0.38671875 35.8125 Z " fill="#FFFFFF" transform="translate(967.61328125,183.1875)"/>
<path d="M0 0 C0.99 0.33 1.98 0.66 3 1 C1.625 3.5 1.625 3.5 0 6 C-0.66 6 -1.32 6 -2 6 C-2.33 6.66 -2.66 7.32 -3 8 C-2.45276317 4.62537285 -1.9451 2.91765 0 0 Z " fill="#FFFFFF" transform="translate(696,252)"/>
<path d="M0 0 C0.66 0 1.32 0 2 0 C0.92598892 2.91517292 0.22189824 4.77810176 -2 7 C-1.125 2.25 -1.125 2.25 0 0 Z " fill="#FFFFFF" transform="translate(691,260)"/>
<path d="M0 0 C0.66 0.33 1.32 0.66 2 1 C1.67 1.66 1.34 2.32 1 3 C0.34 2.34 -0.32 1.68 -1 1 C-0.67 0.67 -0.34 0.34 0 0 Z " fill="#FFFFFF" transform="translate(828,844)"/>
<path d="M0 0 C0.99 0.33 1.98 0.66 3 1 C2.67 1.66 2.34 2.32 2 3 C1.34 2.01 0.68 1.02 0 0 Z " fill="#FFFFFF" transform="translate(678,268)"/>
<path d="M0 0 C0.33 0.66 0.66 1.32 1 2 C0.34 2.66 -0.32 3.32 -1 4 C-0.67 2.68 -0.34 1.36 0 0 Z " fill="#FFFFFF" transform="translate(701,263)"/>
<path d="M0 0 C0.66 0.66 1.32 1.32 2 2 C1.01 1.67 0.02 1.34 -1 1 C-0.67 0.67 -0.34 0.34 0 0 Z " fill="#FFFFFF" transform="translate(683,273)"/>
<path d="M0 0 C1.485 0.99 1.485 0.99 3 2 C2.01 2 1.02 2 0 2 C0 1.34 0 0.68 0 0 Z " fill="#FFFFFF" transform="translate(679,272)"/>
<path d="M0 0 C0.66 0 1.32 0 2 0 C1.67 0.66 1.34 1.32 1 2 C0.67 1.34 0.34 0.68 0 0 Z " fill="#FFFFFF" transform="translate(676,266)"/>
<path d="M0 0 C2 1 2 1 2 1 Z " fill="#FFFFFF" transform="translate(685,275)"/>
<path d="" fill="#FFFFFF" transform="translate(0,0)"/>
<path d="" fill="#FFFFFF" transform="translate(0,0)"/>
<path d="" fill="#FFFFFF" transform="translate(0,0)"/>
<path d="" fill="#FFFFFF" transform="translate(0,0)"/>
<path d="" fill="#FFFFFF" transform="translate(0,0)"/>
<path d="" fill="#FFFFFF" transform="translate(0,0)"/>
</svg>
