<?xml version="1.0" encoding="UTF-8"?>
<svg version="1.1" xmlns="http://www.w3.org/2000/svg" width="512" height="512">
<path d="M0 0 C1.65756569 -0.00744736 1.65756569 -0.00744736 3.34861755 -0.01504517 C6.982174 -0.0295804 10.61568691 -0.03645167 14.24926758 -0.04199219 C16.78176372 -0.04774745 19.31425985 -0.05350514 21.84675598 -0.05926514 C26.46933737 -0.06841148 31.09190578 -0.07472404 35.71449393 -0.07776189 C42.50798172 -0.08225243 49.30126931 -0.09986213 56.09469622 -0.12876248 C61.99468751 -0.15298712 67.89462886 -0.160706 73.79467201 -0.16243744 C76.29973763 -0.16546628 78.80480235 -0.17350256 81.30983543 -0.18662262 C84.8069733 -0.20364292 88.30361898 -0.20181331 91.80078125 -0.1953125 C92.8362207 -0.20452728 93.87166016 -0.21374207 94.93847656 -0.22323608 C103.81701087 -0.17143452 103.81701087 -0.17143452 107.70629883 3.16113281 C110.37466294 7.16367897 110.54032263 10.4542658 109.70629883 15.16113281 C107.52470738 17.91682728 105.83452389 19.59702028 102.70629883 21.16113281 C101.23455527 21.25865588 99.75850262 21.2945132 98.28353882 21.29916382 C96.88789955 21.30734383 96.88789955 21.30734383 95.46406555 21.31568909 C94.43975937 21.31673141 93.41545319 21.31777374 92.36010742 21.31884766 C91.28336258 21.32392838 90.20661774 21.32900909 89.09724426 21.33424377 C86.75041907 21.34496863 84.40358352 21.35358045 82.05674362 21.36036301 C78.33038762 21.37214731 74.60414776 21.39160457 70.87783813 21.41348267 C60.27934979 21.47507558 49.68088883 21.52892775 39.08227539 21.5625 C32.60241675 21.58357897 26.12276436 21.61899981 19.64302444 21.6632576 C17.1833707 21.67732761 14.72368041 21.68611947 12.26398849 21.68931198 C-17.86216647 21.73250917 -44.15252101 27.14403149 -66.29370117 49.16113281 C-83.75919575 67.69709318 -91.12003658 90.17365454 -90.81323242 115.37866211 C-90.1718262 135.5672093 -82.97872389 153.45718547 -70.29370117 169.16113281 C-69.53057617 170.19238281 -68.76745117 171.22363281 -67.98120117 172.28613281 C-51.5369169 189.87769273 -28.60532054 200.32302564 -4.61021233 201.26666451 C-1.58384926 201.32279719 1.44142192 201.35004629 4.46826172 201.36645508 C5.61074371 201.37635468 6.75322571 201.38625427 7.93032837 201.39645386 C11.67985004 201.42786163 15.42938435 201.45274383 19.17895508 201.47753906 C21.78926408 201.49812651 24.39956988 201.51912344 27.00987244 201.54051208 C33.16130186 201.59022975 39.31275616 201.6352453 45.46423382 201.67853445 C52.47280278 201.72808684 59.48132723 201.78293762 66.48985302 201.83821404 C80.89529275 201.9517124 95.30077679 202.05862018 109.70629883 202.16113281 C109.85035156 200.88971436 109.9944043 199.6182959 110.14282227 198.30834961 C110.95550673 191.13554558 115.32100307 185.79499195 120.70629883 181.16113281 C127.69734494 175.76893581 134.89417711 173.76783341 143.70629883 174.22363281 C151.66685856 175.28921955 158.51267672 179.05098916 163.70629883 185.16113281 C164.40754883 185.94488281 165.10879883 186.72863281 165.83129883 187.53613281 C169.19928338 192.25131119 170.90421736 196.38191156 170.70629883 202.16113281 C186.63218518 202.07694154 202.55796562 201.98170325 218.48370552 201.87360573 C225.87965998 201.82365762 233.27560433 201.77721401 240.67163086 201.73925781 C247.1241366 201.70613459 253.57655955 201.66619419 260.02897346 201.61834276 C263.43990588 201.59327789 266.85078482 201.57143979 270.2617836 201.55778885 C274.08601802 201.54076315 277.90999369 201.51169013 281.73413086 201.47998047 C282.84328857 201.47782028 283.95244629 201.4756601 285.09521484 201.47343445 C311.65781163 201.19437274 334.04763561 192.29590438 353.39379883 173.97363281 C370.94573243 155.79033469 378.28138912 132.94639186 378.19433594 108.05273438 C377.61697744 84.08287772 367.61247941 63.74942036 351.23754883 46.57128906 C333.57911635 29.80151146 310.62176297 22.02786072 286.61791992 22.00341797 C285.52277573 21.99833725 284.42763153 21.99325653 283.29930115 21.98802185 C280.93016728 21.97735246 278.56102355 21.96871894 276.19187546 21.96190262 C272.44293758 21.95007926 268.69411312 21.93062019 264.94522095 21.90878296 C254.28944079 21.84726244 243.63368949 21.79279781 232.9777832 21.75976562 C226.4533152 21.73945274 219.92902962 21.70357551 213.40468216 21.65900803 C210.91919053 21.64483456 208.43366158 21.63612257 205.94813156 21.63295364 C202.47715784 21.6280572 199.00674818 21.6049338 195.53588867 21.57763672 C194.50822891 21.58064285 193.48056915 21.58364899 192.42176819 21.58674622 C183.70543663 21.48470466 183.70543663 21.48470466 179.70629883 18.16113281 C177.13997366 14.73936592 177.34194832 11.3147286 177.70629883 7.16113281 C179.40776409 3.33283598 180.8608099 1.71012446 184.70629883 0.16113281 C186.92859077 -0.09334278 186.92859077 -0.09334278 189.39407349 -0.0995636 C190.33277283 -0.10664841 191.27147217 -0.11373322 192.23861694 -0.12103271 C193.77360336 -0.11731659 193.77360336 -0.11731659 195.33959961 -0.11352539 C196.42317749 -0.11863632 197.50675537 -0.12374725 198.62316895 -0.12901306 C202.21603894 -0.14294199 205.80871748 -0.14194799 209.40161133 -0.13964844 C211.90868195 -0.14353717 214.41575192 -0.1478722 216.92282104 -0.15263367 C222.19034443 -0.16010559 227.45781855 -0.15993893 232.7253418 -0.15454102 C238.10432152 -0.14920116 243.48311189 -0.15610855 248.86206055 -0.17504883 C255.376585 -0.19768664 261.89095218 -0.2052739 268.40551376 -0.20137596 C270.8747093 -0.20188513 273.34390889 -0.20704578 275.81308365 -0.21718788 C312.75757879 -0.35016257 342.63282151 7.91502832 369.70629883 34.16113281 C388.78113372 53.16439234 399.83096945 80.26717651 400.03588867 107.03344727 C400.0274292 108.95290161 400.0274292 108.95290161 400.01879883 110.91113281 C400.01664368 111.57543304 400.01448853 112.23973328 400.01226807 112.92416382 C399.96126179 122.71456873 399.60083324 131.75389599 396.70629883 141.16113281 C396.51293945 141.81758789 396.31958008 142.47404297 396.12036133 143.15039062 C391.52819297 158.47887853 384.26181791 172.09768243 373.70629883 184.16113281 C373.11719727 184.89332031 372.5280957 185.62550781 371.92114258 186.37988281 C354.090977 207.88207825 325.98705712 220.32894996 298.55673599 222.95765495 C293.43576563 223.32321435 288.31994922 223.29107948 283.18823242 223.2746582 C281.97732941 223.27480423 280.76642639 223.27495026 279.51882935 223.27510071 C276.23025278 223.27452741 272.94171993 223.26954583 269.65315199 223.26252675 C266.20453046 223.25623415 262.75590788 223.25568477 259.30728149 223.25450134 C252.7910684 223.25140533 246.27487228 223.24321547 239.75866663 223.23315185 C232.33415272 223.22193673 224.90963796 223.21646671 217.48511767 223.21145642 C202.22549992 223.20103124 186.96590551 223.18270749 171.70629883 223.16113281 C172.03629883 231.08113281 172.36629883 239.00113281 172.70629883 247.16113281 C175.26379883 247.03738281 177.82129883 246.91363281 180.45629883 246.78613281 C189.40633791 246.62115513 196.84446563 248.58771345 203.55004883 254.89550781 C204.95629883 256.53613281 204.95629883 256.53613281 206.70629883 259.16113281 C209.3486258 258.63558712 211.98523703 258.09972897 214.61645508 257.52050781 C223.46390562 255.81021998 231.05545041 255.96023695 239.05786133 260.49316406 C243.74366041 263.81885292 248.617513 267.97852808 250.51879883 273.53613281 C250.61161133 274.34050781 250.61161133 274.34050781 250.70629883 275.16113281 C251.57254883 274.83113281 252.43879883 274.50113281 253.33129883 274.16113281 C261.52653181 271.8624699 271.06536226 271.81672397 278.67895508 275.82910156 C286.44217127 280.92978888 292.31609375 286.96803636 294.70629883 296.16113281 C296.05252793 304.09323092 295.86285927 312.07839187 295.83129883 320.09863281 C295.82908325 320.83922943 295.82686768 321.57982605 295.82458496 322.34286499 C295.71596421 353.20661651 291.0936359 379.39099805 277.64379883 407.28613281 C277.34056702 407.91550751 277.03733521 408.5448822 276.72491455 409.19332886 C266.74859538 429.78828738 266.74859538 429.78828738 261.70629883 432.16113281 C256.74522457 432.70234091 253.63797679 432.30647518 249.70629883 429.16113281 C247.65041787 426.41995821 247.32907836 423.72114674 247.36914062 420.32421875 C248.10685978 415.59127762 250.62296954 411.39088579 252.76879883 407.16113281 C253.78325516 405.09609418 254.79757813 403.03099003 255.81176758 400.96582031 C256.77519368 399.03021821 257.73991471 397.09525977 258.70629883 395.16113281 C270.49211659 371.5690801 273.87491886 348.4601434 273.9465332 322.31494141 C273.95642003 320.1344025 273.98768602 317.95474107 274.01879883 315.77441406 C274.02531641 314.36165908 274.03057174 312.94889758 274.03442383 311.53613281 C274.04844238 309.66054688 274.04844238 309.66054688 274.06274414 307.74707031 C273.64087692 303.50297052 272.68948699 300.92535638 270.70629883 297.16113281 C266.95582401 294.66081627 265.14773617 294.62509727 260.70629883 295.16113281 C256.63936004 297.93404562 255.42767021 300.62991935 254.20629883 305.22363281 C253.31631523 308.50483608 252.7615382 310.09289594 250.58129883 312.78613281 C246.55436562 314.71205739 243.08505902 315.09717213 238.70629883 314.16113281 C235.42454565 311.63144807 234.01386106 310.0838195 232.70629883 306.16113281 C232.61563728 304.51973711 232.57476437 302.87531779 232.56567383 301.23144531 C232.54633789 300.27109375 232.52700195 299.31074219 232.50708008 298.32128906 C232.47335996 296.3058637 232.45500698 294.2901198 232.45239258 292.27441406 C232.32543923 286.19074404 232.32543923 286.19074404 229.28051758 281.02832031 C226.26786375 278.70983872 226.26786375 278.70983872 222.70629883 278.16113281 C219.35102111 279.39368381 217.25416413 280.47122836 215.01879883 283.28613281 C213.87169742 285.79883114 213.10681048 288.14682245 212.33129883 290.78613281 C211.34115233 293.85354542 210.88813112 294.99445321 208.45629883 297.22363281 C203.89648956 298.77811324 200.32277149 298.87956511 195.89379883 296.91113281 C193.45897988 294.96327766 192.78736617 294.05820363 191.70629883 291.16113281 C191.42657047 287.79376994 191.29276128 284.4685392 191.2277832 281.09277344 C191.05654626 276.63643632 190.45122055 273.71536807 187.70629883 270.16113281 C184.4733055 268.54463615 181.2016444 268.5908749 177.70629883 269.16113281 C174.68798757 271.19521214 173.06174709 272.72636719 172.17114258 276.32128906 C172.03836914 277.0934375 171.9055957 277.86558594 171.76879883 278.66113281 C171.16716955 281.99794706 170.53383492 283.90053369 168.01879883 286.22363281 C164.12105853 288.50344318 162.15012418 288.80750741 157.70629883 288.16113281 C154.16759943 286.50973976 152.8955973 285.44508052 150.70629883 282.16113281 C150.50913736 279.65101931 150.42604089 277.2501882 150.43505859 274.73974609 C150.42721848 273.60996841 150.42721848 273.60996841 150.41921997 272.45736694 C150.40898003 270.82209482 150.40319957 269.1867901 150.40133858 267.55148697 C150.39767778 264.962138 150.38095892 262.37317303 150.36058044 259.78390503 C150.30514258 252.42225283 150.27449104 245.06054373 150.25 237.69873047 C150.23411469 233.19531603 150.20388422 228.69217351 150.16523552 224.18889999 C150.15359261 222.47375248 150.14765523 220.75855632 150.1475544 219.04336929 C150.14736209 216.64239416 150.12907708 214.24216736 150.10693359 211.84130859 C150.11151077 211.1346405 150.11608795 210.42797241 150.12080383 209.69989014 C150.05706317 205.34709484 149.33328052 202.64258633 146.70629883 199.16113281 C144.54558416 197.08136569 144.54558416 197.08136569 141.70629883 196.16113281 C137.45685566 196.89379543 134.36719423 197.68755246 131.70629883 201.16113281 C131.25687998 203.41006371 131.25687998 203.41006371 131.32775879 205.95452881 C131.31545479 207.43484589 131.31545479 207.43484589 131.30290222 208.94506836 C131.31212456 210.56747437 131.31212456 210.56747437 131.3215332 212.22265625 C131.31616043 213.36277161 131.31078766 214.50288696 131.30525208 215.67755127 C131.29545574 218.15751193 131.29253549 220.63750694 131.29560852 223.11748505 C131.30007463 227.04319177 131.28611874 230.96844483 131.26721191 234.894104 C131.22933741 243.2330978 131.21656331 251.57206622 131.20629883 259.91113281 C131.19440823 269.55964038 131.17267707 279.2079216 131.126297 288.85633087 C131.11271808 292.72232156 131.11690021 296.5880353 131.1217041 300.45404053 C131.11236204 302.83004102 131.10219286 305.20603845 131.09106445 307.58203125 C131.10028679 309.19229187 131.10028679 309.19229187 131.10969543 310.83508301 C131.0548052 317.51450674 130.57588977 322.86641729 126.01879883 328.09863281 C122.59467099 329.67188074 119.36023305 329.83537068 115.70629883 329.16113281 C112.89626422 327.3674937 111.19689415 326.14232346 109.70629883 323.16113281 C109.62257223 321.63964955 109.59899856 320.11457503 109.60864258 318.59082031 C109.61186523 317.69492187 109.61508789 316.79902344 109.6184082 315.87597656 C109.62678711 314.93882812 109.63516602 314.00167969 109.64379883 313.03613281 C109.64831055 312.09125 109.65282227 311.14636719 109.6574707 310.17285156 C109.66927526 307.83554894 109.68574124 305.4983722 109.70629883 303.16113281 C104.13423307 306.79211009 100.14530782 309.51295817 98.61352539 316.21386719 C97.57140631 321.21141051 97.41687138 326.03900008 97.44067383 331.12988281 C97.43780365 332.51040833 97.43780365 332.51040833 97.43487549 333.91882324 C97.43352329 335.85164669 97.43715173 337.78447951 97.44555664 339.71728516 C97.4562699 342.65320496 97.44562825 345.58851298 97.43286133 348.52441406 C97.43418309 350.41373831 97.43674584 352.30306218 97.44067383 354.19238281 C97.43460114 355.49121399 97.43460114 355.49121399 97.42840576 356.81628418 C97.48565858 364.36451015 97.75969624 372.06801825 103.33129883 377.66113281 C104.12922852 378.48613281 104.9271582 379.31113281 105.74926758 380.16113281 C106.20865723 380.62390625 106.66804687 381.08667969 107.14135742 381.56347656 C108.96159808 383.42176905 110.73487141 385.31948381 112.50708008 387.22363281 C118.37667005 393.52624255 124.27140375 399.79039457 130.39379883 405.84863281 C131.83250935 407.28492127 133.27020745 408.72222557 134.70629883 410.16113281 C135.2605957 410.70640625 135.81489258 411.25167969 136.38598633 411.81347656 C140.11659177 415.78646597 140.70629883 418.86153914 140.70629883 424.16113281 C139.03057785 428.35043527 136.81327673 430.34642165 132.70629883 432.16113281 C128.29197085 432.81858592 125.97284503 431.9940271 122.35009766 429.47436523 C119.24882902 426.99675882 116.6666424 424.04361131 114.01879883 421.09863281 C112.78607566 419.75076607 111.55168283 418.40442456 110.31567383 417.05957031 C109.70788086 416.39795898 109.10008789 415.73634766 108.47387695 415.0546875 C105.97117063 412.3736115 103.38028649 409.7990502 100.76879883 407.22363281 C97.12722692 403.61938302 93.64005318 399.96022068 90.32739258 396.05175781 C89.20514436 394.74291893 88.0486362 393.46297716 86.86645508 392.20800781 C74.66522746 379.10394094 75.37011487 362.43060976 75.44555664 345.52294922 C75.45627887 342.66645077 75.4456069 339.81058102 75.43286133 336.95410156 C75.41841799 320.53835612 75.607098 304.79194704 87.20629883 291.84863281 C93.01177984 286.48193815 101.76738547 281.16113281 109.70629883 281.16113281 C109.70629883 262.02113281 109.70629883 242.88113281 109.70629883 223.16113281 C101.37379883 223.18433594 93.04129883 223.20753906 84.45629883 223.23144531 C78.47598502 223.24297703 72.49567967 223.2532272 66.51536179 223.26164055 C58.78633895 223.2726832 51.05735972 223.28665775 43.32836914 223.31201172 C36.54617893 223.33424902 29.76403593 223.34572937 22.98181152 223.3508873 C20.40489969 223.35455925 17.82799019 223.36172909 15.25109863 223.37259293 C-22.06242668 223.52352813 -53.95603686 216.70150063 -81.48510742 190.05957031 C-103.65978958 167.69458021 -112.63373029 138.71153037 -112.6105957 107.78198242 C-112.54264217 97.44955508 -111.55238617 87.97438742 -108.29370117 78.16113281 C-108.07939453 77.51192871 -107.86508789 76.86272461 -107.64428711 76.19384766 C-103.13513631 63.03067163 -96.3433435 50.73838571 -87.29370117 40.16113281 C-86.62854492 39.36320312 -85.96338867 38.56527344 -85.27807617 37.74316406 C-63.47724225 12.45262831 -33.07033171 0.03591331 0 0 Z " fill="#000000" transform="translate(112.293701171875,39.8388671875)"/>
<path d="M0 0 C1.07701172 -0.00322266 2.15402344 -0.00644531 3.26367188 -0.00976562 C14.63594283 0.06600359 24.04219259 1.20095222 32.6328125 9.1015625 C39.25727063 16.05862941 41.16503359 23.06667418 41.01953125 32.55078125 C40.66937845 35.46322867 39.83951235 37.72423564 38.75 40.4375 C37.81079035 42.8565003 37.81079035 42.8565003 37.6875 45.3125 C39.11061463 47.93262694 40.83367603 49.8985609 42.82421875 52.11328125 C47.91200016 58.11835658 48.23420769 65.49586405 48.0390625 73.09765625 C47.2259225 80.53336981 43.92301248 87.90511463 38.6875 93.3125 C31.04626577 99.43963782 24.21027609 101.62090295 14.52734375 101.68359375 C13.65985001 101.69262222 12.79235626 101.7016507 11.89857483 101.71095276 C10.07231066 101.72540461 8.24599532 101.73432934 6.41967773 101.73803711 C3.62981521 101.74997939 0.84213391 101.79925033 -1.94726562 101.84960938 C-3.72655176 101.85906967 -5.5058514 101.86630659 -7.28515625 101.87109375 C-8.11547867 101.89062607 -8.94580109 101.91015839 -9.80128479 101.93028259 C-14.11667598 101.896704 -15.80182588 101.71186004 -19.31420898 98.96508789 C-22.63176924 94.56126478 -22.46590307 90.64773535 -22.47363281 85.35620117 C-22.48108017 84.1410508 -22.48108017 84.1410508 -22.48867798 82.90135193 C-22.50329146 80.21938224 -22.51010046 77.53747172 -22.515625 74.85546875 C-22.52137739 72.99082945 -22.52713511 71.12619017 -22.53289795 69.2615509 C-22.5434058 65.35006434 -22.54924979 61.43859831 -22.55273438 57.52709961 C-22.55821678 52.5201378 -22.58224031 47.51344824 -22.61070633 42.50657177 C-22.62935003 38.65378532 -22.63453925 34.80106421 -22.63607025 30.94823647 C-22.6390937 29.10268987 -22.64711185 27.25714434 -22.66025543 25.41164207 C-22.67735119 22.8265462 -22.6754271 20.24211222 -22.66894531 17.65698242 C-22.6781601 16.89780518 -22.68737488 16.13862793 -22.6968689 15.35644531 C-22.65963216 10.60451937 -21.87954416 7.32433822 -19.3125 3.3125 C-13.26057039 -0.53578188 -6.9937124 -0.10351854 0 0 Z M-1.3125 21.3125 C-1.3125 26.5925 -1.3125 31.8725 -1.3125 37.3125 C1.224375 37.415625 3.76125 37.51875 6.375 37.625 C7.16479248 37.67052002 7.95458496 37.71604004 8.76831055 37.76293945 C12.85029411 37.84293787 14.3252694 37.58757032 17.70703125 35.01953125 C20.04423292 32.38391846 20.04423292 32.38391846 19.6875 28.6875 C18.55454337 24.83029538 18.55454337 24.83029538 15.6875 22.3125 C10.26114835 20.50371612 4.35635438 21.26049216 -1.3125 21.3125 Z M-1.3125 58.3125 C-1.3125 65.9025 -1.3125 73.4925 -1.3125 81.3125 C2.02875 81.250625 5.37 81.18875 8.8125 81.125 C9.85422363 81.11831299 10.89594727 81.11162598 11.96923828 81.10473633 C16.44822664 80.9544029 19.74500678 80.78361373 23.3046875 77.88671875 C26.13125045 74.83310402 26.62549727 74.1340362 26.9375 70 C26.66723382 66.01357385 26.22462014 64.35704416 23.6875 61.3125 C18.40812658 57.87265825 13.87567478 57.94832678 7.8125 58.125 C4.80125 58.186875 1.79 58.24875 -1.3125 58.3125 Z " fill="#000000" transform="translate(292.3125,98.6875)"/>
<path d="M0 0 C3.2472754 3.14252458 3.92521296 6.34113657 4.12457275 10.76316833 C4.12503601 11.82286331 4.12549927 12.88255829 4.12597656 13.97436523 C4.12978333 15.17919052 4.13359009 16.38401581 4.13751221 17.62535095 C4.13853943 18.92332108 4.13956665 20.2212912 4.140625 21.55859375 C4.15255693 23.60048358 4.16791957 25.64233119 4.18333054 27.68419743 C4.22127957 32.71633731 4.25261341 37.74821799 4.25048828 42.78051758 C4.24970034 46.28680232 4.27309256 49.79220989 4.3123703 53.29826546 C4.32788016 55.27735127 4.31749823 57.25658538 4.30670166 59.23570251 C4.10734084 66.32872565 4.10734084 66.32872565 7.39355469 72.24633789 C8.68374512 73.11440063 8.68374512 73.11440063 10 74 C10.78375 74.5775 11.5675 75.155 12.375 75.75 C17.32796727 78.10855584 21.40493428 78.40113217 26.625 76.875 C31.31289879 75.13903748 34.72203684 72.55592633 37 68 C37.09969359 66.06090455 37.13558379 64.11840422 37.1418457 62.17675781 C37.14888016 60.9549884 37.15591461 59.73321899 37.16316223 58.47442627 C37.16588607 57.49202847 37.16588607 57.49202847 37.16866493 56.48978424 C37.1758342 54.437971 37.19150531 52.3863964 37.21000671 50.33465576 C37.26244455 44.50048156 37.31041843 38.66643588 37.32592773 32.83203125 C37.33603633 29.26329977 37.36543532 25.69516576 37.40724754 22.12667084 C37.42547798 20.11164516 37.42291391 18.09646589 37.41999817 16.08135986 C37.57466416 4.50431534 37.57466416 4.50431534 42 0 C45.81229906 -1.69435514 48.07694527 -2.16289201 52.1875 -1.4375 C55.55869454 0.28555498 56.91863348 1.8459613 59 5 C59.50793457 8.03286743 59.50793457 8.03286743 59.51757812 11.45166016 C59.53018677 12.73714752 59.54279541 14.02263489 59.55578613 15.34707642 C59.54862149 16.74441068 59.54041631 18.14173993 59.53125 19.5390625 C59.5339482 20.98530335 59.53783334 22.43154242 59.54284668 23.8777771 C59.54873773 26.90909088 59.54019975 29.93993263 59.52148438 32.97119141 C59.49881676 36.82772248 59.51174121 40.68313239 59.53577423 44.53962135 C59.55034857 47.52884087 59.54557155 50.51780245 59.53526306 53.50703049 C59.53262132 54.92697664 59.53577418 56.34694733 59.54518127 57.76686478 C59.60503286 69.35006357 58.33959512 79.55720574 50.05078125 88.21875 C41.49510122 95.64996923 31.88937613 99.5816241 20.625 99.4375 C19.78791504 99.42920166 18.95083008 99.42090332 18.08837891 99.41235352 C7.3763307 99.11960059 -0.20634667 95.33081185 -8 88 C-16.74695345 78.47002234 -17.47591621 68.93474027 -17.46875 56.51953125 C-17.4758612 55.01836364 -17.48356159 53.51719872 -17.49182129 52.01603699 C-17.5052107 48.88341692 -17.50685815 45.75104874 -17.50097656 42.6184082 C-17.49506031 38.60994576 -17.52577521 34.60268612 -17.56609344 30.59445667 C-17.5919625 27.49999004 -17.59484914 24.40581436 -17.59120178 21.3112545 C-17.59289124 19.83328902 -17.60251717 18.35530985 -17.62034607 16.87745094 C-17.64254279 14.81176764 -17.63283853 12.74853785 -17.61523438 10.68286133 C-17.61728882 9.51008133 -17.61934326 8.33730133 -17.62145996 7.12898254 C-16.81642481 3.07571909 -15.14178748 1.59059767 -12 -1 C-7.87453879 -2.71437572 -4.02752494 -1.60244077 0 0 Z " fill="#000000" transform="translate(188,101)"/>
<path d="M0 0 C1.61988799 3.23977598 1.56520367 6.4983359 1 10 C-0.34040619 12.80703896 -1.54745461 13.86054551 -4 16 C-9.81457389 17.57551638 -13.38027965 16.3907046 -18.5 13.625 C-24.91024498 10.24144801 -30.59179596 8.01631587 -37.9375 9.9375 C-39.09572266 10.22947266 -39.09572266 10.22947266 -40.27734375 10.52734375 C-40.84582031 10.68332031 -41.41429687 10.83929688 -42 11 C-42.76716851 13.85078091 -42.76716851 13.85078091 -43 17 C-40.76073639 20.06867443 -37.78796451 21.10599265 -34.3359375 22.48828125 C-32.65177734 23.17760742 -32.65177734 23.17760742 -30.93359375 23.88085938 C-28.58542744 24.8255388 -26.23648391 25.76828892 -23.88671875 26.70898438 C-12.87218406 31.22406444 -3.1082657 35.97426475 2.03125 47.265625 C5.08829806 55.58758915 4.37678706 62.88296845 1 71 C-3.72190588 79.31114276 -10.53613754 84.53546159 -19.56274414 87.39575195 C-23.49181228 88.36985229 -27.27961168 88.48974593 -31.3125 88.4375 C-32.13991699 88.42992676 -32.96733398 88.42235352 -33.81982422 88.41455078 C-46.64251604 88.07204566 -57.09788924 83.26890297 -66.0625 74.125 C-68.32890209 71.36842258 -69.48478361 69.40058002 -69.6875 65.8125 C-68.93979728 61.66614854 -67.99460466 59.90652806 -65 57 C-61.43297312 55.21648656 -57.8767835 55.24399698 -54 56 C-51.49147913 57.55686903 -49.362538 59.32320953 -47.125 61.24609375 C-42.41286871 65.13533446 -37.08506301 66.67973353 -31 67 C-26.89627422 66.5063187 -23.86067555 65.66205811 -20.5625 63.125 C-18.4441197 60.24400279 -17.87471761 58.4198671 -18.1875 54.875 C-19.58731197 51.64466468 -22.85111023 51.06064303 -25.98925781 49.7824707 C-27.13233398 49.33476318 -28.27541016 48.88705566 -29.453125 48.42578125 C-30.72562127 47.91822147 -31.99774509 47.40972712 -33.26953125 46.90039062 C-35.25195522 46.10688406 -37.23553682 45.31811623 -39.22607422 44.54516602 C-49.53133434 40.53385187 -58.50511956 36.47079057 -63.30859375 25.89453125 C-66.22416767 17.90552925 -65.27124018 11.31621216 -62.19140625 3.546875 C-59.14246465 -2.97086246 -54.3460904 -6.79048301 -48 -10 C-31.14875542 -16.01830164 -13.07437131 -12.0915598 0 0 Z " fill="#000000" transform="translate(426,112)"/>
<path d="M0 0 C2.81432613 3.23088703 3.1640625 5.22710201 3.1640625 9.484375 C1.8828226 13.40346175 0.78953862 15.04369865 -2.5859375 17.421875 C-6.63829959 18.74668568 -8.72227582 18.61917822 -12.8359375 17.484375 C-14.10832677 16.70740538 -15.35755468 15.89170155 -16.5859375 15.046875 C-21.92523589 11.49769022 -27.87885134 9.9281073 -34.28125 10.828125 C-36.76063951 11.47946089 -36.76063951 11.47946089 -39.8359375 13.484375 C-40.98790504 16.47533709 -40.98790504 16.47533709 -40.8359375 19.484375 C-40.8359375 20.144375 -40.8359375 20.804375 -40.8359375 21.484375 C-40.31314209 21.65308105 -39.79034668 21.82178711 -39.25170898 21.99560547 C-5.10256433 33.17820845 -5.10256433 33.17820845 3.2890625 47.171875 C6.35764861 54.21866383 6.62652154 62.14881729 4.171875 69.42578125 C2.97977842 71.90993283 1.67399648 74.18205584 0.1640625 76.484375 C-0.3928125 77.391875 -0.9496875 78.299375 -1.5234375 79.234375 C-10.20703798 87.68328357 -19.84870122 89.89251992 -31.51147461 89.85009766 C-43.18508974 89.60617471 -53.93638493 85.58296119 -62.75390625 77.7890625 C-66.34925532 73.98021289 -67.93411364 70.88406283 -67.8359375 65.484375 C-66.69732239 62.30823812 -65.77610104 60.25043418 -63.1484375 58.109375 C-59.47618025 57.11687304 -56.52948423 56.55178513 -52.8359375 57.484375 C-49.85696741 59.32015489 -47.17075396 61.3413539 -44.44921875 63.5390625 C-39.78820627 67.00869511 -34.66423137 68.57787704 -28.8359375 68.484375 C-24.12897067 67.50026038 -19.9397337 66.33308229 -16.8359375 62.484375 C-16.16913382 59.52716872 -16.16913382 59.52716872 -16.8359375 56.484375 C-20.34126757 53.15005631 -23.90188848 51.43821512 -28.38671875 49.71484375 C-29.65576651 49.21331439 -30.92464132 48.71134722 -32.19335938 48.20898438 C-34.16553232 47.43951682 -36.1394292 46.67531722 -38.11694336 45.91967773 C-47.83574397 42.18560584 -56.61095709 38.61939242 -61.3359375 28.796875 C-63.82385434 21.48861928 -64.13218766 13.88908127 -61.2109375 6.671875 C-56.40643998 -2.55342752 -50.16049548 -7.17087321 -40.2734375 -10.3359375 C-26.18052228 -13.6494503 -10.79862188 -9.57894282 0 0 Z " fill="#000000" transform="translate(145.8359375,110.515625)"/>
<path d="M0 0 C5.57894737 3.15789474 5.57894737 3.15789474 7 6 C7.52893101 10.41353907 7.49914819 13.95829942 5.5625 18 C1.91198769 20.84918034 -1.42336575 21.2942122 -6 21 C-9.670261 19.43818681 -10.7727373 18.34089404 -13 15 C-13.73446576 10.43948005 -13.59262059 6.98088926 -11.1875 3 C-7.69935457 -0.18916153 -4.58550639 -0.44955945 0 0 Z " fill="#000000" transform="translate(259,40)"/>
</svg>
