<?xml version="1.0" encoding="UTF-8"?>
<svg version="1.1" xmlns="http://www.w3.org/2000/svg" width="512" height="512">
<path d="M0 0 C0.99 -0.03287109 0.99 -0.03287109 2 -0.06640625 C5.13143784 0.91828417 6.19978422 2.88689791 8 5.5625 C8.48101807 8.36567688 8.48101807 8.36567688 8.45410156 11.4543457 C8.45364838 13.19558464 8.45364838 13.19558464 8.45318604 14.97200012 C8.43254089 16.21487289 8.41189575 17.45774567 8.390625 18.73828125 C8.38496521 20.01857712 8.37930542 21.29887299 8.37347412 22.6179657 C8.35825452 26.00977213 8.31900634 29.40088548 8.2746582 32.79241943 C8.23362496 36.25800197 8.21544605 39.7236973 8.1953125 43.18945312 C8.15122837 49.98076836 8.08430178 56.77157136 8 63.5625 C17.6132408 56.22239083 17.6132408 56.22239083 27.01757812 48.61816406 C36.75751974 40.57475117 43.33782689 36.80544504 56.3984375 37.171875 C63.27275099 37.91746215 69.08935997 40.65185997 74 45.5625 C75.80080448 48.15645659 77.43583568 50.82022043 79 53.5625 C79.45890625 53.16417969 79.9178125 52.76585937 80.390625 52.35546875 C82.25227822 50.74803288 84.12423922 49.15343811 86 47.5625 C86.680625 46.985 87.36125 46.4075 88.0625 45.8125 C93.92533094 42.03002843 100.2376583 41.93813606 107 42.5625 C113.90055899 44.1594199 118.76574507 47.49510241 122.75 53.375 C125.00962553 57.15048718 125.72710519 60.19618308 126 64.5625 C127.485 64.0675 127.485 64.0675 129 63.5625 C137.45491726 62.66167168 143.97869762 63.63131794 151 68.5625 C157.05811509 73.6087946 159.41226311 80.35414971 160.28269005 88.06761551 C160.40400925 90.67494642 160.43653907 93.26731864 160.43237305 95.87744141 C160.4425647 96.85425873 160.45275635 97.83107605 160.46325684 98.8374939 C160.49317731 102.02974336 160.50262064 105.22169175 160.51171875 108.4140625 C160.52858096 110.64180482 160.54673326 112.86953771 160.56611633 115.09725952 C160.61345476 120.93325861 160.64336855 126.76921947 160.66955566 132.60534668 C160.69944289 138.57160997 160.7459451 144.53774176 160.79101562 150.50390625 C160.87686486 162.19003515 160.94429171 173.87619125 161 185.5625 C161.45686691 185.18832947 161.91373383 184.81415894 162.38444519 184.4286499 C164.47745844 182.71622215 166.5726915 181.00653171 168.66796875 179.296875 C169.74588684 178.41394775 169.74588684 178.41394775 170.84558105 177.51318359 C182.02152813 168.4037806 189.32573114 164.50448062 204 165.5625 C210.71040291 167.19588489 215.16857296 172.01808045 219 177.5625 C222.02721879 183.00505293 222.80244295 188.4227126 222 194.5625 C219.70293517 202.55660301 216.00311073 209.80984742 212 217.0625 C211.14341797 218.62508545 211.14341797 218.62508545 210.26953125 220.21923828 C202.88001751 233.56073618 194.75787755 246.29341836 185.875 258.6875 C185.318125 259.46464355 184.76125 260.24178711 184.1875 261.04248047 C183.41019531 262.10813232 183.41019531 262.10813232 182.6171875 263.1953125 C181.93052002 264.13721436 181.93052002 264.13721436 181.22998047 265.09814453 C180 266.5625 180 266.5625 178 267.5625 C174.48944334 267.82254123 171.86723298 267.95047265 168.625 266.5 C166.05821015 263.43959671 165.87122216 261.5546129 166 257.5625 C167.09179687 255.55810547 167.09179687 255.55810547 168.59375 253.4296875 C169.14272949 252.63900879 169.69170898 251.84833008 170.25732422 251.03369141 C171.11994873 249.81045166 171.11994873 249.81045166 172 248.5625 C173.0786273 246.9864966 174.15413629 245.4083546 175.2265625 243.828125 C175.77755615 243.01738525 176.3285498 242.20664551 176.89624023 241.37133789 C184.52534419 230.07905735 191.46195791 218.51586504 198 206.5625 C198.39928711 205.84852051 198.79857422 205.13454102 199.20996094 204.39892578 C200.26529369 202.50564235 201.29401692 200.60079883 202.3125 198.6875 C202.86550781 197.65882813 203.41851562 196.63015625 203.98828125 195.5703125 C205.24701913 191.8281188 204.90540107 189.372538 204 185.5625 C201.73317764 182.85975026 200.3231357 182.60304101 196.82421875 182.1640625 C191.75188238 182.69253881 189.3075382 184.72200908 185.4375 187.875 C184.75220215 188.4110083 184.0669043 188.9470166 183.36083984 189.49926758 C181.22817866 191.1719863 179.11406025 192.8663638 177 194.5625 C174.99655151 196.14275132 172.98905537 197.71772386 170.98071289 199.29174805 C169.76446606 200.24749628 168.55128686 201.20716416 167.34155273 202.17114258 C162.43637477 206.0724431 159.76626138 206.95785462 153.55078125 206.921875 C149.44131496 206.34289966 147.78650423 204.56335071 145 201.5625 C143.81470741 199.19191482 143.87025097 197.75526506 143.86196899 195.1104126 C143.85651566 194.17394897 143.85106232 193.23748535 143.84544373 192.27264404 C143.8444014 191.24197815 143.84335907 190.21131226 143.84228516 189.14941406 C143.83720444 188.06635986 143.83212372 186.98330566 143.82688904 185.86743164 C143.81616795 183.50912542 143.80755463 181.15080892 143.80076981 178.7924881 C143.78900688 175.06047706 143.76956018 171.3285831 143.74765015 167.59661865 C143.68594994 156.98339169 143.63175442 146.37019014 143.59863281 135.75683594 C143.57769565 129.27053682 143.54239704 122.7844494 143.49787521 116.29827118 C143.48370453 113.82477052 143.47499038 111.35123239 143.47182083 108.87769318 C143.46691616 105.41595803 143.44376769 101.95478512 143.41650391 98.49316406 C143.41951004 97.47059509 143.42251617 96.44802612 143.4256134 95.39447021 C143.36315942 90.05863807 143.07590663 86.13958057 140 81.5625 C137.19084526 80.15792263 135.11189466 80.31354843 132 80.5625 C128.8640843 82.34234405 128.15897264 83.08558207 127 86.5625 C126.90050919 89.203059 126.85631487 91.81799969 126.8581543 94.45874023 C126.85467987 95.2622995 126.85120544 96.06585876 126.84762573 96.89376831 C126.84027432 98.63873541 126.83492566 100.38371183 126.83133507 102.12869072 C126.82416992 104.88991261 126.80850396 107.65095677 126.78999329 110.41212463 C126.73751884 118.26276244 126.68952408 126.11330182 126.67407227 133.96411133 C126.66400154 138.76584946 126.63470303 143.56713898 126.59275246 148.36870003 C126.58042713 150.19910352 126.57532399 152.02957032 126.57755089 153.86001396 C126.57989895 156.41945319 126.55777747 158.9776004 126.5300293 161.53686523 C126.53663071 162.29388229 126.54323212 163.05089935 126.55003357 163.83085632 C126.48867811 167.2734031 126.24962481 169.2238915 124.18171692 172.02894592 C120.94006107 174.30754334 118.86576257 174.17288356 115 173.5625 C112.1503649 171.54574576 110.2933585 169.95096178 109.55101013 166.43743706 C109.37836485 163.75241229 109.37361904 161.10995292 109.41992188 158.41967773 C109.41746964 157.40124786 109.4150174 156.38281799 109.41249084 155.33352661 C109.41032042 153.12584744 109.41959137 150.91813396 109.4389801 148.71053886 C109.46899182 145.21795194 109.46802427 141.72659172 109.4588623 138.23390198 C109.44493274 130.82244635 109.46970985 123.41138964 109.5 116 C109.53509455 107.40863135 109.55442462 98.81785463 109.53187561 90.22642708 C109.53125657 86.78266236 109.56047761 83.33995944 109.59069824 79.89634705 C109.58862427 77.78953866 109.58515976 75.68273102 109.58007812 73.57592773 C109.59655899 72.61633652 109.61303986 71.6567453 109.63002014 70.66807556 C109.62359186 65.30094475 109.62359186 65.30094475 106.69030762 60.93666077 C102.99642891 59.04989393 100.93250518 59.39731328 97 60.5625 C94.95319659 62.34640546 94.10643391 63.7953352 93.73190498 66.49490166 C93.6171672 69.00988872 93.60959387 71.50759135 93.63110352 74.02514648 C93.62733704 74.98330261 93.62357056 75.94145874 93.61968994 76.9286499 C93.6132565 79.00808674 93.61358841 81.08755299 93.61987495 83.16699028 C93.62897364 86.4579678 93.61877512 89.74837419 93.60325623 93.0393219 C93.56312109 102.39542742 93.56195565 111.75148875 93.56420898 121.10766602 C93.56426005 126.8311912 93.54511033 132.55440838 93.51487541 138.2778492 C93.50403439 141.52026739 93.51619034 144.76210175 93.52870178 148.00450134 C93.51979836 149.9931598 93.50972433 151.98181347 93.49829102 153.97045898 C93.50803452 154.87192154 93.51777802 155.77338409 93.52781677 156.7021637 C93.48005948 160.86136655 93.33991647 163.01678496 91.09385681 166.62269592 C88.83437273 168.71594146 88.02658236 169.22549199 85 169.125 C84.34 169.12628906 83.68 169.12757813 83 169.12890625 C80.01304129 168.28299021 78.90445656 167.01420089 77 164.5625 C76.59709363 161.80176452 76.43541184 159.43348597 76.45410156 156.67285156 C76.44376389 155.88222824 76.43342621 155.09160492 76.42277527 154.27702332 C76.39332359 151.6688499 76.39184764 149.06145171 76.390625 146.453125 C76.3756449 144.64278684 76.35891812 142.83246236 76.34051514 141.02215576 C76.29681008 136.26120378 76.27683557 131.50043615 76.26177979 126.73931885 C76.24222006 121.87948694 76.20024878 117.01985447 76.16015625 112.16015625 C76.08481999 102.62766563 76.03454921 93.09521958 76 83.5625 C75.37955811 84.72036011 75.37955811 84.72036011 74.74658203 85.90161133 C73.20839912 88.77042397 71.66886578 91.63850649 70.12841797 94.50610352 C69.46251231 95.74637306 68.79714264 96.98693053 68.13232422 98.2277832 C67.17556936 100.01329656 66.21687944 101.79775897 65.2578125 103.58203125 C64.39373779 105.19235229 64.39373779 105.19235229 63.51220703 106.83520508 C62 109.5625 62 109.5625 60 112.5625 C59.69945415 114.93793316 59.69945415 114.93793316 59.74462891 117.61303711 C59.73766998 118.64097885 59.73071106 119.66892059 59.72354126 120.72801208 C59.72503677 122.39211876 59.72503677 122.39211876 59.7265625 124.08984375 C59.70627624 126.43164543 59.68542551 128.77344227 59.6640625 131.11523438 C59.64143499 134.81311114 59.62498294 138.51079735 59.61914062 142.20874023 C59.60963996 145.77362646 59.57589217 149.33764997 59.5390625 152.90234375 C59.54410797 154.00972397 59.54915344 155.11710419 59.55435181 156.25804138 C59.54108856 157.28913528 59.52782532 158.32022919 59.51416016 159.38256836 C59.51131012 160.28841171 59.50846008 161.19425507 59.50552368 162.12754822 C58.84235287 165.32183765 57.4941176 166.53005083 55 168.5625 C52.09215119 169.27132303 50.057461 168.90221789 47 168.5625 C44.32568511 166.75086733 44.04079641 165.68488923 43 162.5625 C42.85222064 160.86382812 42.75252934 159.16072511 42.68359375 157.45703125 C42.64169922 156.47412109 42.59980469 155.49121094 42.55664062 154.47851562 C42.51732422 153.45435547 42.47800781 152.43019531 42.4375 151.375 C42.39431641 150.33923828 42.35113281 149.30347656 42.30664062 148.23632812 C42.20055634 145.6785181 42.09849854 143.12061155 42 140.5625 C39.87347549 143.33216633 37.74904651 146.10343298 35.625 148.875 C34.72007812 150.05352539 34.72007812 150.05352539 33.796875 151.25585938 C33.21679688 152.01318359 32.63671875 152.77050781 32.0390625 153.55078125 C31.50490723 154.24727783 30.97075195 154.94377441 30.42041016 155.66137695 C26.98910822 160.25394282 26.70829763 163.38049312 26.7253418 168.95507812 C26.72023087 169.81257156 26.71511993 170.670065 26.70985413 171.55354309 C26.69591375 174.40034917 26.69692089 177.24691373 26.69921875 180.09375 C26.69532887 182.08418873 26.6909936 184.07462664 26.68623352 186.06506348 C26.67875789 190.25157344 26.67906838 194.43799916 26.68432617 198.62451172 C26.69006523 203.9373657 26.67333279 209.24986471 26.6499815 214.56266022 C26.63508213 218.68448845 26.63439517 222.80623492 26.63749123 226.92808533 C26.63698419 228.88289583 26.63186516 230.83771169 26.62167931 232.79249573 C26.54500753 249.59342229 27.71916818 265.97862419 33.5625 281.875 C34.01786133 283.1734082 34.01786133 283.1734082 34.48242188 284.49804688 C35.04021373 286.08635616 35.60427659 287.6724949 36.17797852 289.25512695 C36.44924561 290.01656006 36.7205127 290.77799316 37 291.5625 C37.34161667 292.39645294 37.68323334 293.23040588 38.03520203 294.08963013 C39.29051113 298.60821878 39.27943852 302.7687818 39.25878906 307.43579102 C39.2622937 308.41374634 39.26579834 309.39170166 39.26940918 310.39929199 C39.27818912 313.62173628 39.27239093 316.84395985 39.265625 320.06640625 C39.26697261 322.31029808 39.26891395 324.55418962 39.27142334 326.79808044 C39.27436945 331.49619329 39.27009299 336.19423 39.26074219 340.89233398 C39.24934145 346.91375817 39.25591439 352.93500418 39.26788712 358.95642185 C39.2751139 363.5880823 39.27281411 368.21970051 39.26763153 372.85136223 C39.26629765 375.07172606 39.26793361 377.29209373 39.27259064 379.51245308 C39.27766996 382.61460665 39.26992594 385.71647145 39.25878906 388.81860352 C39.26283752 389.73562546 39.26688599 390.6526474 39.27105713 391.59745789 C39.23428297 397.12717489 39.10557507 401.45692493 35 405.5625 C32.94140625 405.86328125 32.94140625 405.86328125 30.5625 405.875 C29.78003906 405.89175781 28.99757813 405.90851563 28.19140625 405.92578125 C25.4453312 405.47054956 24.71982579 404.71499409 23 402.5625 C22.63479233 400.65625095 22.63479233 400.65625095 22.64837646 398.46400452 C22.64595444 397.63054001 22.64353241 396.7970755 22.64103699 395.93835449 C22.65346939 395.02678589 22.66590179 394.11521729 22.67871094 393.17602539 C22.67976334 392.21284897 22.68081573 391.24967255 22.68190002 390.25730896 C22.68551277 388.16039607 22.69568471 386.06348676 22.71157074 383.96663094 C22.73458567 380.6296097 22.73568981 377.2932507 22.73028564 373.9561615 C22.71762766 364.46580769 22.73404678 354.97579599 22.79052734 345.4855957 C22.82352478 339.6787376 22.82173572 333.87269066 22.79950714 328.06579399 C22.79777752 325.86896376 22.80875991 323.67207984 22.83361053 321.47538948 C22.99017524 307.27658388 21.20700047 295.97723182 15.83588409 282.82618523 C10.29914516 267.83196029 9.8582535 251.83148724 9.68359375 236.0546875 C9.66298034 234.47713735 9.64198286 232.89959219 9.62062073 231.322052 C9.56585244 227.20239331 9.51624682 223.08268859 9.46777344 218.96295166 C9.41722454 214.74609357 9.36171411 210.52930099 9.30664062 206.3125 C9.19961387 198.06255565 9.09804959 189.81255591 9 181.5625 C8.22285645 182.35011719 7.44571289 183.13773438 6.64501953 183.94921875 C3.76888327 186.86147081 0.88620196 189.76716779 -1.99853516 192.67089844 C-3.24773702 193.93017713 -4.49514056 195.19124236 -5.74072266 196.45410156 C-7.52821075 198.26576412 -9.32200227 200.07096839 -11.1171875 201.875 C-11.67558319 202.44371826 -12.23397888 203.01243652 -12.80929565 203.59838867 C-14.16875885 204.9582465 -15.58006607 206.26591173 -17 207.5625 C-17.66 207.5625 -18.32 207.5625 -19 207.5625 C-19 213.8325 -19 220.1025 -19 226.5625 C-17.02 227.2225 -15.04 227.8825 -13 228.5625 C-10.83984375 229.9375 -10.83984375 229.9375 -8.9375 231.5625 C-8.30714844 232.078125 -7.67679687 232.59375 -7.02734375 233.125 C0.12153249 241.72018068 0.71868274 250.31002974 0.61523438 261.06225586 C0.61874142 262.60564788 0.62440656 264.14903625 0.63204956 265.69241333 C0.6462152 269.85535659 0.62932282 274.01763288 0.60576439 278.18051219 C0.5855736 282.544619 0.59153877 286.90870036 0.59387207 291.27284241 C0.59381863 298.59191831 0.57412937 305.91073491 0.54199219 313.22973633 C0.50500841 321.69372936 0.49633113 330.15738421 0.5032897 338.6214475 C0.50958868 346.77257094 0.49885788 354.92357839 0.47932434 363.07467842 C0.47114625 366.5415366 0.46844148 370.00833554 0.47001648 373.47520256 C0.47089381 377.55063236 0.45672073 381.62573946 0.43078995 385.70108414 C0.42361558 387.19788232 0.42155062 388.6947148 0.42490768 390.19152641 C0.42860952 392.23060644 0.4120657 394.26969362 0.39440918 396.30870056 C0.39068047 397.45071898 0.38695175 398.59273741 0.38311005 399.76936245 C0 402.5625 0 402.5625 -1.38988495 404.42846012 C-3.51503791 405.92525267 -4.91765264 405.96332347 -7.5 405.9375 C-8.2734375 405.94523437 -9.046875 405.95296875 -9.84375 405.9609375 C-12.53507776 405.46362694 -13.38034029 404.74509022 -15 402.5625 C-15.9402057 399.59074372 -16.12370603 396.89792686 -16.12025452 393.79156494 C-16.12231651 392.35711784 -16.12231651 392.35711784 -16.12442017 390.89369202 C-16.12082489 389.85143967 -16.11722961 388.80918732 -16.11352539 387.73535156 C-16.11367142 386.63261398 -16.11381744 385.5298764 -16.1139679 384.39372253 C-16.11327093 380.74683672 -16.10548857 377.1000019 -16.09765625 373.453125 C-16.0957913 370.92535429 -16.09436776 368.39758321 -16.09336853 365.86981201 C-16.0899398 359.89526131 -16.08205734 353.92073252 -16.07201904 347.9461906 C-16.05777822 339.28214049 -16.05254243 330.61808414 -16.04621124 321.95402527 C-16.03651218 309.82350168 -16.01735136 297.69302594 -16 285.5625 C-39.43 285.5625 -62.86 285.5625 -87 285.5625 C-88.98 293.4825 -88.98 293.4825 -91 301.5625 C-92.09054688 304.34107422 -92.09054688 304.34107422 -93.203125 307.17578125 C-95.65818924 313.59089775 -95.66932422 319.94756489 -95.75 326.75 C-95.77964844 327.98814453 -95.80929688 329.22628906 -95.83984375 330.50195312 C-95.90981081 333.52219794 -95.96286824 336.54170364 -96 339.5625 C-94.82062866 340.02172852 -94.82062866 340.02172852 -93.61743164 340.49023438 C-88.94257886 342.40534989 -85.26741575 345.25475527 -82.8079834 349.73295593 C-80.27823444 355.89447983 -79.40724043 361.13556389 -79.46875 367.76953125 C-79.4649231 368.69795334 -79.46109619 369.62637543 -79.45715332 370.58293152 C-79.45445298 372.52657163 -79.46168118 374.47024927 -79.47851562 376.41381836 C-79.50007561 379.38542108 -79.47858758 382.35464004 -79.453125 385.32617188 C-79.45576623 387.22396364 -79.46088695 389.12175393 -79.46875 391.01953125 C-79.46065308 391.90292679 -79.45255615 392.78632233 -79.44421387 393.69648743 C-79.50740333 397.84728341 -79.66363217 400.02360569 -81.90820312 403.61962891 C-84.16628972 405.7169507 -84.97188571 406.22554286 -88 406.125 C-88.66 406.12628906 -89.32 406.12757813 -90 406.12890625 C-93.0546219 405.26382778 -94.09080485 404.12351396 -96 401.5625 C-96.57962303 398.41907872 -96.50950738 395.31335822 -96.46875 392.125 C-96.47579956 391.2079126 -96.48284912 390.2908252 -96.4901123 389.34594727 C-96.51962365 385.42677386 -96.50295014 381.5080964 -96.49072266 377.58886719 C-96.48834532 374.72560781 -96.50924118 371.86315889 -96.53125 369 C-96.51993042 368.11449463 -96.50861084 367.22898926 -96.49694824 366.31665039 C-96.5037561 365.4889917 -96.51056396 364.66133301 -96.51757812 363.80859375 C-96.51439575 363.08341553 -96.51121338 362.3582373 -96.50793457 361.61108398 C-97.27247905 358.4281057 -98.28522156 357.41935561 -101 355.5625 C-104.25561651 354.97609879 -107.4696284 355.03697775 -110.76977539 355.07666016 C-111.76040482 355.07286346 -112.75103424 355.06906677 -113.77168274 355.06515503 C-117.04732892 355.05774335 -120.32208886 355.07913982 -123.59765625 355.1015625 C-125.87161657 355.10394647 -128.14557889 355.10485235 -130.41954041 355.1043396 C-135.18517384 355.10746859 -139.95050664 355.12404298 -144.71606445 355.15087891 C-150.83192817 355.18487798 -156.9474617 355.19250699 -163.06340885 355.19098854 C-167.75849066 355.19153174 -172.45349994 355.20249058 -177.14855766 355.21699142 C-179.40406177 355.22336584 -181.65957411 355.22729982 -183.91508675 355.22877884 C-187.06340737 355.23310386 -190.21137423 355.25058732 -193.35961914 355.27197266 C-194.29632446 355.27106628 -195.23302979 355.27015991 -196.19812012 355.26922607 C-197.48300072 355.28202103 -197.48300072 355.28202103 -198.7938385 355.29507446 C-199.53806092 355.29842615 -200.28228334 355.30177784 -201.04905796 355.30523109 C-203.32287833 355.45913719 -203.32287833 355.45913719 -206 357.5625 C-206.89964723 360.26144168 -207.12826133 361.83274761 -207.1418457 364.60327148 C-207.14888016 365.41098495 -207.15591461 366.21869843 -207.16316223 367.05088806 C-207.16940865 368.35407738 -207.16940865 368.35407738 -207.17578125 369.68359375 C-207.19897357 371.52410005 -207.22309066 373.36459489 -207.24804688 375.20507812 C-207.28320253 378.10627994 -207.31253259 381.00705804 -207.32592773 383.90844727 C-207.34138735 386.70901622 -207.3815754 389.50835043 -207.42578125 392.30859375 C-207.42387283 393.1753624 -207.42196442 394.04213104 -207.41999817 394.93516541 C-207.54239636 400.95353111 -207.54239636 400.95353111 -209.91088867 404.10546875 C-212.15908737 405.67345401 -213.28403619 406.13030462 -216 406.125 C-216.99 406.15787109 -216.99 406.15787109 -218 406.19140625 C-221.25506302 405.16784151 -222.20813652 403.43324136 -224 400.5625 C-224.58699282 397.38008232 -224.56084663 394.24860125 -224.53125 391.01953125 C-224.53699036 389.63407356 -224.53699036 389.63407356 -224.54284668 388.22062683 C-224.5455641 386.26808583 -224.53821479 384.31550832 -224.52148438 382.36303711 C-224.50019403 379.4019859 -224.52122819 376.44339483 -224.546875 373.48242188 C-224.54422931 371.57811972 -224.53909937 369.67381907 -224.53125 367.76953125 C-224.53934692 366.89625687 -224.54744385 366.02298248 -224.55578613 365.12324524 C-224.44583463 357.76330046 -222.69640643 350.89614311 -218 345.08984375 C-217.01 344.30287109 -217.01 344.30287109 -216 343.5 C-215.34 342.95214844 -214.68 342.40429688 -214 341.83984375 C-211.97360996 340.54564542 -210.35174359 339.98770364 -208 339.5625 C-207.22216101 333.82593747 -206.92427958 328.32990273 -210.50488281 323.55615234 C-214.35938354 319.48818083 -218.64991182 315.96155764 -222.95458984 312.38598633 C-226.3041986 309.39980492 -229.11493417 305.98822587 -232 302.5625 C-233.37204591 301.08059276 -234.74663049 299.60102727 -236.125 298.125 C-242.56009088 290.97975478 -248.2814024 283.28370616 -254 275.5625 C-254.52029785 274.8617334 -255.0405957 274.1609668 -255.57666016 273.43896484 C-266.3815266 258.78870584 -275.16021122 243.21770627 -283.625 227.125 C-284.14642578 226.1354834 -284.66785156 225.1459668 -285.20507812 224.12646484 C-285.68654297 223.19914551 -286.16800781 222.27182617 -286.6640625 221.31640625 C-287.09154785 220.49470947 -287.5190332 219.6730127 -287.95947266 218.82641602 C-291.02071344 212.16595478 -290.87895112 205.28190999 -288.4375 198.4375 C-285.65936784 192.14757401 -281.69159417 188.26534529 -275.9375 184.625 C-269.20953341 182.18953698 -260.56329534 182.16341764 -254.078125 185.17578125 C-249.51861191 187.64673254 -245.63380482 190.84860565 -241.6875 194.1875 C-240.29642057 195.34737155 -238.90452612 196.50626648 -237.51171875 197.6640625 C-236.90803467 198.17275879 -236.30435059 198.68145508 -235.68237305 199.20556641 C-233.83198877 200.73994133 -233.83198877 200.73994133 -231 202.5625 C-230.99413376 201.3820108 -230.98826752 200.20152161 -230.98222351 198.98526001 C-230.92488786 187.83340491 -230.85206967 176.68174278 -230.76428509 165.53008461 C-230.71965184 159.79757735 -230.68038014 154.06514002 -230.65356445 148.33251953 C-230.62746129 142.79511541 -230.5870092 137.25798137 -230.53681374 131.72074509 C-230.52019241 129.61340075 -230.50864877 127.50600974 -230.50238609 125.39860916 C-230.49269344 122.43553941 -230.4645726 119.47315328 -230.43237305 116.51025391 C-230.43380814 115.64853577 -230.43524323 114.78681763 -230.4367218 113.89898682 C-230.30744352 105.42861178 -228.71595235 97.34351944 -222.74609375 91.03125 C-216.57061669 85.83666527 -209.91958879 84.28461969 -202 84.5625 C-200.32442621 84.84770405 -198.65182755 85.16205696 -197 85.5625 C-196.9071875 84.325 -196.9071875 84.325 -196.8125 83.0625 C-194.98754899 75.20117258 -190.81160794 70.90355821 -184.0859375 66.69140625 C-180.26497521 64.62350719 -177.21598442 64.42710271 -172.9375 64.4375 C-171.87402344 64.43492187 -170.81054688 64.43234375 -169.71484375 64.4296875 C-167 64.5625 -167 64.5625 -165 65.5625 C-165.0314209 64.59425293 -165.0314209 64.59425293 -165.06347656 63.60644531 C-165.14674205 60.67528932 -165.19869206 57.74438223 -165.25 54.8125 C-165.28351563 53.79671875 -165.31703125 52.7809375 -165.3515625 51.734375 C-165.45053008 44.21283873 -165.45053008 44.21283873 -163.16796875 40.91796875 C-160.32770211 39.1421624 -158.35454385 38.63096008 -155 38.5625 C-150.43478261 40.69293478 -150.43478261 40.69293478 -149 43.5625 C-148.91301772 46.47949274 -148.88448077 49.37232548 -148.90234375 52.2890625 C-148.90446617 53.58328629 -148.90446617 53.58328629 -148.90663147 54.90365601 C-148.91223812 57.6649723 -148.92479173 60.42620812 -148.9375 63.1875 C-148.94251414 65.0572905 -148.9470772 66.92708226 -148.95117188 68.796875 C-148.96220971 73.38544777 -148.9794788 77.97396023 -149 82.5625 C-148.34 82.2325 -147.68 81.9025 -147 81.5625 C-139.34514499 80.90110318 -132.24695742 80.64439098 -126 85.5625 C-120.72645472 90.5744607 -117.11951381 94.91732873 -116.875 102.375 C-116.91625 103.426875 -116.9575 104.47875 -117 105.5625 C-116.42507812 105.40394531 -115.85015625 105.24539062 -115.2578125 105.08203125 C-107.66890437 103.3357946 -100.69438729 104.62332335 -94 108.5625 C-88.32344543 113.37638868 -84.60102195 119.40295158 -83.7290287 126.88868713 C-83.63333939 129.4806587 -83.62855838 132.05682811 -83.65942383 134.65039062 C-83.65898575 135.62691589 -83.65854767 136.60344116 -83.65809631 137.60955811 C-83.66017362 140.81283088 -83.68345486 144.01556952 -83.70703125 147.21875 C-83.71263096 149.44933791 -83.71689929 151.67992953 -83.71989441 153.91052246 C-83.73131359 159.76312562 -83.76075569 165.61550316 -83.79400635 171.46801758 C-83.83018531 178.4998712 -83.8438823 185.53180052 -83.86136627 192.5637207 C-83.89039462 203.23013708 -83.94790269 213.89605902 -84 224.5625 C-67.83 224.5625 -51.66 224.5625 -35 224.5625 C-35 217.3025 -35 210.0425 -35 202.5625 C-32.38423073 198.20288455 -29.96020673 195.45301688 -26.25 192.1875 C-21.07701 187.52189792 -16.05280952 182.73659695 -11.125 177.8125 C-10.51946289 177.21131348 -9.91392578 176.61012695 -9.29003906 175.99072266 C-4.99246811 171.68020012 -0.95168676 167.19094539 3 162.5625 C3.54543457 161.92376953 4.09086914 161.28503906 4.65283203 160.62695312 C13.66112677 149.99227274 22.03822451 138.99931912 30 127.5625 C30.44827148 126.92103027 30.89654297 126.27956055 31.35839844 125.61865234 C54.11090197 95.43835492 54.11090197 95.43835492 63.62109375 61.828125 C62.81513067 58.88813389 61.36988666 57.10050658 58.859375 55.36743164 C55.2981661 53.8257686 51.78611771 53.94658597 48 54.5625 C45.15790128 55.88098111 42.89883586 57.68909239 40.5 59.6875 C39.82855957 60.21722412 39.15711914 60.74694824 38.46533203 61.29272461 C36.28769905 63.02341213 34.14122275 64.78700227 32 66.5625 C31.24428711 67.18753418 30.48857422 67.81256836 29.70996094 68.45654297 C28.9471582 69.08834473 28.18435547 69.72014648 27.3984375 70.37109375 C26.64240234 70.99677246 25.88636719 71.62245117 25.10742188 72.26708984 C23.65115731 73.47905106 22.20157008 74.69909435 20.75976562 75.92822266 C16.0330077 79.91256386 11.83328404 83.25893385 5.5 83.9375 C1.5535954 83.51467094 -0.69860433 82.76343044 -4 80.5625 C-7.55142514 76.12706146 -8.5028248 73.16634479 -8.51757812 67.51904297 C-8.52809204 66.50324158 -8.52809204 66.50324158 -8.53881836 65.46691895 C-8.55631359 63.24574854 -8.54481011 61.02586907 -8.53125 58.8046875 C-8.53394676 57.25342567 -8.53783072 55.70216549 -8.54284668 54.15090942 C-8.54872964 50.90789617 -8.54021579 47.66532498 -8.52148438 44.42236328 C-8.49865671 40.26813665 -8.51184865 36.1149416 -8.53577423 31.96075249 C-8.5502326 28.76079541 -8.54562685 25.56108278 -8.53526306 22.36111832 C-8.53259783 20.82932538 -8.53585843 19.29751014 -8.54518127 17.76574326 C-8.55535256 15.62562011 -8.53984312 13.48716682 -8.51757812 11.34716797 C-8.51439575 10.13060516 -8.51121338 8.91404236 -8.50793457 7.66061401 C-7.7110995 2.80037012 -5.02010544 -0.00980489 0 0 Z M-181 85.5625 C-181.72265349 88.82215154 -181.66005416 92.01049453 -181.61181641 95.33813477 C-181.61748123 96.31755035 -181.62314606 97.29696594 -181.62898254 98.30606079 C-181.64247245 101.53906662 -181.62154907 104.77094959 -181.6015625 108.00390625 C-181.60706171 110.25163034 -181.61518543 112.49934941 -181.62582397 114.74705505 C-181.64872041 120.66229695 -181.64448377 126.57716943 -181.63201904 132.49243164 C-181.61371729 141.96414395 -181.62360676 151.43564045 -181.65787888 160.90730095 C-181.66399592 164.21787172 -181.65070705 167.52798166 -181.63589478 170.83851624 C-181.63884206 172.86443197 -181.64249632 174.89034684 -181.64697266 176.91625977 C-181.63768234 177.83844803 -181.62839203 178.76063629 -181.61882019 179.71076965 C-181.65780316 185.9342993 -181.65780316 185.9342993 -183.40097046 189.13438416 C-185.38328814 190.90482005 -186.36672479 191.07480895 -189 191 C-190.0209375 190.99806641 -190.0209375 190.99806641 -191.0625 190.99609375 C-193.69663264 190.40660036 -194.41166286 189.76814375 -196 187.5625 C-196.29407092 184.94898142 -196.40679833 182.57145364 -196.38476562 179.95751953 C-196.3901384 179.18482727 -196.39551117 178.41213501 -196.40104675 177.61602783 C-196.41083023 175.9381981 -196.41376717 174.26031774 -196.41069031 172.58246231 C-196.40621717 169.92581248 -196.42019846 167.26983055 -196.43908691 164.61325073 C-196.47590104 158.9713448 -196.48958111 153.32950836 -196.5 147.6875 C-196.51207717 141.15638707 -196.53363172 134.62559847 -196.58000183 128.0946312 C-196.59357316 125.4793907 -196.58940053 122.86456 -196.58459473 120.2492981 C-196.59393698 118.64161661 -196.60410621 117.03393965 -196.61523438 115.42626953 C-196.60908615 114.70089996 -196.60293793 113.9755304 -196.59660339 113.22817993 C-196.64995308 108.83365946 -197.3293657 106.07350112 -200 102.5625 C-202.38219081 100.81556008 -203.54474533 100.53973727 -206.5 100.6875 C-209.54808218 101.75432876 -210.95867549 103.08374881 -213 105.5625 C-213.93599949 108.37049847 -214.13055534 110.09105324 -214.14476013 112.9964447 C-214.15510788 114.35705269 -214.15510788 114.35705269 -214.16566467 115.74514771 C-214.16958473 117.23436234 -214.16958473 117.23436234 -214.17358398 118.75366211 C-214.180271 119.80106064 -214.18695801 120.84845917 -214.19384766 121.92759705 C-214.20790762 124.20458241 -214.21979865 126.48158196 -214.22979546 128.75858879 C-214.24618507 132.35990936 -214.26942143 135.96112467 -214.29469299 139.56239319 C-214.36553085 149.80252862 -214.4256464 160.04270669 -214.47680664 170.28295898 C-214.50856424 176.54342909 -214.54983016 182.80377784 -214.59700203 189.06414986 C-214.6130397 191.45278304 -214.62535307 193.84144419 -214.63390923 196.23011589 C-214.64603723 199.56751739 -214.67017628 202.9046325 -214.69702148 206.24194336 C-214.69761063 207.23272888 -214.69819977 208.2235144 -214.69880676 209.24432373 C-214.70852509 210.15421555 -214.71824341 211.06410736 -214.72825623 212.00157166 C-214.73248816 212.79041717 -214.7367201 213.57926268 -214.74108028 214.3920126 C-215.0369034 216.87185601 -215.67880376 218.44957115 -217 220.5625 C-221.00544633 223.39562057 -224.54817522 224.31533564 -229.33203125 223.578125 C-235.00484161 221.41863643 -239.53481205 217.0299451 -244.11669922 213.14257812 C-247.26809831 210.49857308 -250.51106637 207.97283084 -253.75 205.4375 C-254.34643311 204.9645752 -254.94286621 204.49165039 -255.55737305 204.00439453 C-259.99642933 200.49786965 -262.24150575 198.99794174 -268 199.5625 C-271.28176105 201.45862861 -272.70326416 202.61459386 -273.84375 206.2578125 C-274.04315706 210.47527181 -272.65442709 213.21307751 -270.6875 216.8125 C-270.32430664 217.50359863 -269.96111328 218.19469727 -269.58691406 218.90673828 C-268.40783618 221.13460644 -267.20434143 223.34820544 -266 225.5625 C-265.21955949 227.03359294 -264.43961088 228.50494695 -263.66015625 229.9765625 C-254.37519334 247.2926378 -243.23660041 263.21522901 -231 278.5625 C-230.34572021 279.39467041 -230.34572021 279.39467041 -229.67822266 280.24365234 C-228.40865514 281.8458317 -227.11841663 283.42731941 -225.8125 285 C-225.36543701 285.53963379 -224.91837402 286.07926758 -224.45776367 286.63525391 C-221.27476403 290.31868018 -217.86278404 293.65093315 -214.25898743 296.91462708 C-211.8585585 299.0941225 -209.49275635 301.30997323 -207.12484741 303.52468872 C-205.9346482 304.61668502 -204.72718976 305.69021906 -203.50186157 306.74264526 C-202.62175919 307.49929977 -202.62175919 307.49929977 -201.72387695 308.27124023 C-201.20598099 308.70597153 -200.68808502 309.14070282 -200.15449524 309.58860779 C-190.01445992 319.92247933 -192.85933422 321.3758157 -192 338.5625 C-165.6 338.5625 -139.2 338.5625 -112 338.5625 C-111.67 328.6625 -111.34 318.7625 -111 308.5625 C-108.1875 299.8125 -108.1875 299.8125 -106.5625 296.2265625 C-104.73427068 291.93936473 -103.66855803 287.73045957 -102.6875 283.1875 C-102.52854248 282.47368164 -102.36958496 281.75986328 -102.20581055 281.02441406 C-100.10489644 271.04074085 -99.84805988 261.10487209 -99.83886719 250.93041992 C-99.83422781 249.58731961 -99.82920169 248.24422059 -99.82382202 246.90112305 C-99.81081736 243.28372671 -99.80427853 239.6663488 -99.79981136 236.04893279 C-99.79686564 233.78578115 -99.79275848 231.5226344 -99.78830719 229.25948524 C-99.7746736 222.16830573 -99.76498264 215.07713758 -99.7611053 207.98594588 C-99.75661238 199.81658051 -99.73899031 191.64738143 -99.7101047 183.47806662 C-99.68849705 177.14662561 -99.67840177 170.81523148 -99.67706418 164.48375398 C-99.67601696 160.70821695 -99.67012496 156.93283714 -99.65224457 153.1573391 C-99.6357761 149.61217645 -99.63360219 146.06728961 -99.64238358 142.52210236 C-99.64352127 140.603953 -99.62980086 138.68581281 -99.6156311 136.76771545 C-99.62120026 135.62255463 -99.62676941 134.4773938 -99.63250732 133.29753113 C-99.63104076 132.30484317 -99.6295742 131.31215521 -99.6280632 130.2893858 C-100.06716604 127.07006654 -101.12337955 125.19101936 -103 122.5625 C-105.5660206 120.61586368 -106.81116974 120.55479264 -110.0625 120.6875 C-113.45852857 121.69908298 -114.29907155 122.5187333 -116 125.5625 C-117.01842774 128.61778321 -117.13026878 130.70564775 -117.1418457 133.90429688 C-117.14888016 134.99552856 -117.15591461 136.08676025 -117.16316223 137.21105957 C-117.16940865 138.97830383 -117.16940865 138.97830383 -117.17578125 140.78125 C-117.19896994 143.26433148 -117.22308688 145.74740444 -117.24804688 148.23046875 C-117.28324567 152.15451848 -117.31255369 156.07825258 -117.32592773 160.00244141 C-117.34134322 163.78326701 -117.38150361 167.56316702 -117.42578125 171.34375 C-117.42387283 172.52191284 -117.42196442 173.70007568 -117.41999817 174.91394043 C-117.43648911 176.00517212 -117.45298004 177.09640381 -117.4699707 178.22070312 C-117.47583694 179.18206177 -117.48170319 180.14342041 -117.48774719 181.13391113 C-118 183.5625 -118 183.5625 -119.88566589 185.39172363 C-122.50199415 186.84047068 -123.82810282 186.72265984 -126.75 186.25 C-127.54921875 186.13011719 -128.3484375 186.01023437 -129.171875 185.88671875 C-129.77515625 185.77972656 -130.3784375 185.67273438 -131 185.5625 C-132.04105861 181.29939534 -132.13879584 177.16817901 -132.12597656 172.80639648 C-132.12877876 171.65914093 -132.12877876 171.65914093 -132.13163757 170.4887085 C-132.13562902 168.83435336 -132.13771525 167.17999276 -132.13809967 165.52563286 C-132.14152668 162.00809784 -132.16289672 158.4907458 -132.18333054 154.97327518 C-132.22131769 148.42950446 -132.25260897 141.88593476 -132.25048828 135.34204102 C-132.24970224 130.78430733 -132.27301084 126.2272516 -132.3123703 121.6696949 C-132.32284191 119.93418486 -132.32434577 118.1985967 -132.31671906 116.46307182 C-132.3071191 114.03770041 -132.32823172 111.61439372 -132.35644531 109.18920898 C-132.34624863 108.47273697 -132.33605194 107.75626495 -132.32554626 107.01808167 C-132.40296364 103.31010176 -132.74092577 101.83222958 -135.34881592 99.11708069 C-138.59201957 97.21535617 -140.2999478 96.93270388 -144 97.5625 C-146.30275556 99.4295991 -147.67823871 100.91897741 -149 103.5625 C-149.10138585 106.04324275 -149.14365455 108.49685923 -149.1418457 110.97802734 C-149.14705734 112.12462578 -149.14705734 112.12462578 -149.15237427 113.29438782 C-149.1597344 114.95697678 -149.16507841 116.61957559 -149.16866493 118.28217697 C-149.17582114 120.91310382 -149.19148095 123.54384315 -149.21000671 126.17471313 C-149.26251853 133.6558374 -149.31046617 141.13685943 -149.32592773 148.61816406 C-149.33600087 153.19182471 -149.36530793 157.7650147 -149.40724754 162.33848953 C-149.41957211 164.08236763 -149.42467614 165.82631217 -149.42244911 167.57023239 C-149.42009999 170.0100616 -149.44223091 172.44853715 -149.4699707 174.88818359 C-149.46006859 175.96996132 -149.46006859 175.96996132 -149.44996643 177.07359314 C-149.51323441 180.45998856 -149.78245526 182.27390678 -151.84562683 185.01089478 C-154 186.5625 -154 186.5625 -157 187.0625 C-160.82291105 186.42534816 -161.7328772 185.69999359 -164 182.5625 C-164.58333688 179.47083096 -164.51225078 176.42129017 -164.46655273 173.28344727 C-164.46885895 172.34479828 -164.47116516 171.40614929 -164.47354126 170.4390564 C-164.47617055 168.40216406 -164.46972534 166.36524444 -164.45528984 164.32840157 C-164.4334285 161.1045364 -164.43711214 157.88161087 -164.44776917 154.65769958 C-164.46945434 146.65111656 -164.45205735 138.64474141 -164.42626953 130.63818359 C-164.4048828 123.87284739 -164.40290107 117.10811273 -164.42918587 110.34278679 C-164.43354197 107.16666099 -164.40888099 103.99157512 -164.38365173 100.81556702 C-164.3889224 98.86735569 -164.3956448 96.91914757 -164.40405273 94.97094727 C-164.38914291 94.08818619 -164.37423309 93.20542511 -164.35887146 92.2959137 C-164.41008095 87.89363326 -164.57889653 86.10891205 -167.3497467 82.51353455 C-169.87433945 80.37157901 -169.87433945 80.37157901 -173 79.9375 C-177.15640389 80.80341748 -178.42261149 82.19440207 -181 85.5625 Z M-84 240.5625 C-84.33 250.1325 -84.66 259.7025 -85 269.5625 C-62.23 269.5625 -39.46 269.5625 -16 269.5625 C-13.7593546 249.9495662 -13.7593546 249.9495662 -21 242.5625 C-25.02598759 240.70086744 -28.51158536 240.31588482 -32.91357422 240.33544922 C-34.05430389 240.33560028 -35.19503357 240.33575134 -36.37033081 240.33590698 C-37.58616852 240.34622955 -38.80200623 240.35655212 -40.0546875 240.3671875 C-41.93971481 240.37143234 -41.93971481 240.37143234 -43.86282349 240.37576294 C-47.18700864 240.38503877 -50.51091424 240.40297619 -53.83502197 240.4251709 C-57.23373977 240.44571187 -60.63248742 240.45489217 -64.03125 240.46484375 C-70.68765637 240.48516245 -77.3435763 240.52431784 -84 240.5625 Z " fill="#000000" transform="translate(290,106.4375)"/>
<path d="M0 0 C1.12855637 0.71277244 2.23681107 1.45969793 3.3125 2.25 C4.199375 2.8275 5.08625 3.405 6 4 C12.02487472 9.86204027 14.18383503 16.02927601 15.3125 24.25 C16.281875 23.92 17.25125 23.59 18.25 23.25 C25.78430884 21.14281906 33.31928955 21.65108447 40.3125 25.25 C47.75000049 30.45984334 52.3494342 36.37436808 54.3125 45.25 C54.44310297 48.10038732 54.52428252 50.92593923 54.55078125 53.77734375 C54.558853 54.6032753 54.56692474 55.42920685 54.57524109 56.28016663 C54.58904626 58.02424033 54.5997843 59.76834064 54.60766602 61.51245117 C54.61921093 63.29410732 54.63970227 65.07572821 54.66918945 66.85717773 C54.71184685 69.43497151 54.72802944 72.01174096 54.73828125 74.58984375 C54.76454338 75.7791172 54.76454338 75.7791172 54.79133606 76.99241638 C54.77593384 80.92777603 54.5873198 82.8141393 52.43432617 86.22875977 C49.91932074 88.62454045 48.78325874 89.25 45.3125 89.25 C39.67394578 86.97289157 39.67394578 86.97289157 38.3125 84.25 C38.20397369 81.55047802 38.15113163 78.87215423 38.13671875 76.171875 C38.11351243 74.51951862 38.08939476 72.86717484 38.06445312 71.21484375 C38.02939969 68.61010411 38.00003009 66.00582524 37.98657227 63.40087891 C37.97103945 60.88647517 37.93078989 58.37341983 37.88671875 55.859375 C37.88958138 54.70124298 37.88958138 54.70124298 37.89250183 53.51971436 C37.77591535 48.33152694 36.68399339 45.39916389 33.3125 41.25 C30.68936301 39.09528033 28.58241934 39.13883916 25.3125 39.375 C21.52392705 39.96057087 19.67249585 41.13480548 17.3125 44.25 C15.60703176 47.66093649 16.14989547 51.56384945 16.13891602 55.31787109 C16.1288855 56.72781593 16.1288855 56.72781593 16.11865234 58.16624451 C16.10458126 60.21188423 16.0926938 62.25753985 16.08270454 64.30320358 C16.0663275 67.5389965 16.04309106 70.77467167 16.01780701 74.01040649 C15.94693958 83.21195636 15.88688446 92.41355443 15.83569336 101.61523438 C15.80392454 107.23914198 15.76265345 112.8629148 15.71549797 118.48671341 C15.6994643 120.63251956 15.68714906 122.77835679 15.67859077 124.92420578 C15.66645446 127.92405654 15.64231132 130.92358974 15.61547852 133.92333984 C15.61488937 134.81283829 15.61430023 135.70233673 15.61369324 136.61878967 C15.59911575 137.84696159 15.59911575 137.84696159 15.58424377 139.09994507 C15.58001184 139.80897161 15.5757799 140.51799816 15.57141972 141.24851036 C15.1633586 144.40288617 14.14209611 146.60475858 11.625 148.5625 C8.24088082 149.56858949 5.71583226 149.05442399 2.3125 148.25 C0.08835445 146.61441892 -0.60296247 145.75358652 -1.06388092 143.00791454 C-1.06459343 142.12617723 -1.06530594 141.24443991 -1.06604004 140.33598328 C-1.07424271 139.3224176 -1.08244537 138.30885193 -1.09089661 137.26457214 C-1.08474838 136.15334488 -1.07860016 135.04211761 -1.07226562 133.8972168 C-1.0776384 132.72623444 -1.08301117 131.55525208 -1.08854675 130.3487854 C-1.10090481 127.13575686 -1.10024353 123.92302482 -1.09481621 120.7099874 C-1.09303219 117.34549056 -1.11044196 113.98110383 -1.12658691 110.61665344 C-1.16446239 102.05695103 -1.17723878 93.49727334 -1.1875 84.9375 C-1.19857531 75.7067621 -1.21397946 66.47615548 -1.25821257 57.24550754 C-1.27949275 52.59731603 -1.27771402 47.94944554 -1.27209473 43.30119324 C-1.28143518 40.86444759 -1.29160395 38.42770493 -1.30273438 35.9909668 C-1.29658615 34.88581223 -1.29043793 33.78065765 -1.28410339 32.64201355 C-1.33638286 26.12816509 -1.84277546 21.41080504 -6.375 16.375 C-9.79548869 14.71097848 -13.00630591 14.59865552 -16.6875 15.25 C-19.87826387 17.05347523 -21.28897403 18.37370458 -22.80435181 21.70578003 C-24.02712988 26.61299094 -23.96288807 31.2936684 -23.94287109 36.33251953 C-23.94649155 37.43887756 -23.950112 38.5452356 -23.95384216 39.68511963 C-23.9607234 42.08155621 -23.96324399 44.47800842 -23.96189499 46.8744545 C-23.96092927 50.66509864 -23.97387614 54.45545963 -23.99087524 58.24606323 C-24.03714539 69.02128545 -24.06185264 79.79646183 -24.06835938 90.57177734 C-24.07250955 97.16642569 -24.09755445 103.76081169 -24.13368607 110.35537338 C-24.14350451 112.86960949 -24.14580495 115.38388642 -24.14051437 117.89813614 C-24.13347276 121.40783972 -24.15066561 124.91665042 -24.17333984 128.42626953 C-24.16108116 129.98953476 -24.16108116 129.98953476 -24.14857483 131.5843811 C-24.22923557 138.58053027 -24.22923557 138.58053027 -26.50088501 141.8991394 C-29.70982161 143.8815762 -31.99412299 143.71167213 -35.6875 143.25 C-38.8725357 141.48984869 -39.52046972 140.75109084 -40.6875 137.25 C-40.78260212 134.21793843 -40.82071947 131.20838913 -40.81347656 128.17626953 C-40.8153447 127.24752014 -40.81721283 126.31877075 -40.81913757 125.36187744 C-40.82314301 123.3435303 -40.82521654 121.32517862 -40.82559967 119.30682755 C-40.82901187 115.01812711 -40.85036851 110.72957874 -40.87083054 106.44093132 C-40.9088791 98.45327625 -40.94011268 90.46578336 -40.93798828 82.47802734 C-40.93720206 76.92413226 -40.96052643 71.37079325 -40.9998703 65.8170433 C-41.01034497 63.69997532 -41.0118436 61.58284326 -41.00421906 59.46576309 C-40.99461609 56.5040679 -41.01574395 53.54406209 -41.04394531 50.58251953 C-41.03374863 49.70753815 -41.02355194 48.83255676 -41.01304626 47.93106079 C-41.0884907 43.51472105 -41.25315849 41.79324246 -44.10272217 38.22921753 C-48.17169625 35.11352042 -50.53223081 34.81311278 -55.6875 35.25 C-59.22796682 37.45295714 -61.10228645 39.43479122 -62.6875 43.25 C-62.98219469 45.24787286 -62.98219469 45.24787286 -62.9390564 47.34863281 C-62.94713066 48.55984802 -62.94713066 48.55984802 -62.95536804 49.79553223 C-62.95124405 50.67253784 -62.94712006 51.54954346 -62.94287109 52.453125 C-62.94830177 53.84887756 -62.94830177 53.84887756 -62.95384216 55.27282715 C-62.96073176 57.29169739 -62.96324242 59.31058623 -62.96189499 61.32946777 C-62.96093041 64.52348456 -62.97386316 67.71716424 -62.99087524 70.91113281 C-63.03717497 79.99151006 -63.06176486 89.07185253 -63.06835938 98.15234375 C-63.07336653 103.7073107 -63.09757394 109.26192487 -63.13368607 114.81677246 C-63.14350065 116.93467087 -63.14580702 119.05261769 -63.14051437 121.17053223 C-63.13346502 124.12969848 -63.15068151 127.08780862 -63.17333984 130.046875 C-63.16516739 130.92388062 -63.15699493 131.80088623 -63.14857483 132.70446777 C-63.22960076 138.6402004 -63.22960076 138.6402004 -65.59463501 141.78979492 C-67.84508728 143.35994964 -68.96878241 143.81781 -71.6875 143.8125 C-72.6775 143.84537109 -72.6775 143.84537109 -73.6875 143.87890625 C-76.84448253 142.88618323 -77.89137282 140.96645967 -79.6875 138.25 C-80.17956543 135.10083008 -80.17956543 135.10083008 -80.16992188 131.51953125 C-80.17383438 130.86358978 -80.17774689 130.20764832 -80.18177795 129.53182983 C-80.18773288 128.11484738 -80.18461914 126.69780347 -80.1733551 125.28085327 C-80.15604201 123.03552572 -80.16362656 120.79147985 -80.1776123 118.54614258 C-80.20721068 112.97205738 -80.1940743 107.39822005 -80.18243408 101.82409668 C-80.1742238 97.10854059 -80.18219137 92.3935463 -80.21156311 87.67807007 C-80.21864471 85.47032461 -80.20199808 83.26357503 -80.18444824 81.0559082 C-80.19015733 79.69742298 -80.19697522 78.33894181 -80.20507812 76.98046875 C-80.20030457 75.20772583 -80.20030457 75.20772583 -80.19543457 73.39916992 C-80.78880537 69.60165568 -82.02568622 67.97086975 -84.6875 65.25 C-87.59968567 63.56399777 -89.31914419 63.24232592 -92.6875 63.3125 C-96.45786448 64.4907389 -98.14739992 66.27445419 -100.6875 69.25 C-101.91668995 71.7083799 -101.81855671 73.33055645 -101.8293457 76.0793457 C-101.83638016 77.08411453 -101.84341461 78.08888336 -101.85066223 79.12409973 C-101.85482651 80.21365463 -101.85899078 81.30320953 -101.86328125 82.42578125 C-101.88647971 84.7207123 -101.91059706 87.0156342 -101.93554688 89.31054688 C-101.97067552 92.93813179 -102.00001065 96.56538087 -102.01342773 100.19311523 C-102.02889179 103.68775355 -102.06909515 107.18140357 -102.11328125 110.67578125 C-102.11137283 111.75926346 -102.10946442 112.84274567 -102.10749817 113.95906067 C-102.22991702 121.48806325 -102.22991702 121.48806325 -104.59838867 125.43188477 C-106.84384216 127.38606171 -107.74852686 127.93240182 -110.6875 127.875 C-111.3475 127.88789063 -112.0075 127.90078125 -112.6875 127.9140625 C-116.02275296 126.80665429 -116.88451922 125.28065015 -118.6875 122.25 C-119.29494452 118.25821472 -119.24770934 114.29695217 -119.21875 110.265625 C-119.2225769 109.09545837 -119.22640381 107.92529175 -119.23034668 106.71966553 C-119.23306661 104.24506775 -119.22569991 101.77044126 -119.20898438 99.29589844 C-119.1876547 95.52733343 -119.20874562 91.76069174 -119.234375 87.9921875 C-119.23173024 85.58332915 -119.2266022 83.174472 -119.21875 80.765625 C-119.22684692 79.64657776 -119.23494385 78.52753052 -119.24328613 77.37457275 C-119.12550452 67.43256246 -116.39267275 60.2754758 -109.6171875 52.9765625 C-103.27416401 47.30122569 -96.01794447 45.82641808 -87.6875 46.25 C-84.97177821 46.79790878 -82.35855238 47.50023091 -79.6875 48.25 C-79.77 47.321875 -79.8525 46.39375 -79.9375 45.4375 C-79.8776024 38.04014586 -77.04905106 31.22300884 -72.0625 25.8125 C-65.00199836 19.46846993 -57.770892 17.66279872 -48.40625 17.9765625 C-45.2815532 18.29082798 -42.56015354 18.97326509 -39.6875 20.25 C-39.64625 19.445625 -39.605 18.64125 -39.5625 17.8125 C-37.57090546 9.70386508 -32.68842686 4.66508406 -25.73828125 0.34375 C-18.93882457 -3.2826269 -6.92453234 -3.39568413 0 0 Z " fill="#000000" transform="translate(243.6875,1.75)"/>
<path d="M0 0 C3.19140625 0.6015625 3.19140625 0.6015625 6.19140625 2.6640625 C8.19140625 5.6015625 8.19140625 5.6015625 8.44140625 8.9140625 C6.24739772 15.38638767 1.23435855 19.82935283 -3.93450928 24.14837646 C-10.62301739 29.82734802 -16.43407514 34.87107568 -17.52531815 43.94298172 C-17.750125 48.47668372 -17.63123809 52.95927124 -17.44921875 57.4921875 C-17.43160753 59.45508578 -17.4217227 61.41806691 -17.41912842 63.38104248 C-17.39461171 68.49823973 -17.27826389 73.60889636 -17.13763428 78.72406006 C-16.92979269 86.9480065 -16.87430941 95.17486288 -16.79991913 103.40087128 C-16.76224377 106.26477776 -16.69112461 109.12625144 -16.61334229 111.98931885 C-16.58071485 113.73668727 -16.54844807 115.48406248 -16.51660156 117.23144531 C-16.48643448 118.02414322 -16.4562674 118.81684113 -16.42518616 119.63356018 C-16.37986725 123.23179258 -16.48957513 125.18200143 -18.70184326 128.0914917 C-20.97757857 129.72268697 -22.04143701 130.14479932 -24.80859375 130.1015625 C-25.46859375 130.111875 -26.12859375 130.1221875 -26.80859375 130.1328125 C-29.86972804 129.3196987 -30.89874876 128.14357359 -32.80859375 125.6015625 C-33.41687716 122.54993185 -33.36521683 119.53358935 -33.34204102 116.43017578 C-33.35496437 115.0392421 -33.35496437 115.0392421 -33.3681488 113.62020874 C-33.39085744 110.55381378 -33.38405991 107.48832925 -33.375 104.421875 C-33.38023407 102.28961922 -33.38650975 100.15736576 -33.39378357 98.02511597 C-33.40419735 93.5545564 -33.39961313 89.08431493 -33.38500977 84.61376953 C-33.36783638 78.88802043 -33.3912948 73.16327616 -33.42649937 67.43763924 C-33.44847562 63.03320683 -33.44703101 58.62901464 -33.43873405 54.22454453 C-33.43791436 52.11384862 -33.44478116 50.0031351 -33.45950508 47.89249039 C-33.47695107 44.93828146 -33.46240664 41.98587514 -33.43969727 39.03173828 C-33.45138947 38.16192322 -33.46308167 37.29210815 -33.47512817 36.39593506 C-33.38140097 30.39463411 -32.11081232 27.80660993 -27.80859375 23.6015625 C-26.57168762 22.44961932 -25.30458336 21.32860254 -24 20.25390625 C-21.08849907 17.77267639 -18.39760542 15.20171876 -15.7734375 12.41796875 C-15.10892578 11.71865234 -14.44441406 11.01933594 -13.75976562 10.29882812 C-12.40178597 8.85918529 -11.05561125 7.40832707 -9.72070312 5.94726562 C-4.72347253 0.74606643 -4.72347253 0.74606643 0 0 Z " fill="#000000" transform="translate(443.80859375,382.3984375)"/>
</svg>
